<svg width="130" height="42" viewBox="0 0 130 42" fill="none" xmlns="http://www.w3.org/2000/svg">
<g filter="url(#filter0_d_320_230)">
<rect x="4" y="4" width="120" height="32" rx="6" fill="#4DABF5"/>
<g filter="url(#filter1_d_320_230)">
<path d="M11.95 29.59C11.222 29.59 10.6413 29.3387 10.208 28.836C9.77467 28.3333 9.558 27.7613 9.558 27.12C9.558 26.652 9.62733 26.184 9.766 25.716C9.90467 25.248 10.0347 24.7973 10.156 24.364C10.1733 24.3467 10.1907 24.312 10.208 24.26C10.2253 24.2253 10.2427 24.1733 10.26 24.104C10.2773 24.0693 10.2947 24.0347 10.312 24C10.3293 23.948 10.3207 23.9133 10.286 23.896C10.494 23.6533 10.6587 23.3933 10.78 23.116C10.9013 22.8387 11.0487 22.57 11.222 22.31C11.5167 21.8767 11.8373 21.4693 12.184 21.088C12.548 20.7067 12.9033 20.3253 13.25 19.944L13.276 19.892C13.3453 19.8227 13.4147 19.788 13.484 19.788C14.212 19.0427 15.07 18.3753 16.058 17.786C17.046 17.1793 18.0773 16.7547 19.152 16.512C19.4987 16.408 19.8453 16.356 20.192 16.356C20.2267 16.2 20.244 16.0353 20.244 15.862C20.2613 15.6887 20.2613 15.5153 20.244 15.342C20.2267 15.0993 20.1573 14.8047 20.036 14.458C19.9147 14.1113 19.7413 13.8687 19.516 13.73C19.4293 13.678 19.334 13.652 19.23 13.652C19.126 13.6347 19.022 13.626 18.918 13.626C18.5367 13.626 18.1293 13.6693 17.696 13.756C17.2627 13.8427 16.8467 13.886 16.448 13.886C16.2573 13.886 16.058 13.834 15.85 13.73C15.6593 13.626 15.564 13.444 15.564 13.184C15.564 12.9413 15.694 12.7767 15.954 12.69C16.2313 12.586 16.474 12.534 16.682 12.534C16.9767 12.534 17.2713 12.5513 17.566 12.586C17.8607 12.6207 18.1467 12.638 18.424 12.638C19.1 12.6553 19.776 12.6727 20.452 12.69C21.128 12.69 21.804 12.69 22.48 12.69C22.6707 12.69 22.87 12.6813 23.078 12.664C23.286 12.6467 23.4853 12.638 23.676 12.638L23.702 12.612C23.9447 12.5947 24.1787 12.5773 24.404 12.56C24.6467 12.5427 24.8807 12.4993 25.106 12.43C25.1407 12.482 25.158 12.5253 25.158 12.56C25.158 12.612 25.08 12.6813 24.924 12.768C24.7853 12.8547 24.6987 12.9067 24.664 12.924C24.404 13.0107 24.1353 13.0627 23.858 13.08C23.5807 13.08 23.312 13.0973 23.052 13.132C22.74 13.1667 22.4367 13.2447 22.142 13.366C21.8647 13.47 21.57 13.522 21.258 13.522C21.05 13.522 20.842 13.522 20.634 13.522C20.426 13.5047 20.218 13.4873 20.01 13.47C20.1487 13.522 20.2873 13.574 20.426 13.626C20.582 13.678 20.6687 13.704 20.686 13.704C20.8247 13.756 20.998 13.8687 21.206 14.042C21.414 14.198 21.596 14.3713 21.752 14.562C21.9253 14.7527 22.012 14.9087 22.012 15.03C22.0293 15.134 22.038 15.238 22.038 15.342C22.038 15.4287 22.038 15.5153 22.038 15.602C22.038 15.6713 22.038 15.758 22.038 15.862C22.038 15.9487 22.0207 16.044 21.986 16.148H22.012V16.2C22.1507 16.2 22.35 16.2173 22.61 16.252C22.8873 16.2867 23.1473 16.33 23.39 16.382C23.6327 16.434 23.7627 16.4947 23.78 16.564L23.858 16.772H23.806V16.798H23.598C23.5113 16.746 23.4073 16.72 23.286 16.72C23.182 16.7027 23.0867 16.694 23 16.694C22.584 16.694 22.2373 16.8587 21.96 17.188C21.8907 17.4307 21.7953 17.6647 21.674 17.89C21.57 18.1153 21.4747 18.358 21.388 18.618C21.3013 18.9993 21.2147 19.3807 21.128 19.762C21.0587 20.126 20.9287 20.4813 20.738 20.828C20.5993 21.1053 20.452 21.3827 20.296 21.66C20.14 21.9373 19.984 22.2147 19.828 22.492C19.7587 22.6133 19.6807 22.7433 19.594 22.882C19.5247 23.0033 19.4553 23.1333 19.386 23.272C19.3513 23.3413 19.3167 23.4193 19.282 23.506C19.2647 23.5927 19.2387 23.6793 19.204 23.766C19.1867 23.7833 19.1 23.8873 18.944 24.078C18.788 24.286 18.6147 24.5113 18.424 24.754C18.2333 24.9967 18.0513 25.222 17.878 25.43C17.722 25.638 17.6353 25.7593 17.618 25.794C17.4447 26.002 17.2627 26.184 17.072 26.34C16.8813 26.5133 16.708 26.704 16.552 26.912L16.526 26.99C16.4047 27.0593 16.2313 27.1807 16.006 27.354C15.798 27.5447 15.6507 27.6833 15.564 27.77C15.2867 28.03 14.9487 28.2987 14.55 28.576C14.1513 28.8707 13.7267 29.1133 13.276 29.304C12.8253 29.4947 12.3833 29.59 11.95 29.59ZM12.08 29.174C12.444 29.0353 12.782 28.888 13.094 28.732C13.406 28.576 13.7093 28.3853 14.004 28.16C14.1947 28.0213 14.3593 27.8653 14.498 27.692C14.654 27.5187 14.8187 27.354 14.992 27.198C15.8067 26.366 16.5173 25.4647 17.124 24.494C17.7307 23.5407 18.2767 22.5527 18.762 21.53L19.074 20.88C19.1953 20.62 19.282 20.4467 19.334 20.36C19.3167 20.1867 19.3513 20.0133 19.438 19.84C19.542 19.6667 19.6113 19.502 19.646 19.346C19.75 18.9127 19.8367 18.54 19.906 18.228C19.9927 17.8987 20.0707 17.526 20.14 17.11C20.0013 17.0753 19.8107 17.0753 19.568 17.11C19.3253 17.1447 19.0913 17.188 18.866 17.24C18.6407 17.292 18.476 17.344 18.372 17.396C17.9213 17.5867 17.5053 17.8207 17.124 18.098C16.7427 18.3753 16.3613 18.6613 15.98 18.956C15.8587 19.06 15.72 19.164 15.564 19.268C15.408 19.372 15.2607 19.4847 15.122 19.606C14.966 19.7273 14.8187 19.8487 14.68 19.97C14.5413 20.074 14.42 20.1867 14.316 20.308C14.264 20.3773 14.212 20.4553 14.16 20.542C14.108 20.6113 14.056 20.6807 14.004 20.75C13.5187 21.3567 13.0853 21.92 12.704 22.44C12.34 22.96 12.0193 23.584 11.742 24.312C11.7073 24.416 11.6553 24.52 11.586 24.624C11.534 24.728 11.4907 24.8233 11.456 24.91C11.352 25.1353 11.2307 25.4993 11.092 26.002C10.9707 26.522 10.91 27.0333 10.91 27.536C10.91 27.9693 10.988 28.3507 11.144 28.68C11.3173 29.0093 11.6293 29.174 12.08 29.174ZM23.5493 24.65C23.3759 24.65 23.2286 24.624 23.1073 24.572C23.0033 24.5373 22.9079 24.5027 22.8213 24.468C22.7693 24.4333 22.7086 24.39 22.6392 24.338C22.5873 24.286 22.5266 24.26 22.4573 24.26C22.4399 24.2253 22.4053 24.182 22.3533 24.13L22.2493 24.052C22.0933 23.9307 21.9893 23.7833 21.9373 23.61C21.8853 23.4367 21.8593 23.2373 21.8593 23.012C21.8593 22.7173 21.9286 22.4487 22.0673 22.206C22.2059 21.9633 22.3186 21.7033 22.4053 21.426C22.4399 21.3393 22.4573 21.2527 22.4573 21.166C22.4573 21.0793 22.4659 20.9927 22.4833 20.906C22.5179 20.7847 22.5699 20.672 22.6392 20.568C22.7086 20.464 22.7779 20.36 22.8473 20.256C23.2459 19.5627 23.7226 19.008 24.2773 18.592C24.8319 18.1587 25.4993 17.7947 26.2793 17.5C26.3659 17.4653 26.5133 17.4307 26.7213 17.396C26.9466 17.3613 27.1026 17.344 27.1893 17.344C27.3279 17.344 27.4579 17.37 27.5793 17.422C27.7006 17.4567 27.8219 17.4913 27.9433 17.526C27.9779 17.5433 28.0126 17.5607 28.0473 17.578C28.0993 17.578 28.1599 17.578 28.2293 17.578L28.1773 17.656C28.3333 17.7253 28.4546 17.8207 28.5413 17.942C28.6453 18.0633 28.7579 18.176 28.8793 18.28L29.1133 18.488C29.1826 18.5573 29.2259 18.6527 29.2433 18.774C29.2779 18.878 29.2953 18.9647 29.2953 19.034C29.3299 19.2767 29.3126 19.5107 29.2433 19.736C29.1913 19.944 29.1219 20.1433 29.0353 20.334C28.9313 20.5073 28.8186 20.6893 28.6973 20.88C28.5759 21.0533 28.4459 21.2267 28.3073 21.4C28.1859 21.5733 28.0646 21.7467 27.9433 21.92C27.8219 22.0933 27.6833 22.258 27.5273 22.414C27.4926 22.4487 27.4059 22.5353 27.2673 22.674C27.1286 22.7953 26.9899 22.9253 26.8513 23.064C26.7299 23.2027 26.6606 23.2893 26.6433 23.324C26.4873 23.376 26.3573 23.454 26.2533 23.558L26.0973 23.714C25.7853 24.026 25.3866 24.26 24.9013 24.416C24.4159 24.572 23.9653 24.65 23.5493 24.65ZM23.6793 24.156C23.6966 24.1387 23.7226 24.13 23.7573 24.13L23.9913 24.052C24.0779 24.0173 24.1559 23.9913 24.2253 23.974C24.3119 23.9567 24.3639 23.9393 24.3813 23.922C24.4506 23.8873 24.5893 23.8007 24.7973 23.662C25.0226 23.5233 25.2306 23.376 25.4213 23.22C25.6119 23.064 25.6986 22.9513 25.6813 22.882C25.8026 22.83 25.9499 22.6913 26.1233 22.466C26.3139 22.2407 26.4873 21.998 26.6433 21.738C26.8166 21.478 26.9293 21.296 26.9813 21.192C27.0159 21.1053 27.0506 21.0273 27.0853 20.958C27.1199 20.8887 27.1719 20.8193 27.2413 20.75C27.2413 20.6633 27.2586 20.5853 27.2933 20.516C27.3453 20.4467 27.3713 20.386 27.3713 20.334C27.4059 20.2993 27.4233 20.2473 27.4233 20.178C27.4406 20.0913 27.4579 20.0307 27.4753 19.996C27.5099 19.8573 27.5359 19.7707 27.5533 19.736L27.5273 19.71C27.5446 19.6753 27.5533 19.6407 27.5533 19.606C27.5706 19.554 27.5879 19.5193 27.6053 19.502V19.424C27.6053 19.3373 27.6139 19.2593 27.6313 19.19C27.6486 19.1033 27.6486 19.0167 27.6313 18.93C27.6659 18.8607 27.6833 18.8 27.6833 18.748C27.6833 18.696 27.6746 18.644 27.6573 18.592C27.6573 18.54 27.6486 18.488 27.6313 18.436L27.6573 18.41C27.6399 18.254 27.5879 18.124 27.5013 18.02C27.4146 17.916 27.3019 17.864 27.1633 17.864C26.7299 17.864 26.3486 17.9767 26.0193 18.202C25.6899 18.4273 25.3693 18.6787 25.0573 18.956C24.9359 19.0427 24.8233 19.1293 24.7193 19.216C24.6326 19.3027 24.5459 19.4067 24.4593 19.528C24.4593 19.5453 24.4506 19.5627 24.4333 19.58C24.4679 19.5453 24.5199 19.5193 24.5893 19.502C24.7453 19.3807 24.9446 19.32 25.1873 19.32C25.2739 19.32 25.4473 19.398 25.7073 19.554C25.9673 19.71 26.0973 19.8573 26.0973 19.996V20.126C25.9759 20.074 25.9066 20.0393 25.8893 20.022L25.7853 19.97C25.7159 19.9353 25.6379 19.918 25.5513 19.918C25.2739 19.918 24.9793 20.048 24.6673 20.308C24.3726 20.568 24.1299 20.8193 23.9393 21.062C23.8179 21.2007 23.7053 21.3393 23.6013 21.478C23.4973 21.5993 23.4539 21.7727 23.4713 21.998C23.5579 22.05 23.6186 22.1453 23.6533 22.284C23.6013 22.3013 23.5493 22.31 23.4972 22.31C23.4106 22.31 23.3239 22.2667 23.2373 22.18C23.1853 22.2493 23.1419 22.3447 23.1073 22.466C23.0726 22.5873 23.0379 22.6913 23.0033 22.778L22.9513 22.856C22.9513 22.9253 22.9426 22.9947 22.9253 23.064C22.9253 23.1333 22.9339 23.2027 22.9513 23.272C22.9686 23.532 23.0293 23.7487 23.1333 23.922C23.2373 24.078 23.4193 24.156 23.6793 24.156ZM30.5424 23.688C30.4211 23.688 30.2738 23.636 30.1004 23.532C29.9444 23.428 29.8578 23.3067 29.8404 23.168C29.8231 22.8387 29.8751 22.44 29.9964 21.972C30.1351 21.4867 30.3084 20.984 30.5164 20.464C30.7244 19.944 30.9411 19.4587 31.1664 19.008C31.3918 18.54 31.5824 18.1587 31.7384 17.864C31.8251 17.6907 31.8944 17.526 31.9464 17.37C32.0158 17.1967 32.1111 17.032 32.2324 16.876C32.3711 16.876 32.5444 16.9107 32.7524 16.98C32.9778 17.0493 33.1771 17.136 33.3504 17.24C33.5411 17.344 33.6364 17.4653 33.6364 17.604C33.6364 17.76 33.5411 17.9333 33.3504 18.124C33.1771 18.2973 33.0384 18.4447 32.9344 18.566C32.5704 18.982 32.1978 19.424 31.8164 19.892C31.4524 20.3427 31.1664 20.828 30.9584 21.348C30.9064 21.4693 30.8631 21.5907 30.8284 21.712C30.8111 21.8333 30.7678 21.946 30.6984 22.05C30.6811 22.102 30.6551 22.154 30.6204 22.206C30.5858 22.258 30.5684 22.3187 30.5684 22.388L30.5424 22.674C30.6811 22.518 30.8978 22.2667 31.1924 21.92C31.5044 21.5733 31.8338 21.2093 32.1804 20.828C32.5444 20.4293 32.8824 20.0827 33.1944 19.788C33.5064 19.4933 33.7231 19.3287 33.8444 19.294C33.9138 19.2593 33.9831 19.242 34.0524 19.242C34.3644 19.242 34.6591 19.346 34.9364 19.554C35.2311 19.7447 35.3871 19.97 35.4044 20.23C35.4044 20.2993 35.3871 20.412 35.3524 20.568C35.3351 20.724 35.3178 20.8453 35.3004 20.932C35.2831 21.1053 35.2571 21.296 35.2224 21.504C35.2051 21.6947 35.1964 21.894 35.1964 22.102C35.1964 22.414 35.2484 22.6827 35.3524 22.908C35.4564 23.116 35.6471 23.22 35.9244 23.22C35.9938 23.1853 36.0718 23.1593 36.1584 23.142C36.2624 23.1073 36.3491 23.09 36.4184 23.09C36.5051 23.09 36.5658 23.142 36.6004 23.246C36.6004 23.35 36.5398 23.4367 36.4184 23.506C36.2971 23.5753 36.1931 23.61 36.1064 23.61H35.7684C35.6471 23.61 35.5344 23.61 35.4304 23.61C35.3264 23.5927 35.2224 23.5667 35.1184 23.532C34.9451 23.4973 34.7804 23.4193 34.6244 23.298C34.4684 23.1767 34.3471 23.0033 34.2604 22.778C34.1738 22.518 34.0958 22.2927 34.0264 22.102C33.9744 21.9113 33.9484 21.6773 33.9484 21.4V20.672C33.9484 20.5507 33.9484 20.438 33.9484 20.334C33.9658 20.23 33.9658 20.152 33.9484 20.1C33.7924 20.152 33.6278 20.282 33.4544 20.49C33.2811 20.698 33.1424 20.8627 33.0384 20.984C32.9691 21.0533 32.9084 21.0967 32.8564 21.114L32.7784 21.192C32.7091 21.2613 32.6224 21.3653 32.5184 21.504C32.4144 21.6253 32.3191 21.7293 32.2324 21.816C32.1804 21.868 32.1371 21.9027 32.1024 21.92L31.9724 22.024L31.7904 22.206C31.6864 22.3967 31.5651 22.57 31.4264 22.726C31.3051 22.8647 31.1838 23.0293 31.0624 23.22C31.0278 23.2547 31.0104 23.2807 31.0104 23.298L30.9584 23.402C30.9064 23.4887 30.8544 23.558 30.8024 23.61C30.7504 23.662 30.6638 23.688 30.5424 23.688ZM37.6772 23.688C37.5559 23.688 37.4085 23.636 37.2352 23.532C37.0792 23.428 36.9925 23.3067 36.9752 23.168C36.9579 22.8387 37.0099 22.44 37.1312 21.972C37.2699 21.4867 37.4432 20.984 37.6512 20.464C37.8592 19.944 38.0759 19.4587 38.3012 19.008C38.5265 18.54 38.7172 18.1587 38.8732 17.864C38.9599 17.6907 39.0292 17.526 39.0812 17.37C39.1505 17.1967 39.2459 17.032 39.3672 16.876C39.5059 16.876 39.6792 16.9107 39.8872 16.98C40.1125 17.0493 40.3119 17.136 40.4852 17.24C40.6759 17.344 40.7712 17.4653 40.7712 17.604C40.7712 17.76 40.6759 17.9333 40.4852 18.124C40.3119 18.2973 40.1732 18.4447 40.0692 18.566C39.7052 18.982 39.3325 19.424 38.9512 19.892C38.5872 20.3427 38.3012 20.828 38.0932 21.348C38.0412 21.4693 37.9979 21.5907 37.9632 21.712C37.9459 21.8333 37.9025 21.946 37.8332 22.05C37.8159 22.102 37.7899 22.154 37.7552 22.206C37.7205 22.258 37.7032 22.3187 37.7032 22.388L37.6772 22.674C37.8159 22.518 38.0325 22.2667 38.3272 21.92C38.6392 21.5733 38.9685 21.2093 39.3152 20.828C39.6792 20.4293 40.0172 20.0827 40.3292 19.788C40.6412 19.4933 40.8579 19.3287 40.9792 19.294C41.0485 19.2593 41.1179 19.242 41.1872 19.242C41.4992 19.242 41.7939 19.346 42.0712 19.554C42.3659 19.7447 42.5219 19.97 42.5392 20.23C42.5392 20.2993 42.5219 20.412 42.4872 20.568C42.4699 20.724 42.4525 20.8453 42.4352 20.932C42.4179 21.1053 42.3919 21.296 42.3572 21.504C42.3399 21.6947 42.3312 21.894 42.3312 22.102C42.3312 22.414 42.3832 22.6827 42.4872 22.908C42.5912 23.116 42.7819 23.22 43.0592 23.22C43.1285 23.1853 43.2065 23.1593 43.2932 23.142C43.3972 23.1073 43.4839 23.09 43.5532 23.09C43.6399 23.09 43.7005 23.142 43.7352 23.246C43.7352 23.35 43.6745 23.4367 43.5532 23.506C43.4319 23.5753 43.3279 23.61 43.2412 23.61H42.9032C42.7819 23.61 42.6692 23.61 42.5652 23.61C42.4612 23.5927 42.3572 23.5667 42.2532 23.532C42.0799 23.4973 41.9152 23.4193 41.7592 23.298C41.6032 23.1767 41.4819 23.0033 41.3952 22.778C41.3085 22.518 41.2305 22.2927 41.1612 22.102C41.1092 21.9113 41.0832 21.6773 41.0832 21.4V20.672C41.0832 20.5507 41.0832 20.438 41.0832 20.334C41.1005 20.23 41.1005 20.152 41.0832 20.1C40.9272 20.152 40.7625 20.282 40.5892 20.49C40.4159 20.698 40.2772 20.8627 40.1732 20.984C40.1039 21.0533 40.0432 21.0967 39.9912 21.114L39.9132 21.192C39.8439 21.2613 39.7572 21.3653 39.6532 21.504C39.5492 21.6253 39.4539 21.7293 39.3672 21.816C39.3152 21.868 39.2719 21.9027 39.2372 21.92L39.1072 22.024L38.9252 22.206C38.8212 22.3967 38.6999 22.57 38.5612 22.726C38.4399 22.8647 38.3185 23.0293 38.1972 23.22C38.1625 23.2547 38.1452 23.2807 38.1452 23.298L38.0932 23.402C38.0412 23.4887 37.9892 23.558 37.9372 23.61C37.8852 23.662 37.7985 23.688 37.6772 23.688ZM42.16 31.956C41.7266 31.956 41.4233 31.8087 41.25 31.514C41.0766 31.2367 40.99 30.9333 40.99 30.604C40.99 30.2573 41.0506 29.9193 41.172 29.59C41.2933 29.2607 41.4406 28.9573 41.614 28.68C41.7526 28.4373 41.9 28.186 42.056 27.926C42.1946 27.666 42.3506 27.4233 42.524 27.198C42.94 26.626 43.4773 26.028 44.136 25.404C44.812 24.7973 45.4446 24.2947 46.034 23.896C46.3286 23.7053 46.684 23.506 47.1 23.298C47.5333 23.0727 47.9146 22.8907 48.244 22.752C48.5733 22.596 48.738 22.518 48.738 22.518C48.894 22.466 49.05 22.388 49.206 22.284C49.3793 22.1973 49.5093 22.154 49.596 22.154C49.6133 22.1367 49.6306 22.1193 49.648 22.102C49.6653 22.0847 49.6826 22.0673 49.7 22.05C49.8213 21.9113 49.8993 21.7033 49.934 21.426C49.9686 21.1487 50.0206 20.9233 50.09 20.75C50.1246 20.6633 50.1506 20.6027 50.168 20.568C50.2026 20.516 50.22 20.438 50.22 20.334V20.178C50.22 20.0913 50.2286 20.0133 50.246 19.944C50.2633 19.8747 50.2806 19.8053 50.298 19.736C50.3153 19.684 50.324 19.5713 50.324 19.398C50.2026 19.4327 50.0986 19.502 50.012 19.606C49.9426 19.71 49.8646 19.8053 49.778 19.892C49.622 20.0307 49.4746 20.1867 49.336 20.36C49.2146 20.5333 49.076 20.6893 48.92 20.828C48.6773 21.0533 48.348 21.3653 47.932 21.764C47.516 22.1627 47.0826 22.518 46.632 22.83C46.1813 23.142 45.7826 23.298 45.436 23.298C45.2106 23.298 44.9593 23.2113 44.682 23.038C44.4046 22.8647 44.214 22.6913 44.11 22.518V22.466C44.11 22.414 44.1013 22.362 44.084 22.31C44.0666 22.2407 44.058 22.18 44.058 22.128C44.058 21.7987 44.136 21.4347 44.292 21.036C44.448 20.6373 44.63 20.2647 44.838 19.918C45.046 19.5713 45.2366 19.32 45.41 19.164L45.488 19.06C45.5573 18.9733 45.618 18.8953 45.67 18.826C45.7393 18.7567 45.8086 18.6873 45.878 18.618C46.0166 18.462 46.1553 18.332 46.294 18.228C46.45 18.124 46.6233 18.072 46.814 18.072C46.8833 18.072 47.0306 18.1153 47.256 18.202C47.4813 18.2887 47.698 18.384 47.906 18.488C48.114 18.5747 48.218 18.6527 48.218 18.722C48.2353 18.7913 48.2006 18.826 48.114 18.826H48.036L47.984 18.8C47.9666 18.8 47.9493 18.8 47.932 18.8C47.9146 18.7827 47.8886 18.774 47.854 18.774C47.6806 18.774 47.438 18.9213 47.126 19.216C46.8313 19.4933 46.528 19.8487 46.216 20.282C45.904 20.698 45.644 21.1053 45.436 21.504C45.228 21.8853 45.124 22.18 45.124 22.388C45.124 22.4747 45.1586 22.518 45.228 22.518C45.4013 22.518 45.5833 22.4573 45.774 22.336C45.982 22.2147 46.1553 22.1107 46.294 22.024H46.346C47.126 21.452 47.8193 20.8887 48.426 20.334C48.7553 20.0393 49.0846 19.7447 49.414 19.45C49.7433 19.1553 50.0726 18.8433 50.402 18.514L50.558 18.358L50.714 18.176C50.818 18.0547 50.9393 17.942 51.078 17.838C51.234 17.8727 51.4593 17.9247 51.754 17.994C52.066 18.0633 52.2306 18.2193 52.248 18.462C52.248 18.5487 52.2306 18.6353 52.196 18.722C52.1786 18.7913 52.1613 18.8693 52.144 18.956C52.1266 19.1293 52.1006 19.3027 52.066 19.476C52.0313 19.6493 51.9966 19.8227 51.962 19.996C51.9446 20.1 51.91 20.204 51.858 20.308C51.8233 20.412 51.7886 20.516 51.754 20.62C51.7193 20.7413 51.6933 20.8713 51.676 21.01C51.676 21.1487 51.65 21.2873 51.598 21.426C51.5806 21.478 51.5373 21.5733 51.468 21.712C51.3986 21.8333 51.364 21.92 51.364 21.972C51.364 21.9893 51.3986 21.998 51.468 21.998C51.52 21.998 51.5633 21.998 51.598 21.998C51.65 21.9807 51.6846 21.972 51.702 21.972C52.118 21.972 52.4906 22.1107 52.82 22.388C52.8546 22.4053 52.872 22.4227 52.872 22.44C52.8893 22.44 52.9066 22.44 52.924 22.44V22.492C52.924 22.5787 52.872 22.648 52.768 22.7C52.664 22.752 52.5946 22.7173 52.56 22.596C52.5426 22.544 52.4993 22.518 52.43 22.518C52.3606 22.5007 52.3 22.492 52.248 22.492C52.0746 22.492 51.832 22.5527 51.52 22.674C51.2253 22.778 51.0866 22.934 51.104 23.142C51.0173 23.194 50.8873 23.3413 50.714 23.584C50.558 23.8267 50.4713 23.9913 50.454 24.078C50.4366 24.1473 50.428 24.2167 50.428 24.286C50.428 24.3553 50.3933 24.4247 50.324 24.494C50.2546 24.5633 50.194 24.6327 50.142 24.702C50.1073 24.7713 50.09 24.8753 50.09 25.014C49.986 25.0487 49.8733 25.144 49.752 25.3C49.6306 25.456 49.5786 25.586 49.596 25.69L49.518 25.716L49.57 25.82C49.4313 25.872 49.362 25.9413 49.362 26.028C49.258 26.0627 49.1713 26.1493 49.102 26.288C49.05 26.4267 48.972 26.5307 48.868 26.6V26.704L48.66 26.808L48.686 26.886C48.6166 26.938 48.5473 26.99 48.478 27.042C48.426 27.1113 48.374 27.1807 48.322 27.25C48.2526 27.3193 48.192 27.38 48.14 27.432C48.1053 27.484 48.0706 27.5273 48.036 27.562V27.666C47.984 27.6833 47.958 27.7267 47.958 27.796C47.8713 27.8133 47.7933 27.8567 47.724 27.926L47.594 28.056L47.62 28.108C47.568 28.1427 47.516 28.1773 47.464 28.212C47.4293 28.2467 47.4033 28.2987 47.386 28.368H47.308C47.256 28.472 47.1693 28.576 47.048 28.68C46.944 28.8013 46.8486 28.9053 46.762 28.992L46.32 29.538C46.1813 29.6593 46.0253 29.772 45.852 29.876C45.696 29.98 45.5486 30.1013 45.41 30.24C45.358 30.2747 45.306 30.318 45.254 30.37C45.2193 30.422 45.176 30.474 45.124 30.526C45.0546 30.5953 44.9593 30.656 44.838 30.708C44.734 30.7773 44.6386 30.8553 44.552 30.942C44.2746 31.1327 43.9106 31.3493 43.46 31.592C42.992 31.8347 42.5586 31.956 42.16 31.956ZM42.81 31.15C42.8966 31.1153 43.0266 31.0547 43.2 30.968C43.3733 30.8987 43.5293 30.8207 43.668 30.734C43.824 30.6473 43.902 30.578 43.902 30.526C44.1273 30.3873 44.3266 30.2227 44.5 30.032C44.6906 29.8587 44.8726 29.6853 45.046 29.512C45.2366 29.3387 45.4273 29.1653 45.618 28.992C45.8086 28.8187 45.982 28.6367 46.138 28.446C46.242 28.3073 46.3373 28.1687 46.424 28.03C46.528 27.8913 46.632 27.7613 46.736 27.64C46.8746 27.4493 47.022 27.2587 47.178 27.068C47.3513 26.8947 47.5073 26.7127 47.646 26.522C47.802 26.3313 47.9406 26.1233 48.062 25.898C48.2006 25.6727 48.3393 25.456 48.478 25.248C48.5646 25.1093 48.66 24.962 48.764 24.806C48.8853 24.65 48.9806 24.494 49.05 24.338C49.0846 24.286 49.1106 24.2253 49.128 24.156C49.1626 24.104 49.1973 24.0433 49.232 23.974C49.3013 23.8527 49.3966 23.6707 49.518 23.428C49.6566 23.168 49.726 22.9773 49.726 22.856C49.518 22.96 49.2753 23.064 48.998 23.168C48.8593 23.2373 48.7206 23.3067 48.582 23.376C48.4606 23.428 48.4 23.4713 48.4 23.506C48.3133 23.5233 48.1053 23.61 47.776 23.766C47.464 23.922 47.152 24.0867 46.84 24.26C46.528 24.4333 46.3286 24.5633 46.242 24.65C45.9126 24.8927 45.592 25.1527 45.28 25.43C44.9853 25.7073 44.6906 25.9847 44.396 26.262C44.3266 26.3313 44.266 26.4007 44.214 26.47C44.162 26.5393 44.11 26.6173 44.058 26.704C44.0406 26.7387 44.0146 26.7647 43.98 26.782C43.9626 26.8167 43.9453 26.8513 43.928 26.886C43.8933 26.9207 43.824 27.016 43.72 27.172C43.616 27.328 43.5206 27.484 43.434 27.64C43.3473 27.796 43.2953 27.9 43.278 27.952C43.122 28.108 42.94 28.368 42.732 28.732C42.524 29.096 42.3766 29.3907 42.29 29.616L42.108 30.032C42.056 30.1013 42.03 30.2227 42.03 30.396C42.0126 30.5693 42.004 30.708 42.004 30.812C42.0213 30.968 42.082 31.0633 42.186 31.098C42.29 31.15 42.498 31.1673 42.81 31.15ZM67.4403 19.606C67.111 19.606 66.773 19.606 66.4263 19.606C66.0796 19.5887 65.733 19.5713 65.3863 19.554C65.1783 19.554 65.0396 19.5367 64.9703 19.502C64.901 19.45 64.8663 19.398 64.8663 19.346C64.8663 19.2767 64.8923 19.216 64.9443 19.164C64.9963 19.112 65.031 19.0773 65.0483 19.06L65.0223 18.982C65.0916 18.9993 65.135 19.0253 65.1523 19.06C65.187 19.0773 65.213 19.086 65.2303 19.086L65.2563 19.06H65.2823C65.3516 19.0253 65.447 19.008 65.5683 19.008C65.655 19.008 65.733 19.0167 65.8023 19.034C65.8716 19.034 65.941 19.034 66.0103 19.034C66.1663 19.034 66.3223 19.0253 66.4783 19.008C66.6516 18.9907 66.825 18.9733 66.9983 18.956C67.033 18.956 67.137 18.9387 67.3103 18.904C67.3623 18.8867 67.4056 18.878 67.4403 18.878C67.4923 18.8607 67.527 18.8347 67.5443 18.8H67.8043C67.891 18.8 67.969 18.8 68.0383 18.8C68.125 18.7827 68.177 18.748 68.1943 18.696C68.4543 18.696 68.7056 18.67 68.9483 18.618C69.2083 18.5487 69.4683 18.4967 69.7283 18.462C69.9016 18.4273 70.0576 18.3753 70.1963 18.306C70.3523 18.2193 70.5256 18.1673 70.7163 18.15L71.5483 17.838C71.687 17.786 71.791 17.7253 71.8603 17.656C71.947 17.5867 72.0336 17.5173 72.1203 17.448C72.155 17.4133 72.1896 17.3873 72.2243 17.37C72.2763 17.3353 72.3283 17.3093 72.3803 17.292C72.727 17.1187 73.0043 16.876 73.2123 16.564C73.4203 16.252 73.5763 15.94 73.6803 15.628C73.7843 15.2987 73.8363 15.056 73.8363 14.9C73.8363 14.3627 73.6283 13.9467 73.2123 13.652C72.8136 13.3573 72.311 13.1407 71.7043 13.002C71.115 12.8633 70.5083 12.7767 69.8843 12.742C69.2603 12.7073 68.7403 12.69 68.3243 12.69C68.151 12.69 67.9776 12.7073 67.8043 12.742C67.6483 12.7767 67.4836 12.8113 67.3103 12.846C67.0503 12.898 66.7816 12.924 66.5043 12.924C66.2443 12.9067 65.9843 12.9153 65.7243 12.95C64.615 13.1753 63.5056 13.5133 62.3963 13.964C61.3043 14.3973 60.325 14.9433 59.4583 15.602C59.2503 15.758 59.0076 15.9573 58.7303 16.2C58.453 16.4253 58.219 16.668 58.0283 16.928C57.8376 17.188 57.751 17.448 57.7683 17.708C57.7683 17.76 57.8116 17.838 57.8983 17.942C57.985 18.046 58.0283 18.1327 58.0283 18.202C58.0283 18.2887 57.959 18.332 57.8203 18.332C57.647 18.2453 57.5083 18.0633 57.4043 17.786C57.3176 17.4913 57.2743 17.2747 57.2743 17.136C57.2223 16.6333 57.2916 16.1393 57.4823 15.654C57.6903 15.1513 58.037 14.8133 58.5223 14.64C58.661 14.588 58.7996 14.5533 58.9383 14.536C59.0943 14.5013 59.233 14.4667 59.3543 14.432C59.545 14.3627 59.7356 14.2587 59.9263 14.12C60.1343 13.964 60.325 13.8253 60.4983 13.704C60.637 13.6867 60.767 13.652 60.8883 13.6C61.0096 13.5307 61.131 13.4787 61.2523 13.444C61.4256 13.3747 61.7116 13.2793 62.1103 13.158C62.509 13.0193 62.9076 12.898 63.3063 12.794C63.705 12.6727 63.9823 12.612 64.1383 12.612C64.277 12.5253 64.433 12.4733 64.6063 12.456C64.7796 12.4213 64.953 12.404 65.1263 12.404C65.213 12.352 65.3603 12.3087 65.5683 12.274C65.7763 12.222 65.9323 12.2047 66.0363 12.222C66.1056 12.2047 66.2616 12.1873 66.5043 12.17C66.747 12.1527 67.0156 12.1353 67.3103 12.118C67.605 12.0833 67.8563 12.0573 68.0643 12.04C68.2896 12.0227 68.4023 12.014 68.4023 12.014C68.853 12.014 69.3123 12.0227 69.7803 12.04C70.2656 12.04 70.7336 12.1007 71.1843 12.222C71.7216 12.3433 72.259 12.5513 72.7963 12.846C73.3336 13.1233 73.793 13.4787 74.1743 13.912C74.5556 14.3453 74.7723 14.8393 74.8243 15.394C74.8416 15.6713 74.8156 15.94 74.7463 16.2C74.677 16.4427 74.573 16.6767 74.4343 16.902C74.053 17.5433 73.4983 18.046 72.7703 18.41C72.0423 18.774 71.297 19.0513 70.5343 19.242C70.361 19.2767 70.179 19.32 69.9883 19.372C69.7976 19.4067 69.607 19.4327 69.4163 19.45C69.087 19.4673 68.749 19.502 68.4023 19.554C68.073 19.5887 67.7523 19.606 67.4403 19.606ZM63.8783 24.754C63.6183 24.754 63.3236 24.6673 62.9943 24.494C62.665 24.3207 62.379 24.104 62.1363 23.844C61.8936 23.5667 61.755 23.3067 61.7203 23.064C61.6856 22.6133 61.7723 22.154 61.9803 21.686C62.1883 21.2007 62.405 20.776 62.6303 20.412C62.8556 20.0307 62.9596 19.7707 62.9423 19.632C62.977 19.5973 63.029 19.554 63.0983 19.502C63.185 19.4327 63.211 19.3807 63.1763 19.346C63.6443 18.5833 64.1296 17.8553 64.6323 17.162C64.6843 17.0927 64.7276 17.0233 64.7623 16.954C64.797 16.8673 64.8403 16.7893 64.8923 16.72C65.0136 16.564 65.1436 16.4167 65.2823 16.278C65.421 16.122 65.551 15.9747 65.6723 15.836C65.863 15.5933 66.045 15.3507 66.2183 15.108C66.3916 14.848 66.565 14.6053 66.7383 14.38C66.825 14.276 66.955 14.1373 67.1283 13.964C67.319 13.7733 67.4143 13.6087 67.4143 13.47C67.397 13.4353 67.3623 13.392 67.3103 13.34L67.2843 13.288C67.215 13.236 67.1803 13.1667 67.1803 13.08L67.2583 13.002C67.3623 13.0193 67.5616 13.0713 67.8563 13.158C68.1683 13.2447 68.4543 13.366 68.7143 13.522C68.9743 13.678 69.1043 13.8687 69.1043 14.094C69.1043 14.2673 69.009 14.4493 68.8183 14.64C68.645 14.8133 68.4456 14.9867 68.2203 15.16C68.0123 15.316 67.839 15.4633 67.7003 15.602C67.2843 16.0353 66.8076 16.5813 66.2703 17.24C65.733 17.8813 65.213 18.5747 64.7103 19.32C64.2076 20.048 63.8003 20.7847 63.4883 21.53C63.1763 22.2753 63.0463 22.9773 63.0983 23.636C63.1156 23.7747 63.159 23.922 63.2283 24.078C63.2976 24.234 63.419 24.312 63.5923 24.312L64.6063 23.688C64.797 23.5493 64.9703 23.4193 65.1263 23.298C65.2996 23.1767 65.3863 23.0727 65.3863 22.986H65.6203C65.551 23.1767 65.473 23.324 65.3863 23.428C65.2996 23.5147 65.2043 23.636 65.1003 23.792C64.9443 24 64.771 24.208 64.5803 24.416C64.407 24.6413 64.173 24.754 63.8783 24.754ZM76.7721 17.682C76.5987 17.682 76.3907 17.6647 76.1481 17.63C75.9054 17.578 75.7754 17.422 75.7581 17.162C75.7581 17.1273 75.8187 17.0407 75.9401 16.902C76.0787 16.7633 76.2174 16.6247 76.3561 16.486C76.5121 16.3473 76.6074 16.2607 76.6421 16.226C76.6941 16.1913 76.8154 16.096 77.0061 15.94C77.2141 15.784 77.3527 15.758 77.4221 15.862C77.4394 15.8793 77.4481 16.0007 77.4481 16.226V16.59C77.4481 16.6247 77.4307 16.6593 77.3961 16.694C77.3787 16.694 77.3354 16.7113 77.2661 16.746C77.2141 16.7633 77.1881 16.7807 77.1881 16.798L77.2141 16.824C77.2487 16.8413 77.2747 16.876 77.2921 16.928C77.3267 16.98 77.3354 17.0233 77.3181 17.058C77.2487 17.1793 77.1621 17.318 77.0581 17.474C76.9541 17.6127 76.8587 17.682 76.7721 17.682ZM74.3541 24.39C74.2847 24.39 74.1374 24.364 73.9121 24.312C73.7041 24.26 73.5654 24.2167 73.4961 24.182C73.3227 24.0607 73.2014 23.9567 73.1321 23.87C73.0627 23.7833 73.0281 23.6013 73.0281 23.324C73.0281 22.8213 73.1407 22.3273 73.3661 21.842C73.6087 21.3393 73.8254 20.8627 74.0161 20.412C74.0507 20.3773 74.0507 20.3513 74.0161 20.334V20.282C73.9641 20.1087 74.0074 19.9093 74.1461 19.684C74.2847 19.4413 74.4494 19.216 74.6401 19.008C74.8307 18.8 74.9781 18.6613 75.0821 18.592C75.1687 18.592 75.3247 18.6093 75.5501 18.644C75.7754 18.6613 75.9921 18.696 76.2001 18.748C76.4081 18.8 76.5121 18.8867 76.5121 19.008C76.5121 19.0253 76.4861 19.0687 76.4341 19.138C76.3821 19.2073 76.3214 19.2853 76.2521 19.372L76.0441 19.606C75.9747 19.6753 75.9401 19.7187 75.9401 19.736C75.7841 20.0133 75.5761 20.3513 75.3161 20.75C75.0561 21.1487 74.8134 21.556 74.5881 21.972C74.4321 22.2493 74.3021 22.518 74.1981 22.778C74.1114 23.0207 74.0681 23.2373 74.0681 23.428C74.0681 23.584 74.1027 23.6967 74.1721 23.766C74.3627 23.7313 74.5621 23.61 74.7701 23.402C74.9954 23.194 75.1774 23.0033 75.3161 22.83H75.4461C75.4461 23.0033 75.3854 23.1507 75.2641 23.272L75.1861 23.35C75.0994 23.506 74.9867 23.7227 74.8481 24C74.7267 24.26 74.5621 24.39 74.3541 24.39ZM79.0485 24.364C78.7192 24.364 78.3465 24.2773 77.9305 24.104C77.5145 23.948 77.2112 23.7313 77.0205 23.454C76.9512 23.35 76.9078 23.246 76.8905 23.142C76.8732 23.038 76.8558 22.9427 76.8385 22.856C76.8212 22.5093 76.8298 22.2407 76.8645 22.05C76.8992 21.842 76.9598 21.6427 77.0465 21.452C77.1332 21.2613 77.2285 21.0273 77.3325 20.75C77.3498 20.698 77.4192 20.6113 77.5405 20.49C77.6618 20.3687 77.7832 20.2473 77.9045 20.126C78.0432 19.9873 78.1298 19.892 78.1645 19.84C78.2512 19.736 78.3205 19.6407 78.3725 19.554C78.4418 19.4673 78.5458 19.4067 78.6845 19.372C78.7192 19.3547 78.7452 19.346 78.7625 19.346C78.7972 19.346 78.8232 19.3373 78.8405 19.32C78.9098 19.164 78.9878 19.0427 79.0745 18.956C79.1785 18.852 79.2912 18.7567 79.4125 18.67C79.5165 18.5833 79.7245 18.4707 80.0365 18.332C80.3658 18.1933 80.5912 18.124 80.7125 18.124C80.7992 18.124 80.8772 18.1413 80.9465 18.176C81.0332 18.2107 81.1198 18.228 81.2065 18.228L81.2845 18.202C81.3018 18.2713 81.3712 18.332 81.4925 18.384C81.6138 18.4533 81.7785 18.54 81.9865 18.644C82.2118 18.748 82.3332 18.8693 82.3505 19.008C82.3505 19.06 82.3158 19.164 82.2465 19.32C82.1945 19.476 82.1165 19.6233 82.0125 19.762C81.9258 19.9007 81.8392 19.9787 81.7525 19.996C81.7525 19.9093 81.7525 19.84 81.7525 19.788C81.7698 19.736 81.7872 19.6753 81.8045 19.606C81.8045 19.554 81.8045 19.5107 81.8045 19.476C81.8218 19.424 81.8305 19.372 81.8305 19.32C81.8132 19.2333 81.7785 19.1553 81.7265 19.086C81.6745 19.0167 81.6052 18.982 81.5185 18.982C81.2932 18.982 81.0332 19.086 80.7385 19.294C80.4438 19.502 80.1665 19.736 79.9065 19.996C79.6465 20.2387 79.4472 20.4467 79.3085 20.62C79.0485 20.8973 78.8232 21.1747 78.6325 21.452C78.4592 21.7293 78.3292 22.0587 78.2425 22.44C78.2252 22.5613 78.2078 22.6827 78.1905 22.804C78.1905 22.9253 78.1905 23.0553 78.1905 23.194C78.2252 23.246 78.2425 23.3067 78.2425 23.376C78.2598 23.4453 78.2858 23.506 78.3205 23.558C78.3552 23.5753 78.3725 23.6013 78.3725 23.636C78.3898 23.6707 78.4072 23.6967 78.4245 23.714L78.4505 23.766V23.792H78.6585C78.8318 23.792 78.9792 23.7747 79.1005 23.74C79.2218 23.7053 79.3432 23.6793 79.4645 23.662C79.5512 23.6273 79.6378 23.6013 79.7245 23.584C79.8285 23.5493 79.9325 23.532 80.0365 23.532C80.1405 23.4453 80.2532 23.376 80.3745 23.324C80.4958 23.2547 80.6172 23.194 80.7385 23.142V23.09C80.8772 23.1073 81.0072 23.064 81.1285 22.96C81.2672 22.856 81.3885 22.778 81.4925 22.726C81.8912 22.5007 82.2725 22.2753 82.6365 22.05C83.0005 21.8247 83.3472 21.5733 83.6765 21.296C83.7285 21.2613 83.8498 21.166 84.0405 21.01C84.2312 20.854 84.3438 20.776 84.3785 20.776C84.3785 20.776 84.3958 20.7587 84.4305 20.724C84.5692 20.8107 84.6385 20.8973 84.6385 20.984C84.6385 21.088 84.5865 21.192 84.4825 21.296C84.3785 21.4 84.2832 21.478 84.1965 21.53C84.1272 21.5647 84.0578 21.608 83.9885 21.66C83.9365 21.6947 83.8845 21.7293 83.8325 21.764C83.7632 21.7987 83.6938 21.842 83.6245 21.894C83.5725 21.9287 83.5292 21.972 83.4945 22.024C83.4598 22.0933 83.4165 22.154 83.3645 22.206C83.3298 22.258 83.2692 22.2927 83.1825 22.31L83.1565 22.362C83.0352 22.4313 82.9138 22.5093 82.7925 22.596C82.6712 22.6653 82.5498 22.7433 82.4285 22.83C82.3592 22.882 82.3072 22.908 82.2725 22.908C82.0818 22.9947 81.8825 23.116 81.6745 23.272C81.5185 23.376 81.3798 23.4887 81.2585 23.61C81.1372 23.714 80.9812 23.7747 80.7905 23.792C80.7558 23.9133 80.6692 23.9827 80.5305 24C80.4092 24.0173 80.3052 24.0433 80.2185 24.078C79.8545 24.2687 79.4645 24.364 79.0485 24.364ZM94.0454 30.266C93.5427 30.266 93.0314 30.084 92.5114 29.72C91.9914 29.356 91.4887 28.8967 91.0034 28.342C90.5354 27.8047 90.1107 27.2587 89.7294 26.704C89.3654 26.1667 89.0794 25.716 88.8714 25.352C88.5941 24.8493 88.2994 24.286 87.9874 23.662C87.6927 23.038 87.4414 22.4573 87.2334 21.92C87.2161 21.868 87.1727 21.7467 87.1034 21.556C87.0341 21.348 86.9734 21.244 86.9214 21.244C86.9041 21.244 86.8954 21.27 86.8954 21.322C86.8261 21.3393 86.7481 21.4087 86.6614 21.53C86.5921 21.634 86.5141 21.7553 86.4274 21.894C86.3754 21.9633 86.3061 22.0673 86.2194 22.206C86.1327 22.3447 86.0461 22.4313 85.9594 22.466C85.9247 22.5527 85.8814 22.6047 85.8294 22.622C85.7947 22.6393 85.7601 22.7087 85.7254 22.83L85.6734 22.908C85.6214 23.0467 85.5347 23.194 85.4134 23.35C85.3787 23.402 85.3441 23.454 85.3094 23.506C85.2747 23.558 85.2401 23.61 85.2054 23.662C85.1707 23.7487 85.1534 23.87 85.1534 24.026C85.1534 24.1993 85.0581 24.286 84.8674 24.286C84.6941 24.286 84.5294 24.2253 84.3734 24.104C84.2174 24 84.1307 23.8613 84.1134 23.688C84.0787 23.22 84.1134 22.7433 84.2174 22.258C84.3387 21.7553 84.4861 21.3133 84.6594 20.932C84.6941 20.8107 84.7114 20.724 84.7114 20.672C84.7287 20.6027 84.7461 20.5507 84.7634 20.516C84.7807 20.4467 84.7981 20.3773 84.8154 20.308C84.8501 20.2387 84.9021 20.126 84.9714 19.97C85.2661 19.3287 85.5087 18.748 85.6994 18.228C85.9074 17.708 86.1241 17.188 86.3494 16.668C86.5921 16.1307 86.8867 15.576 87.2334 15.004C87.5801 14.4147 88.0741 13.7473 88.7154 13.002L88.8454 12.846V12.82C89.1401 12.4907 89.4521 12.196 89.7814 11.936C90.1107 11.676 90.4747 11.4507 90.8734 11.26C91.0121 11.2773 91.2287 11.312 91.5234 11.364C91.8354 11.416 92.0347 11.5027 92.1214 11.624C92.3987 11.988 92.5374 12.3693 92.5374 12.768C92.5374 12.8547 92.5287 12.95 92.5114 13.054C92.4941 13.1407 92.4681 13.2273 92.4334 13.314C92.3641 13.5047 92.1734 13.782 91.8614 14.146C91.5667 14.4927 91.2201 14.8653 90.8214 15.264C90.4401 15.6453 90.0674 16.0007 89.7034 16.33C89.3567 16.642 89.0881 16.8673 88.8974 17.006C88.8801 17.0233 88.8454 17.058 88.7934 17.11C88.7414 17.1447 88.6894 17.1793 88.6374 17.214C88.5161 17.318 88.3427 17.474 88.1174 17.682C87.9094 17.8727 87.7361 17.968 87.5974 17.968C87.5801 17.9507 87.5714 17.942 87.5714 17.942C87.5714 17.9247 87.5714 17.916 87.5714 17.916C87.5714 17.916 87.5627 17.916 87.5454 17.916C87.5281 17.8987 87.5107 17.89 87.4934 17.89V17.812C88.2214 17.1013 88.9407 16.3907 89.6514 15.68C90.3794 14.952 91.0121 14.146 91.5494 13.262C91.6361 13.1407 91.7401 12.9847 91.8614 12.794C92.0001 12.586 92.0694 12.4213 92.0694 12.3C92.0694 12.2307 92.0607 12.1787 92.0434 12.144L92.0174 12.066C91.6881 12.118 91.4367 12.248 91.2634 12.456C91.1074 12.664 90.9081 12.846 90.6654 13.002C90.5441 13.0713 90.4747 13.1147 90.4574 13.132C90.4401 13.132 90.3794 13.2013 90.2754 13.34L90.1714 13.47C90.1021 13.5567 90.0414 13.6173 89.9894 13.652C89.9547 13.6867 89.8941 13.7387 89.8074 13.808C89.7207 13.8947 89.6861 13.9813 89.7034 14.068C89.5474 14.12 89.4261 14.198 89.3394 14.302C89.2701 14.406 89.2094 14.5273 89.1574 14.666C88.8801 14.77 88.6461 14.9953 88.4554 15.342C88.2821 15.6887 88.1174 15.9833 87.9614 16.226C87.9267 16.2953 87.8747 16.3647 87.8054 16.434C87.7534 16.486 87.7274 16.5553 87.7274 16.642C87.6581 16.6767 87.5454 16.824 87.3894 17.084C87.2334 17.344 87.1294 17.526 87.0774 17.63C87.0601 17.682 87.0341 17.7513 86.9994 17.838C86.9647 17.9247 86.9387 17.9853 86.9214 18.02C86.9041 18.0373 86.8521 18.1327 86.7654 18.306C86.6787 18.462 86.5834 18.6527 86.4794 18.878C86.3927 19.086 86.3147 19.2767 86.2454 19.45C86.1761 19.606 86.1414 19.6927 86.1414 19.71C86.0894 19.7793 86.0114 19.9353 85.9074 20.178C85.8034 20.4207 85.6907 20.698 85.5694 21.01C85.4654 21.322 85.3701 21.608 85.2834 21.868C85.2141 22.128 85.1794 22.3013 85.1794 22.388C85.1967 22.388 85.2227 22.336 85.2574 22.232C85.3094 22.128 85.3441 22.0673 85.3614 22.05C85.4307 21.9807 85.4914 21.9113 85.5434 21.842C85.6127 21.7727 85.6647 21.7033 85.6994 21.634L85.7254 21.582C85.7774 21.478 85.8467 21.3913 85.9334 21.322C86.0201 21.2353 86.0981 21.1487 86.1674 21.062C86.2021 21.0273 86.2627 20.9493 86.3494 20.828C86.4534 20.6893 86.5574 20.5593 86.6614 20.438C86.7654 20.2993 86.8174 20.23 86.8174 20.23V20.126C86.8174 20.0393 86.7654 19.944 86.6614 19.84C86.5574 19.7187 86.4361 19.658 86.2974 19.658V19.502C86.3841 19.4847 86.4707 19.4673 86.5574 19.45C86.6441 19.4153 86.7307 19.398 86.8174 19.398C86.9387 19.398 87.0514 19.4153 87.1554 19.45C87.2594 19.4673 87.3721 19.476 87.4934 19.476C87.5627 19.3893 87.6321 19.32 87.7014 19.268C87.7881 19.1987 87.8661 19.1293 87.9354 19.06C88.1781 18.852 88.4294 18.644 88.6894 18.436C88.9667 18.228 89.2701 18.124 89.5994 18.124C89.8767 18.124 90.1107 18.202 90.3014 18.358C90.4921 18.514 90.5874 18.722 90.5874 18.982C90.5874 19.1727 90.5007 19.3633 90.3274 19.554C90.1541 19.7447 89.9547 19.9093 89.7294 20.048C89.5214 20.1867 89.3307 20.282 89.1574 20.334C88.8281 20.438 88.4814 20.49 88.1174 20.49C88.0827 20.5073 88.0567 20.542 88.0394 20.594C88.0394 20.6287 88.0394 20.6633 88.0394 20.698C88.0567 20.8713 88.1261 21.0967 88.2474 21.374C88.3687 21.634 88.4641 21.8593 88.5334 22.05C88.5681 22.102 88.5854 22.154 88.5854 22.206C88.6027 22.258 88.6201 22.31 88.6374 22.362C88.7587 22.674 88.9754 23.116 89.2874 23.688C89.6167 24.26 89.9981 24.884 90.4314 25.56C90.8647 26.236 91.3241 26.8773 91.8094 27.484C92.3121 28.108 92.7974 28.6107 93.2654 28.992C93.7334 29.3907 94.1494 29.59 94.5134 29.59C94.7907 29.59 95.0161 29.4773 95.1894 29.252C95.3281 29.0613 95.4407 28.6973 95.5274 28.16C95.6141 27.6227 95.6574 27.146 95.6574 26.73C95.6574 26.6433 95.6574 26.5567 95.6574 26.47C95.6574 26.4007 95.6487 26.3313 95.6314 26.262H95.7874V26.314H95.8134C95.8827 26.47 95.9174 26.626 95.9174 26.782C95.9347 26.9553 95.9607 27.1287 95.9954 27.302C96.0301 27.4753 96.0561 27.6487 96.0734 27.822C96.0907 27.9607 96.1081 28.0993 96.1254 28.238C96.1427 28.3767 96.1514 28.5153 96.1514 28.654C96.1514 28.7233 96.1514 28.7927 96.1514 28.862C96.1514 28.9313 96.1341 29.0007 96.0994 29.07C96.0301 29.2607 95.8654 29.4513 95.6054 29.642C95.3627 29.8327 95.0941 29.98 94.7994 30.084C94.5047 30.2053 94.2534 30.266 94.0454 30.266ZM87.5714 17.916L87.5454 17.942C87.5454 17.9247 87.5541 17.916 87.5714 17.916ZM87.8834 19.996H87.9094L88.0134 19.944L88.0394 19.97C88.2127 19.918 88.4381 19.814 88.7154 19.658C89.0101 19.4847 89.2701 19.3027 89.4954 19.112C89.7207 18.904 89.8247 18.7307 89.8074 18.592C89.8074 18.5747 89.7987 18.5747 89.7814 18.592H89.6774C89.5907 18.6267 89.4521 18.7047 89.2614 18.826C89.0707 18.93 88.8974 19.0513 88.7414 19.19C88.5854 19.3113 88.4987 19.424 88.4814 19.528C88.3774 19.58 88.2561 19.6493 88.1174 19.736C87.9961 19.8053 87.9181 19.892 87.8834 19.996ZM98.4672 24.26C98.2939 24.26 98.0946 24.2167 97.8692 24.13C97.6439 24.0607 97.4619 23.9653 97.3232 23.844C96.9072 23.4627 96.6646 23.0293 96.5952 22.544C96.5259 22.0413 96.4739 21.53 96.4392 21.01C96.3699 21.0967 96.2746 21.2007 96.1532 21.322C96.0492 21.426 95.9539 21.5213 95.8672 21.608C95.8152 21.66 95.7632 21.7293 95.7112 21.816C95.6592 21.8853 95.6072 21.9547 95.5552 22.024C95.4339 22.1453 95.3212 22.2407 95.2172 22.31C95.1132 22.362 95.0179 22.4313 94.9312 22.518C94.8966 22.5527 94.8272 22.6393 94.7232 22.778C94.6886 22.8473 94.6366 22.908 94.5672 22.96C94.4979 22.9947 94.4372 23.0467 94.3852 23.116C94.2639 23.1333 94.1599 23.194 94.0732 23.298C94.0039 23.3847 93.9259 23.48 93.8392 23.584C93.6659 23.6533 93.4752 23.7487 93.2672 23.87C93.0766 23.974 92.8859 24.026 92.6952 24.026C92.4526 24.026 92.1839 23.9653 91.8892 23.844C91.6119 23.7227 91.3606 23.558 91.1352 23.35C90.9099 23.1247 90.7799 22.882 90.7452 22.622H90.7192V22.154C90.7192 21.8767 90.7539 21.6947 90.8232 21.608C90.8579 21.556 90.8839 21.4953 90.9012 21.426C90.9186 21.3393 90.9359 21.27 90.9532 21.218L91.3172 20.698C91.3692 20.6113 91.4992 20.4553 91.7072 20.23C91.9326 20.0047 92.1666 19.7793 92.4092 19.554C92.6519 19.3287 92.8252 19.1727 92.9292 19.086C93.0679 18.9647 93.2759 18.826 93.5532 18.67C93.8306 18.514 94.1079 18.358 94.3852 18.202C94.6799 18.046 94.9139 17.9247 95.0872 17.838L95.1912 17.812C95.2779 17.7427 95.4166 17.6733 95.6072 17.604C95.8152 17.5173 95.9626 17.4653 96.0492 17.448C96.1532 17.4133 96.3179 17.396 96.5432 17.396C96.7686 17.3787 96.9419 17.3613 97.0632 17.344C97.1672 17.344 97.2539 17.3267 97.3232 17.292L97.8692 17.448C98.0599 17.4653 98.2852 17.552 98.5452 17.708C98.8052 17.864 98.9439 18.0633 98.9612 18.306C98.9959 18.4273 98.9872 18.5227 98.9352 18.592L98.7012 18.462C98.5799 18.2713 98.4066 18.1587 98.1812 18.124C97.9732 18.072 97.7566 18.046 97.5312 18.046C97.0459 18.046 96.5259 18.1673 95.9712 18.41C95.4166 18.6353 94.8879 18.9387 94.3852 19.32C93.8826 19.684 93.4319 20.0827 93.0332 20.516C92.6519 20.9493 92.3746 21.3653 92.2012 21.764C92.1839 21.816 92.1666 21.868 92.1492 21.92C92.1492 21.972 92.1406 22.0153 92.1232 22.05C92.0712 22.2233 92.0192 22.388 91.9672 22.544C91.9326 22.7 91.9239 22.8733 91.9412 23.064C91.9412 23.1853 91.9586 23.2547 91.9932 23.272C92.0279 23.2893 92.0972 23.35 92.2012 23.454L92.4092 23.532L92.5912 23.454L92.7992 23.376C92.9379 23.324 93.0506 23.2547 93.1372 23.168C93.2066 23.1333 93.2672 23.116 93.3192 23.116C93.3712 23.0987 93.3972 23.0813 93.3972 23.064C93.5186 23.0293 93.5792 22.986 93.5792 22.934C93.5966 22.8647 93.6486 22.7953 93.7352 22.726C93.9952 22.4833 94.2466 22.2493 94.4892 22.024C94.7492 21.7813 94.9919 21.53 95.2172 21.27C95.3386 21.1313 95.4859 20.9753 95.6592 20.802C95.8499 20.6287 96.0232 20.4553 96.1792 20.282C96.2312 20.23 96.2746 20.178 96.3092 20.126C96.3612 20.0567 96.4046 19.996 96.4392 19.944C96.5259 19.8053 96.6559 19.6147 96.8292 19.372C97.0026 19.112 97.2019 18.982 97.4272 18.982C97.4619 18.9647 97.5139 18.956 97.5832 18.956C97.7566 18.956 97.8952 19.0253 97.9992 19.164C98.1032 19.2853 98.1552 19.4153 98.1552 19.554C98.1552 19.7273 98.1206 19.892 98.0512 20.048C97.9819 20.1867 97.9299 20.334 97.8952 20.49C97.8259 20.8887 97.7912 21.2787 97.7912 21.66C97.7912 21.7813 97.7912 21.9027 97.7912 22.024C97.7912 22.1453 97.7999 22.2753 97.8172 22.414C97.8692 22.778 98.0512 23.1073 98.3632 23.402L98.4672 23.428C98.7099 23.2893 98.8746 23.1507 98.9612 23.012C99.0652 22.8733 99.2039 22.7 99.3772 22.492C99.3772 22.492 99.3946 22.4833 99.4292 22.466C99.4639 22.4313 99.4899 22.414 99.5072 22.414C99.5766 22.414 99.6112 22.4487 99.6112 22.518V22.544C99.6112 22.6133 99.6026 22.6827 99.5852 22.752C99.5679 22.804 99.5506 22.8733 99.5332 22.96C99.5159 23.168 99.4119 23.4367 99.2212 23.766C99.0479 24.0953 98.7966 24.26 98.4672 24.26ZM100.358 24.546C100.236 24.546 100.106 24.5113 99.9675 24.442C99.8288 24.3727 99.7335 24.2773 99.6815 24.156L99.7075 24.026C99.8115 23.4887 99.9675 22.9687 100.176 22.466C100.384 21.9633 100.574 21.4607 100.748 20.958C100.886 20.5767 101.042 20.1087 101.216 19.554C101.389 18.9993 101.476 18.5053 101.476 18.072C101.476 18.02 101.476 17.968 101.476 17.916C101.476 17.8467 101.467 17.786 101.45 17.734C101.328 17.734 101.216 17.7513 101.112 17.786C101.008 17.8033 100.895 17.812 100.774 17.812H100.748C100.661 17.812 100.618 17.76 100.618 17.656C100.618 17.604 100.652 17.5433 100.722 17.474C100.791 17.4047 100.895 17.37 101.034 17.37C101.086 17.3873 101.233 17.396 101.476 17.396C101.614 17.396 101.805 17.4047 102.048 17.422C102.29 17.422 102.516 17.448 102.724 17.5C102.949 17.552 103.079 17.6647 103.114 17.838C103.131 17.942 103.079 18.1413 102.958 18.436C102.854 18.7133 102.732 19.0167 102.594 19.346C102.438 19.6753 102.29 19.996 102.152 20.308C102.1 20.4467 102.048 20.5853 101.996 20.724C101.944 20.8453 101.918 20.9493 101.918 21.036V21.062L101.97 20.984C102.074 20.828 102.178 20.6807 102.282 20.542C102.403 20.4033 102.498 20.2733 102.568 20.152C102.654 20.048 102.784 19.892 102.958 19.684C103.148 19.4587 103.339 19.2247 103.53 18.982C103.738 18.7393 103.937 18.4967 104.128 18.254C104.336 18.0113 104.518 17.8293 104.674 17.708C104.708 17.6733 104.743 17.63 104.778 17.578C104.83 17.526 104.882 17.4913 104.934 17.474C104.986 17.4567 105.055 17.448 105.142 17.448C105.246 17.4307 105.393 17.422 105.584 17.422C105.636 17.422 105.688 17.4307 105.74 17.448C105.792 17.448 105.835 17.448 105.87 17.448C105.939 17.448 106.086 17.5 106.312 17.604C106.537 17.6907 106.762 17.7947 106.988 17.916C107.213 18.0373 107.326 18.1413 107.326 18.228C107.343 18.4013 107.282 18.5313 107.144 18.618C107.022 18.6873 106.918 18.774 106.832 18.878C106.71 19.034 106.589 19.2073 106.468 19.398C106.364 19.5713 106.277 19.7533 106.208 19.944L106.156 20.1C106.086 20.1693 106.026 20.204 105.974 20.204C105.87 20.204 105.835 20.1433 105.87 20.022C105.87 19.8487 105.887 19.6927 105.922 19.554C105.956 19.398 105.982 19.2593 106 19.138C106.034 18.9993 106.052 18.8693 106.052 18.748C106.069 18.6093 106.069 18.462 106.052 18.306C106.052 18.254 106.034 18.228 106 18.228C105.844 18.228 105.696 18.2973 105.558 18.436C105.419 18.5747 105.306 18.696 105.22 18.8L105.064 18.904C104.977 19.0253 104.83 19.164 104.622 19.32L104.128 19.684C104.006 19.7707 103.833 19.944 103.608 20.204C103.382 20.4467 103.209 20.6373 103.088 20.776C103.088 20.7933 103.027 20.802 102.906 20.802H102.88L102.854 20.828V20.88C102.888 20.932 102.871 20.9927 102.802 21.062C102.698 21.2007 102.516 21.4347 102.256 21.764C101.996 22.0933 101.744 22.4227 101.502 22.752C101.259 23.064 101.12 23.2893 101.086 23.428C101.016 23.6187 100.956 23.792 100.904 23.948C100.869 24.104 100.86 24.2947 100.878 24.52C100.756 24.5027 100.67 24.494 100.618 24.494C100.583 24.5113 100.557 24.52 100.54 24.52C100.488 24.5373 100.427 24.546 100.358 24.546ZM111.869 26.236C111.557 26.236 111.253 26.184 110.959 26.08C110.664 25.9933 110.447 25.8113 110.309 25.534C110.257 25.43 110.205 25.2913 110.153 25.118C110.101 24.9447 110.075 24.7973 110.075 24.676V24.494C110.075 24.4073 110.075 24.3207 110.075 24.234C110.075 24.1647 110.083 24.0953 110.101 24.026C110.17 23.766 110.257 23.4367 110.361 23.038C110.465 22.6393 110.586 22.3273 110.725 22.102H110.673L110.647 21.998L110.751 21.894C110.803 21.8593 110.846 21.816 110.881 21.764H110.803L110.777 21.712C110.707 21.7467 110.681 21.8073 110.699 21.894C110.577 21.9287 110.465 22.0413 110.361 22.232C110.274 22.4053 110.187 22.5093 110.101 22.544L110.153 22.622H110.023L109.893 22.7C109.858 22.7347 109.841 22.7607 109.841 22.778L109.815 22.804C109.763 22.856 109.711 22.882 109.659 22.882C109.503 23.1593 109.225 23.4453 108.827 23.74C108.445 24.0347 108.081 24.182 107.735 24.182C107.579 24.182 107.44 24.156 107.319 24.104C107.197 24.0693 107.093 24.026 107.007 23.974C106.955 23.9393 106.885 23.9047 106.799 23.87C106.729 23.818 106.66 23.7833 106.591 23.766L106.513 23.74C106.443 23.5493 106.365 23.4367 106.279 23.402C106.175 23.35 106.105 23.1853 106.071 22.908L106.045 22.674L106.071 22.57C106.071 22.5007 106.097 22.4053 106.149 22.284C106.183 22.1453 106.235 22.0587 106.305 22.024C106.305 21.816 106.374 21.5907 106.513 21.348C106.651 21.1053 106.807 20.8713 106.981 20.646C107.154 20.4033 107.301 20.2127 107.423 20.074C107.717 19.7447 107.995 19.45 108.255 19.19C108.515 18.93 108.853 18.6873 109.269 18.462V18.488C109.355 18.4533 109.433 18.4187 109.503 18.384C109.589 18.3493 109.676 18.332 109.763 18.332C109.832 18.2973 109.893 18.28 109.945 18.28C110.049 18.28 110.222 18.3407 110.465 18.462C110.707 18.566 110.933 18.696 111.141 18.852C111.366 18.9907 111.479 19.1293 111.479 19.268C111.479 19.2853 111.479 19.346 111.479 19.45C111.479 19.5367 111.461 19.5887 111.427 19.606C111.375 19.6753 111.323 19.7187 111.271 19.736C111.236 19.7533 111.201 19.8053 111.167 19.892C111.149 19.944 111.106 20.022 111.037 20.126C110.985 20.23 110.915 20.282 110.829 20.282H110.777C110.759 20.2473 110.751 20.1867 110.751 20.1C110.768 20.0133 110.777 19.97 110.777 19.97C110.829 19.918 110.855 19.8313 110.855 19.71C110.855 19.5887 110.82 19.476 110.751 19.372C110.681 19.2507 110.586 19.19 110.465 19.19C110.326 19.19 110.135 19.268 109.893 19.424C109.667 19.5627 109.485 19.6753 109.347 19.762C108.844 20.0567 108.411 20.464 108.047 20.984C107.7 21.504 107.431 22.0413 107.241 22.596C107.171 22.7693 107.137 22.9773 107.137 23.22C107.137 23.3413 107.154 23.4627 107.189 23.584C107.241 23.688 107.31 23.74 107.397 23.74C107.674 23.74 108.012 23.5753 108.411 23.246C108.827 22.8993 109.251 22.492 109.685 22.024C110.118 21.5387 110.517 21.0707 110.881 20.62C111.245 20.1693 111.513 19.8313 111.687 19.606C111.773 19.4847 111.886 19.3113 112.025 19.086C112.163 18.8607 112.293 18.6267 112.415 18.384C112.553 18.1413 112.683 17.9073 112.805 17.682C112.926 17.4393 113.03 17.2573 113.117 17.136C113.151 17.0667 113.203 16.9973 113.273 16.928C113.359 16.8413 113.403 16.7633 113.403 16.694C113.437 16.6593 113.481 16.5727 113.533 16.434C113.567 16.3647 113.602 16.2867 113.637 16.2C113.689 16.1133 113.732 16.018 113.767 15.914C113.853 15.7233 113.94 15.5413 114.027 15.368C114.113 15.1773 114.183 15.0473 114.235 14.978C114.321 14.874 114.382 14.7613 114.417 14.64C114.469 14.5187 114.555 14.406 114.677 14.302L114.781 14.224L114.807 14.042C114.807 14.0073 114.859 13.9033 114.963 13.73C115.084 13.5567 115.179 13.4353 115.249 13.366L115.223 13.314C115.344 13.2447 115.439 13.158 115.509 13.054C115.595 12.95 115.682 12.846 115.769 12.742C115.855 12.638 115.959 12.534 116.081 12.43C116.202 12.3087 116.341 12.2133 116.497 12.144C116.601 12.1613 116.791 12.2393 117.069 12.378C117.346 12.4993 117.545 12.5947 117.667 12.664V12.716C117.771 12.82 117.823 12.924 117.823 13.028C117.823 13.1147 117.762 13.236 117.641 13.392C117.606 13.4613 117.563 13.5307 117.511 13.6C117.459 13.652 117.415 13.6953 117.381 13.73L117.043 14.172C116.921 14.3453 116.765 14.51 116.575 14.666C116.401 14.8047 116.237 14.9433 116.081 15.082C115.959 15.186 115.847 15.2813 115.743 15.368C115.656 15.4547 115.595 15.524 115.561 15.576L115.249 15.888C115.145 15.992 115.049 16.1047 114.963 16.226C114.893 16.3473 114.807 16.4687 114.703 16.59C114.477 16.8327 114.269 17.0927 114.079 17.37C113.888 17.63 113.706 17.8987 113.533 18.176C113.446 18.332 113.351 18.488 113.247 18.644C113.16 18.7827 113.056 18.9213 112.935 19.06L112.883 19.164L112.805 19.346C112.753 19.4847 112.683 19.58 112.597 19.632C112.579 19.7013 112.545 19.788 112.493 19.892C112.458 19.9787 112.415 20.074 112.363 20.178C112.293 20.2993 112.233 20.412 112.181 20.516C112.129 20.62 112.085 20.7067 112.051 20.776C112.016 20.88 111.981 21.0013 111.947 21.14C111.929 21.2787 111.877 21.3827 111.791 21.452C111.791 21.5387 111.765 21.6167 111.713 21.686C111.661 21.738 111.617 21.7987 111.583 21.868C111.479 22.1107 111.392 22.4227 111.323 22.804C111.253 23.1853 111.21 23.5753 111.193 23.974C111.175 24.3553 111.175 24.6847 111.193 24.962C111.21 25.118 111.245 25.274 111.297 25.43C111.349 25.6033 111.444 25.7333 111.583 25.82C111.6 25.82 111.626 25.8113 111.661 25.794L111.687 25.82L112.129 25.664C112.215 25.6293 112.285 25.5687 112.337 25.482C112.389 25.3953 112.493 25.352 112.649 25.352L112.727 25.404L112.623 25.82C112.605 25.924 112.501 26.0193 112.311 26.106C112.12 26.1927 111.973 26.236 111.869 26.236Z" fill="white"/>
</g>
<rect x="3.5" y="3.5" width="121" height="33" rx="6.5" stroke="#EEEEEE"/>
</g>
<defs>
<filter id="filter0_d_320_230" x="0" y="0" width="130" height="42" filterUnits="userSpaceOnUse" color-interpolation-filters="sRGB">
<feFlood flood-opacity="0" result="BackgroundImageFix"/>
<feColorMatrix in="SourceAlpha" type="matrix" values="0 0 0 0 0 0 0 0 0 0 0 0 0 0 0 0 0 0 127 0" result="hardAlpha"/>
<feOffset dx="1" dy="1"/>
<feGaussianBlur stdDeviation="2"/>
<feComposite in2="hardAlpha" operator="out"/>
<feColorMatrix type="matrix" values="0 0 0 0 0 0 0 0 0 0 0 0 0 0 0 0 0 0 0.45 0"/>
<feBlend mode="normal" in2="BackgroundImageFix" result="effect1_dropShadow_320_230"/>
<feBlend mode="normal" in="SourceGraphic" in2="effect1_dropShadow_320_230" result="shape"/>
</filter>
<filter id="filter1_d_320_230" x="9.55811" y="11.26" width="109.265" height="21.696" filterUnits="userSpaceOnUse" color-interpolation-filters="sRGB">
<feFlood flood-opacity="0" result="BackgroundImageFix"/>
<feColorMatrix in="SourceAlpha" type="matrix" values="0 0 0 0 0 0 0 0 0 0 0 0 0 0 0 0 0 0 127 0" result="hardAlpha"/>
<feOffset dx="1" dy="1"/>
<feComposite in2="hardAlpha" operator="out"/>
<feColorMatrix type="matrix" values="0 0 0 0 0 0 0 0 0 0 0 0 0 0 0 0 0 0 0.25 0"/>
<feBlend mode="normal" in2="BackgroundImageFix" result="effect1_dropShadow_320_230"/>
<feBlend mode="normal" in="SourceGraphic" in2="effect1_dropShadow_320_230" result="shape"/>
</filter>
</defs>
</svg>
