<svg width="32" height="32" viewBox="0 0 32 32" fill="none" xmlns="http://www.w3.org/2000/svg">
<g clip-path="url(#clip0_320_230)">
<rect width="32" height="32" rx="6" fill="#4DABF5"/>
<g filter="url(#filter0_d_320_230)">
<path d="M2.58172 26C1.79598 26 1.16925 25.714 0.701554 25.142C0.233855 24.57 0 23.9191 0 23.1893C0 22.6568 0.0748289 22.1243 0.224497 21.5917C0.374166 21.0592 0.514476 20.5463 0.645429 20.0533C0.664134 20.0336 0.682849 19.9941 0.701554 19.9349C0.720258 19.8954 0.738973 19.8363 0.757678 19.7574C0.776382 19.7179 0.795098 19.6785 0.813802 19.6391C0.832507 19.5799 0.82316 19.5404 0.78574 19.5207C1.01024 19.2445 1.18797 18.9487 1.31892 18.6331C1.44987 18.3176 1.6089 18.0118 1.79598 17.716C2.11402 17.2229 2.46011 16.7593 2.83428 16.3254C3.22715 15.8916 3.61066 15.4576 3.98482 15.0237L4.01289 14.9645C4.08772 14.8856 4.16256 14.8462 4.23738 14.8462C5.02312 13.9981 5.94917 13.2386 7.01554 12.568C8.0819 11.8777 9.19499 11.3945 10.3549 11.1183C10.7291 11 11.1032 10.9408 11.4774 10.9408C11.5149 10.7633 11.5335 10.5759 11.5335 10.3787C11.5522 10.1815 11.5522 9.98418 11.5335 9.78698C11.5149 9.51081 11.44 9.17558 11.309 8.78107C11.1781 8.38655 10.991 8.11046 10.7478 7.95266C10.6542 7.89349 10.5514 7.86391 10.4391 7.86391C10.3269 7.84419 10.2146 7.83432 10.1024 7.83432C9.69083 7.83432 9.25112 7.88362 8.78345 7.98225C8.31575 8.08087 7.86676 8.13018 7.43647 8.13018C7.23067 8.13018 7.01554 8.07101 6.79104 7.95266C6.58525 7.83432 6.48236 7.62722 6.48236 7.33136C6.48236 7.05522 6.62267 6.86785 6.90329 6.76923C7.20261 6.65089 7.46453 6.59172 7.68903 6.59172C8.00707 6.59172 8.3251 6.61144 8.64314 6.65089C8.96118 6.69034 9.2699 6.71006 9.56919 6.71006C10.2988 6.72978 11.0284 6.74951 11.758 6.76923C12.4877 6.76923 13.2173 6.76923 13.9469 6.76923C14.1527 6.76923 14.3678 6.75936 14.5923 6.73964C14.8168 6.71992 15.0319 6.71006 15.2377 6.71006L15.2658 6.68047C15.5278 6.66075 15.7803 6.64102 16.0235 6.6213C16.2854 6.60158 16.538 6.55226 16.7812 6.47337C16.8186 6.53254 16.8373 6.58185 16.8373 6.6213C16.8373 6.68047 16.7531 6.75936 16.5847 6.85799C16.435 6.95661 16.3416 7.01578 16.3041 7.0355C16.0235 7.13413 15.7335 7.1933 15.4342 7.21302C15.1349 7.21302 14.8449 7.23274 14.5643 7.27219C14.2275 7.31164 13.9002 7.4004 13.5821 7.53846C13.2828 7.65681 12.9647 7.71598 12.628 7.71598C12.4035 7.71598 12.179 7.71598 11.9545 7.71598C11.73 7.69626 11.5055 7.67653 11.281 7.65681C11.4307 7.71598 11.5803 7.77515 11.73 7.83432C11.8983 7.89349 11.9919 7.92308 12.0106 7.92308C12.1603 7.98225 12.3473 8.11046 12.5718 8.30769C12.7963 8.48521 12.9928 8.68241 13.1611 8.89941C13.3482 9.11641 13.4418 9.29392 13.4418 9.43195C13.4604 9.5503 13.4698 9.66864 13.4698 9.78698C13.4698 9.88564 13.4698 9.98418 13.4698 10.0828C13.4698 10.1617 13.4698 10.2604 13.4698 10.3787C13.4698 10.4774 13.4512 10.5858 13.4137 10.7041H13.4418V10.7633C13.5915 10.7633 13.8066 10.783 14.0872 10.8225C14.3865 10.862 14.6671 10.9112 14.9291 10.9704C15.191 11.0296 15.3313 11.0987 15.35 11.1775L15.4342 11.4142H15.3781V11.4438H15.1536C15.06 11.3846 14.9477 11.355 14.8168 11.355C14.7046 11.3353 14.6017 11.3254 14.5081 11.3254C14.0591 11.3254 13.6849 11.5129 13.3856 11.8876C13.3108 12.1637 13.2079 12.43 13.077 12.6864C12.9647 12.9428 12.8619 13.2189 12.7683 13.5148C12.6747 13.9487 12.5812 14.3827 12.4877 14.8166C12.4129 15.2308 12.2725 15.6351 12.0667 16.0296C11.917 16.3451 11.758 16.6608 11.5897 16.9763C11.4213 17.2919 11.2529 17.6075 11.0845 17.9231C11.0098 18.0611 10.9256 18.209 10.832 18.3669C10.7572 18.5049 10.6823 18.6528 10.6075 18.8107C10.57 18.8895 10.5327 18.9783 10.4952 19.0769C10.4766 19.1756 10.4485 19.2741 10.4111 19.3728C10.3924 19.3925 10.2988 19.5108 10.1304 19.7278C9.96206 19.9645 9.77502 20.2209 9.56919 20.497C9.36337 20.7732 9.16693 21.0296 8.97989 21.2663C8.81151 21.503 8.71797 21.641 8.69926 21.6805C8.51219 21.9172 8.31575 22.1243 8.10996 22.3018C7.90417 22.499 7.71709 22.716 7.54872 22.9527L7.52065 23.0414C7.3897 23.1203 7.20261 23.2584 6.95941 23.4556C6.73491 23.6726 6.5759 23.8303 6.48236 23.929C6.18303 24.2249 5.81822 24.5306 5.38793 24.8462C4.95764 25.1815 4.4993 25.4576 4.01289 25.6746C3.52647 25.8916 3.04942 26 2.58172 26ZM2.72203 25.5266C3.1149 25.3688 3.47971 25.2012 3.81645 25.0237C4.1532 24.8462 4.48059 24.6292 4.79863 24.3728C5.00442 24.215 5.18214 24.0374 5.33181 23.8402C5.50018 23.643 5.67791 23.4556 5.86499 23.2781C6.74427 22.3314 7.5113 21.3058 8.16608 20.2012C8.82087 19.1164 9.41021 17.9921 9.934 16.8284L10.2707 16.0888C10.4017 15.7929 10.4952 15.5957 10.5514 15.497C10.5327 15.2998 10.57 15.1025 10.6636 14.9053C10.7759 14.7081 10.8507 14.5207 10.8881 14.3432C11.0004 13.8501 11.0939 13.426 11.1687 13.071C11.2623 12.6963 11.3465 12.2722 11.4213 11.7988C11.2716 11.7593 11.0659 11.7593 10.8039 11.7988C10.542 11.8383 10.2894 11.8876 10.0462 11.9467C9.80308 12.0059 9.62531 12.0651 9.51307 12.1243C9.02665 12.3413 8.57766 12.6075 8.16608 12.9231C7.75451 13.2386 7.34292 13.5641 6.93135 13.8994C6.8004 14.0178 6.65073 14.1361 6.48236 14.2544C6.31398 14.3728 6.15497 14.501 6.0053 14.6391C5.83693 14.7771 5.67791 14.9152 5.52824 15.0533C5.37857 15.1716 5.24762 15.2998 5.13537 15.4379C5.07925 15.5167 5.02312 15.6055 4.967 15.7041C4.91087 15.783 4.85475 15.862 4.79863 15.9408C4.2748 16.6312 3.80709 17.2722 3.39552 17.8639C3.00265 18.4556 2.65655 19.1657 2.35722 19.9941C2.3198 20.1124 2.26368 20.2308 2.18885 20.3491C2.13272 20.4675 2.08596 20.5759 2.04854 20.6746C1.93629 20.9309 1.80533 21.3451 1.65567 21.9172C1.52471 22.5089 1.45923 23.0907 1.45923 23.6627C1.45923 24.1558 1.54342 24.5898 1.71179 24.9645C1.89887 25.3392 2.23561 25.5266 2.72203 25.5266ZM24.0248 14.6391C23.6692 14.6391 23.3044 14.6391 22.9303 14.6391C22.5561 14.6194 22.1819 14.5996 21.8078 14.5799C21.5833 14.5799 21.4336 14.5602 21.3589 14.5207C21.2839 14.4615 21.2466 14.4024 21.2466 14.3432C21.2466 14.2643 21.2747 14.1953 21.3308 14.1361C21.3869 14.0769 21.4243 14.0374 21.4429 14.0178L21.415 13.929C21.4898 13.9487 21.5365 13.9783 21.5553 14.0178C21.5926 14.0374 21.6207 14.0473 21.6395 14.0473L21.6675 14.0178H21.6956C21.7704 13.9783 21.8733 13.9586 22.0043 13.9586C22.0977 13.9586 22.1819 13.9685 22.2568 13.9882C22.3316 13.9882 22.4064 13.9882 22.4813 13.9882C22.6497 13.9882 22.8181 13.9783 22.9865 13.9586C23.1735 13.9389 23.3605 13.9191 23.5477 13.8994C23.585 13.8994 23.6973 13.8797 23.8844 13.8402C23.9406 13.8206 23.9873 13.8107 24.0248 13.8107C24.0809 13.791 24.1182 13.7614 24.137 13.7219H24.4176C24.5111 13.7219 24.5953 13.7219 24.6702 13.7219C24.7637 13.7022 24.8198 13.6627 24.8386 13.6036C25.1192 13.6036 25.3904 13.574 25.6524 13.5148C25.933 13.4359 26.2136 13.3768 26.4942 13.3373C26.6813 13.2978 26.8496 13.2386 26.9993 13.1598C27.1677 13.0611 27.3548 13.0019 27.5606 12.9822L28.4586 12.6272C28.6082 12.568 28.7204 12.499 28.7953 12.4201C28.8888 12.3413 28.9824 12.2623 29.0759 12.1834C29.1133 12.1439 29.1507 12.1144 29.1882 12.0947C29.2443 12.0552 29.3004 12.0256 29.3566 12.0059C29.7307 11.8087 30.0301 11.5325 30.2546 11.1775C30.479 10.8225 30.6474 10.4675 30.7597 10.1124C30.8719 9.73771 30.928 9.46154 30.928 9.28402C30.928 8.67262 30.7035 8.19922 30.2546 7.86391C29.8242 7.5286 29.2817 7.28205 28.6269 7.12426C27.9908 6.96647 27.3361 6.86785 26.6626 6.8284C25.9891 6.78895 25.4279 6.76923 24.9789 6.76923C24.7917 6.76923 24.6047 6.78895 24.4176 6.8284C24.2493 6.86785 24.0715 6.90729 23.8844 6.94675C23.6038 7.00592 23.3138 7.0355 23.0145 7.0355C22.7339 7.01578 22.4533 7.02564 22.1727 7.06509C20.9753 7.3215 19.778 7.70611 18.5807 8.21893C17.4021 8.71199 16.345 9.3333 15.4097 10.0828C15.1852 10.2604 14.9232 10.4871 14.6239 10.7633C14.3245 11.0197 14.072 11.2959 13.8663 11.5917C13.6604 11.8876 13.5669 12.1834 13.5856 12.4793C13.5856 12.5385 13.6324 12.6272 13.7259 12.7456C13.8194 12.8639 13.8663 12.9626 13.8663 13.0414C13.8663 13.1401 13.7914 13.1893 13.6418 13.1893C13.4546 13.0907 13.305 12.8836 13.1927 12.568C13.0992 12.2327 13.0524 11.9862 13.0524 11.8284C12.9962 11.2564 13.0711 10.6942 13.277 10.142C13.5015 9.56998 13.8755 9.18537 14.3994 8.98817C14.549 8.92899 14.6987 8.88951 14.8484 8.86982C15.0168 8.83034 15.1664 8.79097 15.2974 8.75148C15.5031 8.67262 15.709 8.55428 15.9148 8.39645C16.1393 8.21893 16.345 8.06114 16.5322 7.92308C16.6818 7.90336 16.8221 7.86391 16.9531 7.80473C17.084 7.72584 17.2149 7.66667 17.346 7.62722C17.533 7.54833 17.8417 7.43984 18.272 7.30178C18.7022 7.14398 19.1326 7.00592 19.5629 6.88757C19.9931 6.74951 20.2925 6.68047 20.4609 6.68047C20.6105 6.58185 20.7788 6.52268 20.966 6.50296C21.153 6.46351 21.3401 6.44379 21.5272 6.44379C21.6207 6.38462 21.7798 6.33531 22.0043 6.29586C22.2288 6.23669 22.3972 6.21697 22.5094 6.23669C22.5842 6.21697 22.7526 6.19724 23.0145 6.17751C23.2764 6.15779 23.5664 6.13806 23.8844 6.11834C24.2024 6.07889 24.4737 6.04931 24.6982 6.02959C24.9414 6.00987 25.0631 6 25.0631 6C25.5494 6 26.0452 6.00987 26.5503 6.02959C27.0741 6.02959 27.5793 6.09862 28.0657 6.23669C28.6456 6.37475 29.2255 6.61144 29.8056 6.94675C30.3855 7.26232 30.8812 7.66667 31.2928 8.15976C31.7044 8.65282 31.9383 9.21495 31.9944 9.84615C32.0131 10.1617 31.985 10.4675 31.9102 10.7633C31.8353 11.0395 31.7231 11.3058 31.5735 11.5621C31.1618 12.2919 30.5632 12.8639 29.7775 13.2781C28.9918 13.6923 28.1872 14.0079 27.364 14.2249C27.177 14.2643 26.9806 14.3136 26.7748 14.3728C26.569 14.4123 26.3632 14.4419 26.1575 14.4615C25.802 14.4812 25.4371 14.5207 25.0631 14.5799C24.7075 14.6194 24.3615 14.6391 24.0248 14.6391ZM20.1802 20.497C19.8996 20.497 19.5815 20.3984 19.2261 20.2012C18.8706 20.004 18.5619 19.7574 18.3001 19.4615C18.0381 19.146 17.8884 18.8501 17.8511 18.574C17.8136 18.0611 17.9072 17.5385 18.1317 17.0059C18.3562 16.4537 18.59 15.9704 18.8333 15.5562C19.0764 15.1223 19.1887 14.8265 19.17 14.6686C19.2073 14.6292 19.2635 14.5799 19.3384 14.5207C19.4318 14.4419 19.4599 14.3827 19.4226 14.3432C19.9277 13.4753 20.4515 12.6469 20.994 11.858C21.0502 11.7791 21.0969 11.7002 21.1344 11.6213C21.1717 11.5226 21.2185 11.4339 21.2747 11.355C21.4056 11.1775 21.5459 11.0099 21.6956 10.8521C21.8452 10.6746 21.9855 10.5069 22.1165 10.3491C22.3222 10.0729 22.5187 9.79688 22.7058 9.52071C22.8929 9.22485 23.0799 8.94868 23.2671 8.69231C23.3605 8.57396 23.5009 8.41614 23.688 8.21893C23.8937 8.00197 23.9967 7.8146 23.9967 7.65681C23.9779 7.61735 23.9406 7.56805 23.8844 7.50888L23.8564 7.4497C23.7815 7.39053 23.7441 7.31164 23.7441 7.21302L23.8283 7.12426C23.9406 7.14398 24.1557 7.20315 24.4737 7.30178C24.8105 7.4004 25.1192 7.53846 25.3998 7.71598C25.6804 7.89349 25.8207 8.11046 25.8207 8.36686C25.8207 8.56406 25.7178 8.77117 25.512 8.98817C25.3249 9.18537 25.1098 9.38268 24.8666 9.57988C24.6421 9.7574 24.455 9.92501 24.3054 10.0828C23.8564 10.5759 23.3419 11.1972 22.762 11.9467C22.1819 12.6765 21.6207 13.4655 21.0782 14.3136C20.5357 15.142 20.0961 15.9803 19.7593 16.8284C19.4226 17.6765 19.2823 18.4753 19.3384 19.2249C19.357 19.3827 19.4038 19.5503 19.4787 19.7278C19.5535 19.9053 19.6844 19.9941 19.8716 19.9941L20.966 19.284C21.1717 19.1262 21.3589 18.9783 21.5272 18.8402C21.7143 18.7022 21.8078 18.5839 21.8078 18.4852H22.0604C21.9855 18.7022 21.9013 18.8698 21.8078 18.9882C21.7143 19.0868 21.6114 19.2249 21.4992 19.4024C21.3308 19.6391 21.1436 19.8757 20.9379 20.1124C20.7508 20.3688 20.4982 20.497 20.1802 20.497Z" fill="black"/>
</g>
</g>
<defs>
<filter id="filter0_d_320_230" x="0" y="6" width="33" height="21" filterUnits="userSpaceOnUse" color-interpolation-filters="sRGB">
<feFlood flood-opacity="0" result="BackgroundImageFix"/>
<feColorMatrix in="SourceAlpha" type="matrix" values="0 0 0 0 0 0 0 0 0 0 0 0 0 0 0 0 0 0 127 0" result="hardAlpha"/>
<feOffset dx="1" dy="1"/>
<feComposite in2="hardAlpha" operator="out"/>
<feColorMatrix type="matrix" values="0 0 0 0 0 0 0 0 0 0 0 0 0 0 0 0 0 0 0.3 0"/>
<feBlend mode="normal" in2="BackgroundImageFix" result="effect1_dropShadow_320_230"/>
<feBlend mode="normal" in="SourceGraphic" in2="effect1_dropShadow_320_230" result="shape"/>
</filter>
<clipPath id="clip0_320_230">
<rect width="32" height="32" rx="6" fill="white"/>
</clipPath>
</defs>
</svg>
