<svg width="32" height="32" viewBox="0 0 32 32" fill="none" xmlns="http://www.w3.org/2000/svg">
<g clip-path="url(#clip0_338_336)">
<rect width="32" height="32" rx="6" fill="url(#paint0_linear_338_336)"/>
<g filter="url(#filter0_d_338_336)">
<mask id="path-2-outside-1_338_336" maskUnits="userSpaceOnUse" x="0" y="6" width="32" height="21" fill="black">
<rect fill="white" y="6" width="32" height="21"/>
<path d="M3.42036 25.75C2.68373 25.75 2.09617 25.4819 1.65771 24.9456C1.21924 24.4094 1 23.7992 1 23.115C1 22.6158 1.07015 22.1165 1.21047 21.6172C1.35078 21.118 1.48232 20.6372 1.60509 20.1749C1.62263 20.1565 1.64017 20.1195 1.65771 20.064C1.67524 20.027 1.69279 19.9715 1.71032 19.8976C1.72786 19.8605 1.7454 19.8236 1.76294 19.7866C1.78048 19.7311 1.77171 19.6941 1.73663 19.6757C1.9471 19.4168 2.11372 19.1394 2.23649 18.8436C2.35926 18.5477 2.50834 18.2611 2.68373 17.9837C2.98189 17.5215 3.30635 17.0869 3.65713 16.6801C4.02545 16.2733 4.38499 15.8665 4.73577 15.4597L4.76208 15.4042C4.83223 15.3303 4.9024 15.2933 4.97255 15.2933C5.70918 14.4982 6.57735 13.7862 7.57706 13.1575C8.57678 12.5103 9.62031 12.0574 10.7077 11.7984C11.0586 11.6875 11.4093 11.632 11.7601 11.632C11.7952 11.4656 11.8127 11.2899 11.8127 11.105C11.8302 10.9202 11.8302 10.7352 11.8127 10.5503C11.7952 10.2914 11.725 9.97711 11.6022 9.60725C11.4795 9.23739 11.304 8.97855 11.0761 8.83062C10.9883 8.77515 10.8919 8.74741 10.7867 8.74741C10.6814 8.72892 10.5762 8.71968 10.471 8.71968C10.0852 8.71968 9.67292 8.7659 9.23449 8.85836C8.79602 8.95082 8.37509 8.99704 7.97169 8.99704C7.77876 8.99704 7.57706 8.94157 7.3666 8.83062C7.17367 8.71967 7.07721 8.52552 7.07721 8.24815C7.07721 7.98927 7.20875 7.81361 7.47183 7.72115C7.75245 7.61021 7.998 7.55473 8.20846 7.55473C8.50663 7.55473 8.80478 7.57322 9.10294 7.61021C9.40111 7.64719 9.69053 7.66568 9.97112 7.66568C10.6551 7.68417 11.3391 7.70267 12.0232 7.72115C12.7072 7.72115 13.3912 7.72115 14.0752 7.72115C14.2682 7.72115 14.4698 7.7119 14.6803 7.69342C14.8908 7.67493 15.0924 7.66568 15.2854 7.66568L15.3117 7.63794C15.5573 7.61946 15.794 7.60096 16.022 7.58247C16.2676 7.56398 16.5044 7.51775 16.7323 7.44379C16.7675 7.49926 16.785 7.54549 16.785 7.58247C16.785 7.63794 16.706 7.7119 16.5482 7.80436C16.4078 7.89682 16.3202 7.9523 16.2851 7.97078C16.022 8.06324 15.7501 8.11872 15.4695 8.1372C15.189 8.1372 14.9171 8.15569 14.654 8.19268C14.3383 8.22966 14.0314 8.31287 13.7332 8.44231C13.4526 8.55325 13.1544 8.60873 12.8387 8.60873C12.6283 8.60873 12.4178 8.60873 12.2073 8.60873C11.9969 8.59024 11.7864 8.57174 11.5759 8.55325C11.7163 8.60873 11.8565 8.6642 11.9969 8.71968C12.1547 8.77515 12.2424 8.80289 12.2599 8.80289C12.4003 8.85836 12.5756 8.97855 12.7861 9.16346C12.9966 9.32988 13.1807 9.51476 13.3386 9.7182C13.5139 9.92163 13.6017 10.0881 13.6017 10.2175C13.6192 10.3284 13.628 10.4393 13.628 10.5503C13.628 10.6428 13.628 10.7352 13.628 10.8277C13.628 10.9016 13.628 10.9941 13.628 11.105C13.628 11.1975 13.6105 11.2992 13.5753 11.4101H13.6017V11.4656C13.742 11.4656 13.9437 11.4841 14.2067 11.5211C14.4873 11.5581 14.7504 11.6043 14.996 11.6598C15.2416 11.7152 15.3731 11.78 15.3906 11.8539L15.4695 12.0758H15.4169V12.1036H15.2065C15.1187 12.0481 15.0135 12.0203 14.8908 12.0203C14.7855 12.0019 14.6891 11.9926 14.6014 11.9926C14.1804 11.9926 13.8296 12.1683 13.549 12.5196C13.4789 12.7785 13.3824 13.0281 13.2596 13.2685C13.1544 13.5088 13.058 13.7678 12.9703 14.0451C12.8825 14.4519 12.7949 14.8588 12.7072 15.2655C12.6371 15.6538 12.5055 16.0329 12.3126 16.4027C12.1722 16.6986 12.0232 16.9945 11.8653 17.2903C11.7075 17.5861 11.5496 17.8821 11.3918 18.1779C11.3216 18.3073 11.2427 18.446 11.155 18.5939C11.0849 18.7233 11.0146 18.862 10.9445 19.01C10.9094 19.0839 10.8744 19.1671 10.8393 19.2596C10.8218 19.3521 10.7955 19.4445 10.7604 19.537C10.7429 19.5554 10.6551 19.6664 10.4973 19.8698C10.3394 20.0917 10.1641 20.3321 9.97112 20.591C9.77816 20.8499 9.594 21.0902 9.41864 21.3121C9.26079 21.534 9.1731 21.6634 9.15556 21.7004C8.98018 21.9223 8.79602 22.1165 8.60309 22.2829C8.41016 22.4678 8.23477 22.6712 8.07692 22.8931L8.05061 22.9763C7.92784 23.0503 7.75245 23.1798 7.52445 23.3646C7.31398 23.5681 7.16491 23.7159 7.07721 23.8084C6.79659 24.0858 6.45458 24.3724 6.05119 24.6683C5.64779 24.9827 5.21809 25.2415 4.76208 25.4449C4.30607 25.6483 3.85883 25.75 3.42036 25.75ZM3.5519 25.3062C3.92022 25.1582 4.26222 25.0011 4.57792 24.8347C4.89362 24.6683 5.20055 24.4648 5.49871 24.2245C5.69164 24.0765 5.85826 23.9101 5.99857 23.7252C6.15642 23.5403 6.32304 23.3646 6.49843 23.1982C7.32276 22.3106 8.04184 21.3491 8.6557 20.3136C9.26957 19.2966 9.82207 18.2426 10.3131 17.1516L10.6288 16.4582C10.7516 16.1808 10.8393 15.996 10.8919 15.9035C10.8744 15.7186 10.9094 15.5336 10.9971 15.3487C11.1024 15.1639 11.1725 14.9882 11.2076 14.8217C11.3128 14.3595 11.4006 13.9619 11.4707 13.6291C11.5584 13.2778 11.6373 12.8802 11.7075 12.4364C11.5671 12.3994 11.3743 12.3994 11.1287 12.4364C10.8831 12.4734 10.6463 12.5196 10.4184 12.5751C10.1904 12.6305 10.0237 12.686 9.9185 12.7415C9.46249 12.9449 9.04155 13.1946 8.6557 13.4904C8.26985 13.7862 7.88399 14.0913 7.49814 14.4057C7.37537 14.5166 7.23506 14.6276 7.07721 14.7385C6.91936 14.8495 6.77028 14.9697 6.62997 15.0991C6.47212 15.2285 6.32304 15.358 6.18273 15.4874C6.04241 15.5984 5.91964 15.7186 5.81441 15.848C5.76179 15.9219 5.70918 16.0051 5.65656 16.0976C5.60395 16.1716 5.55133 16.2456 5.49871 16.3195C5.00763 16.9668 4.56915 17.5677 4.1833 18.1224C3.81498 18.6771 3.49051 19.3428 3.20989 20.1195C3.17481 20.2304 3.1222 20.3413 3.05204 20.4523C2.99943 20.5632 2.95558 20.6649 2.9205 20.7574C2.81527 20.9977 2.6925 21.3861 2.55219 21.9223C2.42942 22.4771 2.36803 23.0225 2.36803 23.5588C2.36803 24.021 2.44695 24.4279 2.6048 24.7792C2.78019 25.1305 3.09589 25.3062 3.5519 25.3062ZM23.5232 15.0991C23.1899 15.0991 22.8479 15.0991 22.4972 15.0991C22.1464 15.0807 21.7956 15.0621 21.4449 15.0436C21.2344 15.0436 21.094 15.0252 21.0239 14.9882C20.9537 14.9327 20.9187 14.8772 20.9187 14.8217C20.9187 14.7478 20.945 14.6831 20.9976 14.6276C21.0502 14.5721 21.0852 14.5351 21.1027 14.5166L21.0765 14.4334C21.1467 14.4519 21.1905 14.4796 21.2081 14.5166C21.2431 14.5351 21.2694 14.5444 21.287 14.5444L21.3133 14.5166H21.3396C21.4097 14.4796 21.5062 14.4612 21.629 14.4612C21.7166 14.4612 21.7956 14.4704 21.8658 14.4889C21.9359 14.4889 22.006 14.4889 22.0763 14.4889C22.2341 14.4889 22.392 14.4796 22.5498 14.4612C22.7252 14.4427 22.9005 14.4242 23.076 14.4057C23.111 14.4057 23.2162 14.3872 23.3917 14.3502C23.4443 14.3318 23.4881 14.3225 23.5232 14.3225C23.5758 14.304 23.6108 14.2763 23.6284 14.2393H23.8915C23.9792 14.2393 24.0581 14.2393 24.1283 14.2393C24.2159 14.2208 24.2685 14.1838 24.2861 14.1283C24.5492 14.1283 24.8035 14.1006 25.0491 14.0451C25.3122 13.9712 25.5753 13.9157 25.8383 13.8787C26.0137 13.8417 26.1715 13.7862 26.3119 13.7123C26.4697 13.6198 26.6451 13.5643 26.838 13.5459L27.6799 13.213C27.8202 13.1575 27.9254 13.0928 27.9956 13.0189C28.0832 12.9449 28.171 12.8709 28.2587 12.797C28.2937 12.7599 28.3288 12.7322 28.3639 12.7138C28.4165 12.6767 28.4692 12.649 28.5218 12.6305C28.8725 12.4457 29.1532 12.1868 29.3636 11.8539C29.5741 11.5211 29.732 11.1882 29.8372 10.8554C29.9424 10.5041 29.995 10.2452 29.995 10.0788C29.995 9.50558 29.7846 9.06176 29.3636 8.74741C28.9602 8.43306 28.4516 8.20193 27.8378 8.05399C27.2414 7.90606 26.6276 7.81361 25.9962 7.77663C25.3648 7.73964 24.8386 7.72115 24.4177 7.72115C24.2422 7.72115 24.0669 7.73964 23.8915 7.77663C23.7337 7.81361 23.567 7.85059 23.3917 7.88757C23.1286 7.94305 22.8567 7.97078 22.5761 7.97078C22.313 7.9523 22.0499 7.96153 21.7869 7.99852C20.6643 8.2389 19.5419 8.59948 18.4194 9.08025C17.3145 9.54249 16.3234 10.125 15.4466 10.8277C15.2361 10.9941 14.9905 11.2067 14.7099 11.4656C14.4293 11.706 14.1925 11.9649 13.9996 12.2422C13.8067 12.5196 13.7189 12.797 13.7365 13.0743C13.7365 13.1298 13.7803 13.213 13.8681 13.324C13.9557 13.4349 13.9996 13.5274 13.9996 13.6013C13.9996 13.6938 13.9294 13.74 13.7892 13.74C13.6137 13.6475 13.4735 13.4534 13.3681 13.1575C13.2805 12.8432 13.2366 12.6121 13.2366 12.4641C13.184 11.9278 13.2542 11.4009 13.4471 10.8831C13.6576 10.3469 14.0083 9.98628 14.4995 9.80141C14.6397 9.74593 14.7801 9.70891 14.9204 9.69046C15.0783 9.65344 15.2185 9.61653 15.3413 9.57951C15.5342 9.50558 15.7272 9.39464 15.9201 9.24667C16.1306 9.08025 16.3234 8.93232 16.4989 8.80289C16.6391 8.7844 16.7707 8.74741 16.8935 8.69194C17.0163 8.61798 17.139 8.5625 17.2618 8.52552C17.4372 8.45156 17.7266 8.34985 18.13 8.22041C18.5333 8.07248 18.9368 7.94305 19.3402 7.8321C19.7435 7.70267 20.0242 7.63794 20.1821 7.63794C20.3223 7.54549 20.4802 7.49001 20.6556 7.47152C20.831 7.43454 21.0063 7.41605 21.1818 7.41605C21.2694 7.36058 21.4185 7.31435 21.629 7.27737C21.8395 7.22189 21.9973 7.20341 22.1026 7.22189C22.1727 7.20341 22.3305 7.18491 22.5761 7.16642C22.8216 7.14793 23.0935 7.12943 23.3917 7.11095C23.6898 7.07396 23.9441 7.04622 24.1546 7.02774C24.3826 7.00925 24.4966 7 24.4966 7C24.9526 7 25.4174 7.00925 25.891 7.02774C26.382 7.02774 26.8556 7.09246 27.3116 7.22189C27.8553 7.35133 28.3989 7.57322 28.9427 7.88757C29.4864 8.18343 29.9511 8.5625 30.337 9.02478C30.7229 9.48702 30.9421 10.014 30.9948 10.6058C31.0123 10.9016 30.986 11.1882 30.9158 11.4656C30.8456 11.7245 30.7404 11.9741 30.6001 12.2145C30.2142 12.8986 29.653 13.4349 28.9164 13.8232C28.1798 14.2115 27.4255 14.5074 26.6538 14.7108C26.4784 14.7478 26.2943 14.794 26.1014 14.8495C25.9085 14.8865 25.7155 14.9142 25.5226 14.9327C25.1893 14.9511 24.8473 14.9882 24.4966 15.0436C24.1633 15.0807 23.8389 15.0991 23.5232 15.0991ZM19.919 20.591C19.6559 20.591 19.3577 20.4985 19.0245 20.3136C18.6912 20.1287 18.4018 19.8976 18.1563 19.6202C17.9107 19.3244 17.7704 19.047 17.7354 18.7881C17.7003 18.3073 17.788 17.8173 17.9985 17.318C18.2089 16.8003 18.4281 16.3473 18.6562 15.9589C18.8842 15.5522 18.9894 15.2748 18.9719 15.1268C19.0069 15.0898 19.0595 15.0436 19.1297 14.9882C19.2174 14.9142 19.2437 14.8588 19.2087 14.8217C19.6822 14.0081 20.1733 13.2315 20.6819 12.4919C20.7345 12.4179 20.7783 12.3439 20.8135 12.27C20.8485 12.1775 20.8924 12.0943 20.945 12.0203C21.0677 11.8539 21.1993 11.6968 21.3396 11.5488C21.4799 11.3824 21.6114 11.2253 21.7342 11.0773C21.9271 10.8184 22.1113 10.5596 22.2867 10.3007C22.4621 10.0233 22.6374 9.76439 22.8129 9.52404C22.9005 9.41309 23.0321 9.26513 23.2075 9.08025C23.4004 8.87685 23.4969 8.70119 23.4969 8.55325C23.4793 8.51627 23.4443 8.47004 23.3917 8.41457L23.3654 8.3591C23.2951 8.30362 23.2601 8.22966 23.2601 8.1372L23.339 8.05399C23.4443 8.07248 23.6459 8.12795 23.9441 8.22041C24.2598 8.31287 24.5492 8.44231 24.8123 8.60873C25.0754 8.77515 25.2069 8.97855 25.2069 9.21893C25.2069 9.40381 25.1104 9.59797 24.9175 9.80141C24.7421 9.98628 24.5404 10.1713 24.3125 10.3561C24.102 10.5226 23.9265 10.6797 23.7863 10.8277C23.3654 11.2899 22.883 11.8724 22.3393 12.5751C21.7956 13.2592 21.2694 13.9989 20.7608 14.794C20.2522 15.5706 19.8401 16.3565 19.5244 17.1516C19.2087 17.9467 19.0771 18.6956 19.1297 19.3983C19.1472 19.5463 19.191 19.7034 19.2613 19.8698C19.3314 20.0362 19.4541 20.1195 19.6296 20.1195L20.6556 19.4538C20.8485 19.3058 21.0239 19.1671 21.1818 19.0377C21.3571 18.9083 21.4449 18.7974 21.4449 18.7049H21.6816C21.6114 18.9083 21.5325 19.0655 21.4449 19.1764C21.3571 19.2689 21.2607 19.3983 21.1555 19.5647C20.9976 19.7866 20.8222 20.0085 20.6293 20.2304C20.4538 20.4707 20.2171 20.591 19.919 20.591Z"/>
</mask>
<path d="M3.42036 25.75C2.68373 25.75 2.09617 25.4819 1.65771 24.9456C1.21924 24.4094 1 23.7992 1 23.115C1 22.6158 1.07015 22.1165 1.21047 21.6172C1.35078 21.118 1.48232 20.6372 1.60509 20.1749C1.62263 20.1565 1.64017 20.1195 1.65771 20.064C1.67524 20.027 1.69279 19.9715 1.71032 19.8976C1.72786 19.8605 1.7454 19.8236 1.76294 19.7866C1.78048 19.7311 1.77171 19.6941 1.73663 19.6757C1.9471 19.4168 2.11372 19.1394 2.23649 18.8436C2.35926 18.5477 2.50834 18.2611 2.68373 17.9837C2.98189 17.5215 3.30635 17.0869 3.65713 16.6801C4.02545 16.2733 4.38499 15.8665 4.73577 15.4597L4.76208 15.4042C4.83223 15.3303 4.9024 15.2933 4.97255 15.2933C5.70918 14.4982 6.57735 13.7862 7.57706 13.1575C8.57678 12.5103 9.62031 12.0574 10.7077 11.7984C11.0586 11.6875 11.4093 11.632 11.7601 11.632C11.7952 11.4656 11.8127 11.2899 11.8127 11.105C11.8302 10.9202 11.8302 10.7352 11.8127 10.5503C11.7952 10.2914 11.725 9.97711 11.6022 9.60725C11.4795 9.23739 11.304 8.97855 11.0761 8.83062C10.9883 8.77515 10.8919 8.74741 10.7867 8.74741C10.6814 8.72892 10.5762 8.71968 10.471 8.71968C10.0852 8.71968 9.67292 8.7659 9.23449 8.85836C8.79602 8.95082 8.37509 8.99704 7.97169 8.99704C7.77876 8.99704 7.57706 8.94157 7.3666 8.83062C7.17367 8.71967 7.07721 8.52552 7.07721 8.24815C7.07721 7.98927 7.20875 7.81361 7.47183 7.72115C7.75245 7.61021 7.998 7.55473 8.20846 7.55473C8.50663 7.55473 8.80478 7.57322 9.10294 7.61021C9.40111 7.64719 9.69053 7.66568 9.97112 7.66568C10.6551 7.68417 11.3391 7.70267 12.0232 7.72115C12.7072 7.72115 13.3912 7.72115 14.0752 7.72115C14.2682 7.72115 14.4698 7.7119 14.6803 7.69342C14.8908 7.67493 15.0924 7.66568 15.2854 7.66568L15.3117 7.63794C15.5573 7.61946 15.794 7.60096 16.022 7.58247C16.2676 7.56398 16.5044 7.51775 16.7323 7.44379C16.7675 7.49926 16.785 7.54549 16.785 7.58247C16.785 7.63794 16.706 7.7119 16.5482 7.80436C16.4078 7.89682 16.3202 7.9523 16.2851 7.97078C16.022 8.06324 15.7501 8.11872 15.4695 8.1372C15.189 8.1372 14.9171 8.15569 14.654 8.19268C14.3383 8.22966 14.0314 8.31287 13.7332 8.44231C13.4526 8.55325 13.1544 8.60873 12.8387 8.60873C12.6283 8.60873 12.4178 8.60873 12.2073 8.60873C11.9969 8.59024 11.7864 8.57174 11.5759 8.55325C11.7163 8.60873 11.8565 8.6642 11.9969 8.71968C12.1547 8.77515 12.2424 8.80289 12.2599 8.80289C12.4003 8.85836 12.5756 8.97855 12.7861 9.16346C12.9966 9.32988 13.1807 9.51476 13.3386 9.7182C13.5139 9.92163 13.6017 10.0881 13.6017 10.2175C13.6192 10.3284 13.628 10.4393 13.628 10.5503C13.628 10.6428 13.628 10.7352 13.628 10.8277C13.628 10.9016 13.628 10.9941 13.628 11.105C13.628 11.1975 13.6105 11.2992 13.5753 11.4101H13.6017V11.4656C13.742 11.4656 13.9437 11.4841 14.2067 11.5211C14.4873 11.5581 14.7504 11.6043 14.996 11.6598C15.2416 11.7152 15.3731 11.78 15.3906 11.8539L15.4695 12.0758H15.4169V12.1036H15.2065C15.1187 12.0481 15.0135 12.0203 14.8908 12.0203C14.7855 12.0019 14.6891 11.9926 14.6014 11.9926C14.1804 11.9926 13.8296 12.1683 13.549 12.5196C13.4789 12.7785 13.3824 13.0281 13.2596 13.2685C13.1544 13.5088 13.058 13.7678 12.9703 14.0451C12.8825 14.4519 12.7949 14.8588 12.7072 15.2655C12.6371 15.6538 12.5055 16.0329 12.3126 16.4027C12.1722 16.6986 12.0232 16.9945 11.8653 17.2903C11.7075 17.5861 11.5496 17.8821 11.3918 18.1779C11.3216 18.3073 11.2427 18.446 11.155 18.5939C11.0849 18.7233 11.0146 18.862 10.9445 19.01C10.9094 19.0839 10.8744 19.1671 10.8393 19.2596C10.8218 19.3521 10.7955 19.4445 10.7604 19.537C10.7429 19.5554 10.6551 19.6664 10.4973 19.8698C10.3394 20.0917 10.1641 20.3321 9.97112 20.591C9.77816 20.8499 9.594 21.0902 9.41864 21.3121C9.26079 21.534 9.1731 21.6634 9.15556 21.7004C8.98018 21.9223 8.79602 22.1165 8.60309 22.2829C8.41016 22.4678 8.23477 22.6712 8.07692 22.8931L8.05061 22.9763C7.92784 23.0503 7.75245 23.1798 7.52445 23.3646C7.31398 23.5681 7.16491 23.7159 7.07721 23.8084C6.79659 24.0858 6.45458 24.3724 6.05119 24.6683C5.64779 24.9827 5.21809 25.2415 4.76208 25.4449C4.30607 25.6483 3.85883 25.75 3.42036 25.75ZM3.5519 25.3062C3.92022 25.1582 4.26222 25.0011 4.57792 24.8347C4.89362 24.6683 5.20055 24.4648 5.49871 24.2245C5.69164 24.0765 5.85826 23.9101 5.99857 23.7252C6.15642 23.5403 6.32304 23.3646 6.49843 23.1982C7.32276 22.3106 8.04184 21.3491 8.6557 20.3136C9.26957 19.2966 9.82207 18.2426 10.3131 17.1516L10.6288 16.4582C10.7516 16.1808 10.8393 15.996 10.8919 15.9035C10.8744 15.7186 10.9094 15.5336 10.9971 15.3487C11.1024 15.1639 11.1725 14.9882 11.2076 14.8217C11.3128 14.3595 11.4006 13.9619 11.4707 13.6291C11.5584 13.2778 11.6373 12.8802 11.7075 12.4364C11.5671 12.3994 11.3743 12.3994 11.1287 12.4364C10.8831 12.4734 10.6463 12.5196 10.4184 12.5751C10.1904 12.6305 10.0237 12.686 9.9185 12.7415C9.46249 12.9449 9.04155 13.1946 8.6557 13.4904C8.26985 13.7862 7.88399 14.0913 7.49814 14.4057C7.37537 14.5166 7.23506 14.6276 7.07721 14.7385C6.91936 14.8495 6.77028 14.9697 6.62997 15.0991C6.47212 15.2285 6.32304 15.358 6.18273 15.4874C6.04241 15.5984 5.91964 15.7186 5.81441 15.848C5.76179 15.9219 5.70918 16.0051 5.65656 16.0976C5.60395 16.1716 5.55133 16.2456 5.49871 16.3195C5.00763 16.9668 4.56915 17.5677 4.1833 18.1224C3.81498 18.6771 3.49051 19.3428 3.20989 20.1195C3.17481 20.2304 3.1222 20.3413 3.05204 20.4523C2.99943 20.5632 2.95558 20.6649 2.9205 20.7574C2.81527 20.9977 2.6925 21.3861 2.55219 21.9223C2.42942 22.4771 2.36803 23.0225 2.36803 23.5588C2.36803 24.021 2.44695 24.4279 2.6048 24.7792C2.78019 25.1305 3.09589 25.3062 3.5519 25.3062ZM23.5232 15.0991C23.1899 15.0991 22.8479 15.0991 22.4972 15.0991C22.1464 15.0807 21.7956 15.0621 21.4449 15.0436C21.2344 15.0436 21.094 15.0252 21.0239 14.9882C20.9537 14.9327 20.9187 14.8772 20.9187 14.8217C20.9187 14.7478 20.945 14.6831 20.9976 14.6276C21.0502 14.5721 21.0852 14.5351 21.1027 14.5166L21.0765 14.4334C21.1467 14.4519 21.1905 14.4796 21.2081 14.5166C21.2431 14.5351 21.2694 14.5444 21.287 14.5444L21.3133 14.5166H21.3396C21.4097 14.4796 21.5062 14.4612 21.629 14.4612C21.7166 14.4612 21.7956 14.4704 21.8658 14.4889C21.9359 14.4889 22.006 14.4889 22.0763 14.4889C22.2341 14.4889 22.392 14.4796 22.5498 14.4612C22.7252 14.4427 22.9005 14.4242 23.076 14.4057C23.111 14.4057 23.2162 14.3872 23.3917 14.3502C23.4443 14.3318 23.4881 14.3225 23.5232 14.3225C23.5758 14.304 23.6108 14.2763 23.6284 14.2393H23.8915C23.9792 14.2393 24.0581 14.2393 24.1283 14.2393C24.2159 14.2208 24.2685 14.1838 24.2861 14.1283C24.5492 14.1283 24.8035 14.1006 25.0491 14.0451C25.3122 13.9712 25.5753 13.9157 25.8383 13.8787C26.0137 13.8417 26.1715 13.7862 26.3119 13.7123C26.4697 13.6198 26.6451 13.5643 26.838 13.5459L27.6799 13.213C27.8202 13.1575 27.9254 13.0928 27.9956 13.0189C28.0832 12.9449 28.171 12.8709 28.2587 12.797C28.2937 12.7599 28.3288 12.7322 28.3639 12.7138C28.4165 12.6767 28.4692 12.649 28.5218 12.6305C28.8725 12.4457 29.1532 12.1868 29.3636 11.8539C29.5741 11.5211 29.732 11.1882 29.8372 10.8554C29.9424 10.5041 29.995 10.2452 29.995 10.0788C29.995 9.50558 29.7846 9.06176 29.3636 8.74741C28.9602 8.43306 28.4516 8.20193 27.8378 8.05399C27.2414 7.90606 26.6276 7.81361 25.9962 7.77663C25.3648 7.73964 24.8386 7.72115 24.4177 7.72115C24.2422 7.72115 24.0669 7.73964 23.8915 7.77663C23.7337 7.81361 23.567 7.85059 23.3917 7.88757C23.1286 7.94305 22.8567 7.97078 22.5761 7.97078C22.313 7.9523 22.0499 7.96153 21.7869 7.99852C20.6643 8.2389 19.5419 8.59948 18.4194 9.08025C17.3145 9.54249 16.3234 10.125 15.4466 10.8277C15.2361 10.9941 14.9905 11.2067 14.7099 11.4656C14.4293 11.706 14.1925 11.9649 13.9996 12.2422C13.8067 12.5196 13.7189 12.797 13.7365 13.0743C13.7365 13.1298 13.7803 13.213 13.8681 13.324C13.9557 13.4349 13.9996 13.5274 13.9996 13.6013C13.9996 13.6938 13.9294 13.74 13.7892 13.74C13.6137 13.6475 13.4735 13.4534 13.3681 13.1575C13.2805 12.8432 13.2366 12.6121 13.2366 12.4641C13.184 11.9278 13.2542 11.4009 13.4471 10.8831C13.6576 10.3469 14.0083 9.98628 14.4995 9.80141C14.6397 9.74593 14.7801 9.70891 14.9204 9.69046C15.0783 9.65344 15.2185 9.61653 15.3413 9.57951C15.5342 9.50558 15.7272 9.39464 15.9201 9.24667C16.1306 9.08025 16.3234 8.93232 16.4989 8.80289C16.6391 8.7844 16.7707 8.74741 16.8935 8.69194C17.0163 8.61798 17.139 8.5625 17.2618 8.52552C17.4372 8.45156 17.7266 8.34985 18.13 8.22041C18.5333 8.07248 18.9368 7.94305 19.3402 7.8321C19.7435 7.70267 20.0242 7.63794 20.1821 7.63794C20.3223 7.54549 20.4802 7.49001 20.6556 7.47152C20.831 7.43454 21.0063 7.41605 21.1818 7.41605C21.2694 7.36058 21.4185 7.31435 21.629 7.27737C21.8395 7.22189 21.9973 7.20341 22.1026 7.22189C22.1727 7.20341 22.3305 7.18491 22.5761 7.16642C22.8216 7.14793 23.0935 7.12943 23.3917 7.11095C23.6898 7.07396 23.9441 7.04622 24.1546 7.02774C24.3826 7.00925 24.4966 7 24.4966 7C24.9526 7 25.4174 7.00925 25.891 7.02774C26.382 7.02774 26.8556 7.09246 27.3116 7.22189C27.8553 7.35133 28.3989 7.57322 28.9427 7.88757C29.4864 8.18343 29.9511 8.5625 30.337 9.02478C30.7229 9.48702 30.9421 10.014 30.9948 10.6058C31.0123 10.9016 30.986 11.1882 30.9158 11.4656C30.8456 11.7245 30.7404 11.9741 30.6001 12.2145C30.2142 12.8986 29.653 13.4349 28.9164 13.8232C28.1798 14.2115 27.4255 14.5074 26.6538 14.7108C26.4784 14.7478 26.2943 14.794 26.1014 14.8495C25.9085 14.8865 25.7155 14.9142 25.5226 14.9327C25.1893 14.9511 24.8473 14.9882 24.4966 15.0436C24.1633 15.0807 23.8389 15.0991 23.5232 15.0991ZM19.919 20.591C19.6559 20.591 19.3577 20.4985 19.0245 20.3136C18.6912 20.1287 18.4018 19.8976 18.1563 19.6202C17.9107 19.3244 17.7704 19.047 17.7354 18.7881C17.7003 18.3073 17.788 17.8173 17.9985 17.318C18.2089 16.8003 18.4281 16.3473 18.6562 15.9589C18.8842 15.5522 18.9894 15.2748 18.9719 15.1268C19.0069 15.0898 19.0595 15.0436 19.1297 14.9882C19.2174 14.9142 19.2437 14.8588 19.2087 14.8217C19.6822 14.0081 20.1733 13.2315 20.6819 12.4919C20.7345 12.4179 20.7783 12.3439 20.8135 12.27C20.8485 12.1775 20.8924 12.0943 20.945 12.0203C21.0677 11.8539 21.1993 11.6968 21.3396 11.5488C21.4799 11.3824 21.6114 11.2253 21.7342 11.0773C21.9271 10.8184 22.1113 10.5596 22.2867 10.3007C22.4621 10.0233 22.6374 9.76439 22.8129 9.52404C22.9005 9.41309 23.0321 9.26513 23.2075 9.08025C23.4004 8.87685 23.4969 8.70119 23.4969 8.55325C23.4793 8.51627 23.4443 8.47004 23.3917 8.41457L23.3654 8.3591C23.2951 8.30362 23.2601 8.22966 23.2601 8.1372L23.339 8.05399C23.4443 8.07248 23.6459 8.12795 23.9441 8.22041C24.2598 8.31287 24.5492 8.44231 24.8123 8.60873C25.0754 8.77515 25.2069 8.97855 25.2069 9.21893C25.2069 9.40381 25.1104 9.59797 24.9175 9.80141C24.7421 9.98628 24.5404 10.1713 24.3125 10.3561C24.102 10.5226 23.9265 10.6797 23.7863 10.8277C23.3654 11.2899 22.883 11.8724 22.3393 12.5751C21.7956 13.2592 21.2694 13.9989 20.7608 14.794C20.2522 15.5706 19.8401 16.3565 19.5244 17.1516C19.2087 17.9467 19.0771 18.6956 19.1297 19.3983C19.1472 19.5463 19.191 19.7034 19.2613 19.8698C19.3314 20.0362 19.4541 20.1195 19.6296 20.1195L20.6556 19.4538C20.8485 19.3058 21.0239 19.1671 21.1818 19.0377C21.3571 18.9083 21.4449 18.7974 21.4449 18.7049H21.6816C21.6114 18.9083 21.5325 19.0655 21.4449 19.1764C21.3571 19.2689 21.2607 19.3983 21.1555 19.5647C20.9976 19.7866 20.8222 20.0085 20.6293 20.2304C20.4538 20.4707 20.2171 20.591 19.919 20.591Z" fill="white"/>
<path d="M3.42036 25.75C2.68373 25.75 2.09617 25.4819 1.65771 24.9456C1.21924 24.4094 1 23.7992 1 23.115C1 22.6158 1.07015 22.1165 1.21047 21.6172C1.35078 21.118 1.48232 20.6372 1.60509 20.1749C1.62263 20.1565 1.64017 20.1195 1.65771 20.064C1.67524 20.027 1.69279 19.9715 1.71032 19.8976C1.72786 19.8605 1.7454 19.8236 1.76294 19.7866C1.78048 19.7311 1.77171 19.6941 1.73663 19.6757C1.9471 19.4168 2.11372 19.1394 2.23649 18.8436C2.35926 18.5477 2.50834 18.2611 2.68373 17.9837C2.98189 17.5215 3.30635 17.0869 3.65713 16.6801C4.02545 16.2733 4.38499 15.8665 4.73577 15.4597L4.76208 15.4042C4.83223 15.3303 4.9024 15.2933 4.97255 15.2933C5.70918 14.4982 6.57735 13.7862 7.57706 13.1575C8.57678 12.5103 9.62031 12.0574 10.7077 11.7984C11.0586 11.6875 11.4093 11.632 11.7601 11.632C11.7952 11.4656 11.8127 11.2899 11.8127 11.105C11.8302 10.9202 11.8302 10.7352 11.8127 10.5503C11.7952 10.2914 11.725 9.97711 11.6022 9.60725C11.4795 9.23739 11.304 8.97855 11.0761 8.83062C10.9883 8.77515 10.8919 8.74741 10.7867 8.74741C10.6814 8.72892 10.5762 8.71968 10.471 8.71968C10.0852 8.71968 9.67292 8.7659 9.23449 8.85836C8.79602 8.95082 8.37509 8.99704 7.97169 8.99704C7.77876 8.99704 7.57706 8.94157 7.3666 8.83062C7.17367 8.71967 7.07721 8.52552 7.07721 8.24815C7.07721 7.98927 7.20875 7.81361 7.47183 7.72115C7.75245 7.61021 7.998 7.55473 8.20846 7.55473C8.50663 7.55473 8.80478 7.57322 9.10294 7.61021C9.40111 7.64719 9.69053 7.66568 9.97112 7.66568C10.6551 7.68417 11.3391 7.70267 12.0232 7.72115C12.7072 7.72115 13.3912 7.72115 14.0752 7.72115C14.2682 7.72115 14.4698 7.7119 14.6803 7.69342C14.8908 7.67493 15.0924 7.66568 15.2854 7.66568L15.3117 7.63794C15.5573 7.61946 15.794 7.60096 16.022 7.58247C16.2676 7.56398 16.5044 7.51775 16.7323 7.44379C16.7675 7.49926 16.785 7.54549 16.785 7.58247C16.785 7.63794 16.706 7.7119 16.5482 7.80436C16.4078 7.89682 16.3202 7.9523 16.2851 7.97078C16.022 8.06324 15.7501 8.11872 15.4695 8.1372C15.189 8.1372 14.9171 8.15569 14.654 8.19268C14.3383 8.22966 14.0314 8.31287 13.7332 8.44231C13.4526 8.55325 13.1544 8.60873 12.8387 8.60873C12.6283 8.60873 12.4178 8.60873 12.2073 8.60873C11.9969 8.59024 11.7864 8.57174 11.5759 8.55325C11.7163 8.60873 11.8565 8.6642 11.9969 8.71968C12.1547 8.77515 12.2424 8.80289 12.2599 8.80289C12.4003 8.85836 12.5756 8.97855 12.7861 9.16346C12.9966 9.32988 13.1807 9.51476 13.3386 9.7182C13.5139 9.92163 13.6017 10.0881 13.6017 10.2175C13.6192 10.3284 13.628 10.4393 13.628 10.5503C13.628 10.6428 13.628 10.7352 13.628 10.8277C13.628 10.9016 13.628 10.9941 13.628 11.105C13.628 11.1975 13.6105 11.2992 13.5753 11.4101H13.6017V11.4656C13.742 11.4656 13.9437 11.4841 14.2067 11.5211C14.4873 11.5581 14.7504 11.6043 14.996 11.6598C15.2416 11.7152 15.3731 11.78 15.3906 11.8539L15.4695 12.0758H15.4169V12.1036H15.2065C15.1187 12.0481 15.0135 12.0203 14.8908 12.0203C14.7855 12.0019 14.6891 11.9926 14.6014 11.9926C14.1804 11.9926 13.8296 12.1683 13.549 12.5196C13.4789 12.7785 13.3824 13.0281 13.2596 13.2685C13.1544 13.5088 13.058 13.7678 12.9703 14.0451C12.8825 14.4519 12.7949 14.8588 12.7072 15.2655C12.6371 15.6538 12.5055 16.0329 12.3126 16.4027C12.1722 16.6986 12.0232 16.9945 11.8653 17.2903C11.7075 17.5861 11.5496 17.8821 11.3918 18.1779C11.3216 18.3073 11.2427 18.446 11.155 18.5939C11.0849 18.7233 11.0146 18.862 10.9445 19.01C10.9094 19.0839 10.8744 19.1671 10.8393 19.2596C10.8218 19.3521 10.7955 19.4445 10.7604 19.537C10.7429 19.5554 10.6551 19.6664 10.4973 19.8698C10.3394 20.0917 10.1641 20.3321 9.97112 20.591C9.77816 20.8499 9.594 21.0902 9.41864 21.3121C9.26079 21.534 9.1731 21.6634 9.15556 21.7004C8.98018 21.9223 8.79602 22.1165 8.60309 22.2829C8.41016 22.4678 8.23477 22.6712 8.07692 22.8931L8.05061 22.9763C7.92784 23.0503 7.75245 23.1798 7.52445 23.3646C7.31398 23.5681 7.16491 23.7159 7.07721 23.8084C6.79659 24.0858 6.45458 24.3724 6.05119 24.6683C5.64779 24.9827 5.21809 25.2415 4.76208 25.4449C4.30607 25.6483 3.85883 25.75 3.42036 25.75ZM3.5519 25.3062C3.92022 25.1582 4.26222 25.0011 4.57792 24.8347C4.89362 24.6683 5.20055 24.4648 5.49871 24.2245C5.69164 24.0765 5.85826 23.9101 5.99857 23.7252C6.15642 23.5403 6.32304 23.3646 6.49843 23.1982C7.32276 22.3106 8.04184 21.3491 8.6557 20.3136C9.26957 19.2966 9.82207 18.2426 10.3131 17.1516L10.6288 16.4582C10.7516 16.1808 10.8393 15.996 10.8919 15.9035C10.8744 15.7186 10.9094 15.5336 10.9971 15.3487C11.1024 15.1639 11.1725 14.9882 11.2076 14.8217C11.3128 14.3595 11.4006 13.9619 11.4707 13.6291C11.5584 13.2778 11.6373 12.8802 11.7075 12.4364C11.5671 12.3994 11.3743 12.3994 11.1287 12.4364C10.8831 12.4734 10.6463 12.5196 10.4184 12.5751C10.1904 12.6305 10.0237 12.686 9.9185 12.7415C9.46249 12.9449 9.04155 13.1946 8.6557 13.4904C8.26985 13.7862 7.88399 14.0913 7.49814 14.4057C7.37537 14.5166 7.23506 14.6276 7.07721 14.7385C6.91936 14.8495 6.77028 14.9697 6.62997 15.0991C6.47212 15.2285 6.32304 15.358 6.18273 15.4874C6.04241 15.5984 5.91964 15.7186 5.81441 15.848C5.76179 15.9219 5.70918 16.0051 5.65656 16.0976C5.60395 16.1716 5.55133 16.2456 5.49871 16.3195C5.00763 16.9668 4.56915 17.5677 4.1833 18.1224C3.81498 18.6771 3.49051 19.3428 3.20989 20.1195C3.17481 20.2304 3.1222 20.3413 3.05204 20.4523C2.99943 20.5632 2.95558 20.6649 2.9205 20.7574C2.81527 20.9977 2.6925 21.3861 2.55219 21.9223C2.42942 22.4771 2.36803 23.0225 2.36803 23.5588C2.36803 24.021 2.44695 24.4279 2.6048 24.7792C2.78019 25.1305 3.09589 25.3062 3.5519 25.3062ZM23.5232 15.0991C23.1899 15.0991 22.8479 15.0991 22.4972 15.0991C22.1464 15.0807 21.7956 15.0621 21.4449 15.0436C21.2344 15.0436 21.094 15.0252 21.0239 14.9882C20.9537 14.9327 20.9187 14.8772 20.9187 14.8217C20.9187 14.7478 20.945 14.6831 20.9976 14.6276C21.0502 14.5721 21.0852 14.5351 21.1027 14.5166L21.0765 14.4334C21.1467 14.4519 21.1905 14.4796 21.2081 14.5166C21.2431 14.5351 21.2694 14.5444 21.287 14.5444L21.3133 14.5166H21.3396C21.4097 14.4796 21.5062 14.4612 21.629 14.4612C21.7166 14.4612 21.7956 14.4704 21.8658 14.4889C21.9359 14.4889 22.006 14.4889 22.0763 14.4889C22.2341 14.4889 22.392 14.4796 22.5498 14.4612C22.7252 14.4427 22.9005 14.4242 23.076 14.4057C23.111 14.4057 23.2162 14.3872 23.3917 14.3502C23.4443 14.3318 23.4881 14.3225 23.5232 14.3225C23.5758 14.304 23.6108 14.2763 23.6284 14.2393H23.8915C23.9792 14.2393 24.0581 14.2393 24.1283 14.2393C24.2159 14.2208 24.2685 14.1838 24.2861 14.1283C24.5492 14.1283 24.8035 14.1006 25.0491 14.0451C25.3122 13.9712 25.5753 13.9157 25.8383 13.8787C26.0137 13.8417 26.1715 13.7862 26.3119 13.7123C26.4697 13.6198 26.6451 13.5643 26.838 13.5459L27.6799 13.213C27.8202 13.1575 27.9254 13.0928 27.9956 13.0189C28.0832 12.9449 28.171 12.8709 28.2587 12.797C28.2937 12.7599 28.3288 12.7322 28.3639 12.7138C28.4165 12.6767 28.4692 12.649 28.5218 12.6305C28.8725 12.4457 29.1532 12.1868 29.3636 11.8539C29.5741 11.5211 29.732 11.1882 29.8372 10.8554C29.9424 10.5041 29.995 10.2452 29.995 10.0788C29.995 9.50558 29.7846 9.06176 29.3636 8.74741C28.9602 8.43306 28.4516 8.20193 27.8378 8.05399C27.2414 7.90606 26.6276 7.81361 25.9962 7.77663C25.3648 7.73964 24.8386 7.72115 24.4177 7.72115C24.2422 7.72115 24.0669 7.73964 23.8915 7.77663C23.7337 7.81361 23.567 7.85059 23.3917 7.88757C23.1286 7.94305 22.8567 7.97078 22.5761 7.97078C22.313 7.9523 22.0499 7.96153 21.7869 7.99852C20.6643 8.2389 19.5419 8.59948 18.4194 9.08025C17.3145 9.54249 16.3234 10.125 15.4466 10.8277C15.2361 10.9941 14.9905 11.2067 14.7099 11.4656C14.4293 11.706 14.1925 11.9649 13.9996 12.2422C13.8067 12.5196 13.7189 12.797 13.7365 13.0743C13.7365 13.1298 13.7803 13.213 13.8681 13.324C13.9557 13.4349 13.9996 13.5274 13.9996 13.6013C13.9996 13.6938 13.9294 13.74 13.7892 13.74C13.6137 13.6475 13.4735 13.4534 13.3681 13.1575C13.2805 12.8432 13.2366 12.6121 13.2366 12.4641C13.184 11.9278 13.2542 11.4009 13.4471 10.8831C13.6576 10.3469 14.0083 9.98628 14.4995 9.80141C14.6397 9.74593 14.7801 9.70891 14.9204 9.69046C15.0783 9.65344 15.2185 9.61653 15.3413 9.57951C15.5342 9.50558 15.7272 9.39464 15.9201 9.24667C16.1306 9.08025 16.3234 8.93232 16.4989 8.80289C16.6391 8.7844 16.7707 8.74741 16.8935 8.69194C17.0163 8.61798 17.139 8.5625 17.2618 8.52552C17.4372 8.45156 17.7266 8.34985 18.13 8.22041C18.5333 8.07248 18.9368 7.94305 19.3402 7.8321C19.7435 7.70267 20.0242 7.63794 20.1821 7.63794C20.3223 7.54549 20.4802 7.49001 20.6556 7.47152C20.831 7.43454 21.0063 7.41605 21.1818 7.41605C21.2694 7.36058 21.4185 7.31435 21.629 7.27737C21.8395 7.22189 21.9973 7.20341 22.1026 7.22189C22.1727 7.20341 22.3305 7.18491 22.5761 7.16642C22.8216 7.14793 23.0935 7.12943 23.3917 7.11095C23.6898 7.07396 23.9441 7.04622 24.1546 7.02774C24.3826 7.00925 24.4966 7 24.4966 7C24.9526 7 25.4174 7.00925 25.891 7.02774C26.382 7.02774 26.8556 7.09246 27.3116 7.22189C27.8553 7.35133 28.3989 7.57322 28.9427 7.88757C29.4864 8.18343 29.9511 8.5625 30.337 9.02478C30.7229 9.48702 30.9421 10.014 30.9948 10.6058C31.0123 10.9016 30.986 11.1882 30.9158 11.4656C30.8456 11.7245 30.7404 11.9741 30.6001 12.2145C30.2142 12.8986 29.653 13.4349 28.9164 13.8232C28.1798 14.2115 27.4255 14.5074 26.6538 14.7108C26.4784 14.7478 26.2943 14.794 26.1014 14.8495C25.9085 14.8865 25.7155 14.9142 25.5226 14.9327C25.1893 14.9511 24.8473 14.9882 24.4966 15.0436C24.1633 15.0807 23.8389 15.0991 23.5232 15.0991ZM19.919 20.591C19.6559 20.591 19.3577 20.4985 19.0245 20.3136C18.6912 20.1287 18.4018 19.8976 18.1563 19.6202C17.9107 19.3244 17.7704 19.047 17.7354 18.7881C17.7003 18.3073 17.788 17.8173 17.9985 17.318C18.2089 16.8003 18.4281 16.3473 18.6562 15.9589C18.8842 15.5522 18.9894 15.2748 18.9719 15.1268C19.0069 15.0898 19.0595 15.0436 19.1297 14.9882C19.2174 14.9142 19.2437 14.8588 19.2087 14.8217C19.6822 14.0081 20.1733 13.2315 20.6819 12.4919C20.7345 12.4179 20.7783 12.3439 20.8135 12.27C20.8485 12.1775 20.8924 12.0943 20.945 12.0203C21.0677 11.8539 21.1993 11.6968 21.3396 11.5488C21.4799 11.3824 21.6114 11.2253 21.7342 11.0773C21.9271 10.8184 22.1113 10.5596 22.2867 10.3007C22.4621 10.0233 22.6374 9.76439 22.8129 9.52404C22.9005 9.41309 23.0321 9.26513 23.2075 9.08025C23.4004 8.87685 23.4969 8.70119 23.4969 8.55325C23.4793 8.51627 23.4443 8.47004 23.3917 8.41457L23.3654 8.3591C23.2951 8.30362 23.2601 8.22966 23.2601 8.1372L23.339 8.05399C23.4443 8.07248 23.6459 8.12795 23.9441 8.22041C24.2598 8.31287 24.5492 8.44231 24.8123 8.60873C25.0754 8.77515 25.2069 8.97855 25.2069 9.21893C25.2069 9.40381 25.1104 9.59797 24.9175 9.80141C24.7421 9.98628 24.5404 10.1713 24.3125 10.3561C24.102 10.5226 23.9265 10.6797 23.7863 10.8277C23.3654 11.2899 22.883 11.8724 22.3393 12.5751C21.7956 13.2592 21.2694 13.9989 20.7608 14.794C20.2522 15.5706 19.8401 16.3565 19.5244 17.1516C19.2087 17.9467 19.0771 18.6956 19.1297 19.3983C19.1472 19.5463 19.191 19.7034 19.2613 19.8698C19.3314 20.0362 19.4541 20.1195 19.6296 20.1195L20.6556 19.4538C20.8485 19.3058 21.0239 19.1671 21.1818 19.0377C21.3571 18.9083 21.4449 18.7974 21.4449 18.7049H21.6816C21.6114 18.9083 21.5325 19.0655 21.4449 19.1764C21.3571 19.2689 21.2607 19.3983 21.1555 19.5647C20.9976 19.7866 20.8222 20.0085 20.6293 20.2304C20.4538 20.4707 20.2171 20.591 19.919 20.591Z" stroke="white" stroke-width="0.8" mask="url(#path-2-outside-1_338_336)"/>
</g>
</g>
<defs>
<filter id="filter0_d_338_336" x="0.600098" y="6.60001" width="31.7998" height="20.55" filterUnits="userSpaceOnUse" color-interpolation-filters="sRGB">
<feFlood flood-opacity="0" result="BackgroundImageFix"/>
<feColorMatrix in="SourceAlpha" type="matrix" values="0 0 0 0 0 0 0 0 0 0 0 0 0 0 0 0 0 0 127 0" result="hardAlpha"/>
<feOffset dx="1" dy="1"/>
<feComposite in2="hardAlpha" operator="out"/>
<feColorMatrix type="matrix" values="0 0 0 0 1 0 0 0 0 1 0 0 0 0 1 0 0 0 0.3 0"/>
<feBlend mode="normal" in2="BackgroundImageFix" result="effect1_dropShadow_338_336"/>
<feBlend mode="normal" in="SourceGraphic" in2="effect1_dropShadow_338_336" result="shape"/>
</filter>
<linearGradient id="paint0_linear_338_336" x1="16" y1="0" x2="16" y2="32" gradientUnits="userSpaceOnUse">
<stop stop-color="#2196F3"/>
<stop offset="1" stop-color="#EC407A"/>
</linearGradient>
<clipPath id="clip0_338_336">
<rect width="32" height="32" rx="6" fill="white"/>
</clipPath>
</defs>
</svg>
