<svg width="42" height="42" viewBox="0 0 42 42" fill="none" xmlns="http://www.w3.org/2000/svg">
<g filter="url(#filter0_d_320_230)">
<rect x="4" y="4" width="32" height="32" rx="6" fill="#4DABF5"/>
<g filter="url(#filter1_d_320_230)">
<path d="M7.33968 29.125C6.6276 29.125 6.05963 28.8659 5.63578 28.3474C5.21193 27.829 5 27.2392 5 26.5778C5 26.0952 5.06781 25.6126 5.20345 25.13C5.33909 24.6474 5.46624 24.1826 5.58492 23.7358C5.60187 23.7179 5.61883 23.6821 5.63578 23.6285C5.65273 23.5927 5.66969 23.5391 5.68665 23.4676C5.7036 23.4319 5.72056 23.3962 5.73751 23.3604C5.75446 23.3068 5.74599 23.271 5.71208 23.2531C5.91553 23.0029 6.0766 22.7347 6.19527 22.4488C6.31395 22.1628 6.45807 21.8857 6.6276 21.6176C6.91583 21.1708 7.22948 20.7506 7.56856 20.3574C7.9246 19.9642 8.27216 19.5709 8.61125 19.1777L8.63668 19.1241C8.70449 19.0526 8.77232 19.0168 8.84013 19.0168C9.55221 18.2482 10.3914 17.56 11.3578 16.9523C12.3242 16.3266 13.333 15.8888 14.3842 15.6385C14.7233 15.5312 15.0623 15.4776 15.4014 15.4776C15.4354 15.3168 15.4523 15.1469 15.4523 14.9682C15.4692 14.7895 15.4692 14.6107 15.4523 14.432C15.4354 14.1817 15.3675 13.8779 15.2488 13.5203C15.1302 13.1628 14.9606 12.9126 14.7402 12.7696C14.6554 12.716 14.5622 12.6892 14.4605 12.6892C14.3587 12.6713 14.257 12.6624 14.1553 12.6624C13.7823 12.6624 13.3838 12.707 12.96 12.7964C12.5362 12.8858 12.1292 12.9305 11.7393 12.9305C11.5528 12.9305 11.3578 12.8768 11.1544 12.7696C10.9679 12.6624 10.8746 12.4747 10.8746 12.2065C10.8746 11.9563 11.0018 11.7865 11.2561 11.6971C11.5274 11.5899 11.7647 11.5362 11.9682 11.5362C12.2564 11.5362 12.5446 11.5541 12.8328 11.5899C13.1211 11.6256 13.4008 11.6435 13.6721 11.6435C14.3333 11.6614 14.9945 11.6792 15.6557 11.6971C16.3169 11.6971 16.9782 11.6971 17.6394 11.6971C17.8259 11.6971 18.0208 11.6882 18.2243 11.6703C18.4277 11.6524 18.6227 11.6435 18.8092 11.6435L18.8346 11.6167C19.072 11.5988 19.3009 11.5809 19.5213 11.5631C19.7587 11.5452 19.9876 11.5005 20.2079 11.429C20.2419 11.4826 20.2588 11.5273 20.2588 11.5631C20.2588 11.6167 20.1825 11.6882 20.0299 11.7776C19.8942 11.8669 19.8095 11.9206 19.7756 11.9384C19.5213 12.0278 19.2585 12.0814 18.9872 12.0993C18.716 12.0993 18.4532 12.1172 18.1989 12.1529C17.8937 12.1887 17.597 12.2691 17.3088 12.3942C17.0375 12.5015 16.7493 12.5551 16.4441 12.5551C16.2406 12.5551 16.0372 12.5551 15.8337 12.5551C15.6303 12.5372 15.4268 12.5194 15.2234 12.5015C15.3591 12.5551 15.4946 12.6087 15.6303 12.6624C15.7829 12.716 15.8677 12.7428 15.8846 12.7428C16.0203 12.7964 16.1898 12.9126 16.3932 13.0913C16.5967 13.2522 16.7747 13.4309 16.9273 13.6276C17.0968 13.8242 17.1816 13.9851 17.1816 14.1102C17.1985 14.2175 17.207 14.3247 17.207 14.432C17.207 14.5214 17.207 14.6107 17.207 14.7001C17.207 14.7715 17.207 14.8609 17.207 14.9682C17.207 15.0576 17.1901 15.1559 17.1562 15.2631H17.1816V15.3168C17.3173 15.3168 17.5122 15.3346 17.7665 15.3704C18.0378 15.4062 18.2921 15.4508 18.5295 15.5044C18.7669 15.5581 18.894 15.6207 18.9109 15.6921L18.9872 15.9066H18.9364V15.9334H18.7329C18.6481 15.8798 18.5464 15.853 18.4277 15.853C18.326 15.8352 18.2328 15.8262 18.148 15.8262C17.7411 15.8262 17.402 15.996 17.1307 16.3356C17.063 16.5859 16.9696 16.8272 16.851 17.0595C16.7493 17.2919 16.6561 17.5422 16.5712 17.8103C16.4864 18.2035 16.4017 18.5968 16.3169 18.99C16.2492 19.3654 16.122 19.7318 15.9355 20.0893C15.7998 20.3753 15.6557 20.6613 15.5031 20.9473C15.3505 21.2333 15.198 21.5193 15.0454 21.8053C14.9776 21.9304 14.9013 22.0644 14.8165 22.2075C14.7487 22.3326 14.6808 22.4666 14.613 22.6097C14.5791 22.6811 14.5453 22.7616 14.5113 22.851C14.4944 22.9404 14.469 23.0297 14.435 23.1191C14.4181 23.1369 14.3333 23.2442 14.1807 23.4408C14.0281 23.6553 13.8586 23.8877 13.6721 24.1379C13.4856 24.3882 13.3075 24.6206 13.138 24.8351C12.9854 25.0496 12.9007 25.1746 12.8837 25.2104C12.7142 25.4249 12.5361 25.6126 12.3497 25.7735C12.1632 25.9522 11.9936 26.1489 11.841 26.3634L11.8156 26.4438C11.6969 26.5153 11.5274 26.6404 11.307 26.8192C11.1035 27.0158 10.9594 27.1587 10.8746 27.2481C10.6034 27.5163 10.2728 27.7934 9.88281 28.0793C9.49286 28.3832 9.07749 28.6334 8.63668 28.8301C8.19587 29.0267 7.76353 29.125 7.33968 29.125ZM7.46684 28.696C7.82288 28.553 8.15348 28.4011 8.45866 28.2402C8.76383 28.0793 9.06053 27.8827 9.34876 27.6503C9.53526 27.5073 9.69631 27.3464 9.83195 27.1677C9.98454 26.989 10.1456 26.8192 10.3151 26.6583C11.112 25.8003 11.8071 24.8708 12.4005 23.8698C12.9939 22.8867 13.528 21.8679 14.0027 20.8132L14.3079 20.1429C14.4265 19.8748 14.5113 19.6961 14.5622 19.6067C14.5453 19.428 14.5791 19.2492 14.6639 19.0705C14.7656 18.8917 14.8334 18.7219 14.8674 18.561C14.9691 18.1142 15.0539 17.7298 15.1217 17.4081C15.2065 17.0685 15.2828 16.6842 15.3505 16.2552C15.2149 16.2194 15.0284 16.2194 14.7911 16.2552C14.5537 16.291 14.3248 16.3356 14.1044 16.3892C13.884 16.4429 13.7229 16.4965 13.6212 16.5501C13.1804 16.7468 12.7735 16.9881 12.4005 17.274C12.0275 17.56 11.6545 17.8549 11.2815 18.1588C11.1629 18.2661 11.0272 18.3733 10.8746 18.4806C10.722 18.5878 10.5779 18.7041 10.4423 18.8291C10.2897 18.9542 10.1456 19.0794 10.01 19.2045C9.87433 19.3118 9.75566 19.428 9.65393 19.5531C9.60307 19.6245 9.55221 19.705 9.50134 19.7944C9.45048 19.8658 9.39962 19.9374 9.34876 20.0089C8.87404 20.6345 8.45018 21.2154 8.07719 21.7517C7.72115 22.2879 7.40749 22.9314 7.13623 23.6821C7.10232 23.7894 7.05146 23.8966 6.98364 24.0039C6.93278 24.1111 6.8904 24.2094 6.85649 24.2988C6.75476 24.5312 6.63608 24.9065 6.50045 25.4249C6.38177 25.9612 6.32243 26.4884 6.32243 27.0068C6.32243 27.4537 6.39872 27.847 6.55131 28.1866C6.72085 28.5262 7.02602 28.696 7.46684 28.696ZM26.7724 18.8291C26.4502 18.8291 26.1196 18.8291 25.7806 18.8291C25.4415 18.8113 25.1024 18.7934 24.7634 18.7755C24.5599 18.7755 24.4242 18.7577 24.3565 18.7219C24.2886 18.6683 24.2547 18.6146 24.2547 18.561C24.2547 18.4896 24.2802 18.427 24.331 18.3733C24.3819 18.3197 24.4157 18.2839 24.4327 18.2661L24.4073 18.1857C24.4751 18.2035 24.5175 18.2303 24.5345 18.2661C24.5683 18.2839 24.5938 18.2929 24.6108 18.2929L24.6362 18.2661H24.6616C24.7294 18.2303 24.8226 18.2125 24.9414 18.2125C25.0261 18.2125 25.1024 18.2214 25.1703 18.2393C25.238 18.2393 25.3058 18.2393 25.3737 18.2393C25.5263 18.2393 25.6789 18.2303 25.8315 18.2125C26.001 18.1946 26.1705 18.1767 26.3401 18.1588C26.3739 18.1588 26.4757 18.141 26.6453 18.1052C26.6961 18.0874 26.7385 18.0784 26.7724 18.0784C26.8233 18.0606 26.8571 18.0337 26.8742 17.998H27.1285C27.2132 17.998 27.2895 17.998 27.3574 17.998C27.4421 17.9801 27.4929 17.9443 27.5099 17.8907C27.7643 17.8907 28.0101 17.8639 28.2475 17.8103C28.5018 17.7388 28.7561 17.6852 29.0104 17.6494C29.1799 17.6136 29.3325 17.56 29.4682 17.4885C29.6207 17.3991 29.7903 17.3455 29.9768 17.3277L30.7906 17.0059C30.9262 16.9523 31.0279 16.8897 31.0958 16.8182C31.1805 16.7468 31.2653 16.6752 31.3501 16.6037C31.3839 16.568 31.4179 16.5411 31.4518 16.5233C31.5027 16.4875 31.5535 16.4607 31.6044 16.4429C31.9434 16.2641 32.2147 16.0139 32.4182 15.6921C32.6216 15.3704 32.7742 15.0486 32.876 14.7269C32.9777 14.3873 33.0285 14.137 33.0285 13.9761C33.0285 13.4221 32.8251 12.993 32.4182 12.6892C32.0282 12.3853 31.5365 12.1619 30.9432 12.0189C30.3667 11.8759 29.7733 11.7865 29.163 11.7507C28.5526 11.715 28.044 11.6971 27.6371 11.6971C27.4675 11.6971 27.298 11.715 27.1285 11.7507C26.9759 11.7865 26.8148 11.8222 26.6453 11.858C26.391 11.9116 26.1281 11.9384 25.8569 11.9384C25.6026 11.9206 25.3483 11.9295 25.094 11.9652C24.0088 12.1976 22.9238 12.5462 21.8388 13.0109C20.7706 13.4577 19.8127 14.0208 18.965 14.7001C18.7616 14.8609 18.5242 15.0665 18.2529 15.3168C17.9816 15.5491 17.7527 15.7994 17.5663 16.0675C17.3798 16.3356 17.295 16.6037 17.312 16.8719C17.312 16.9255 17.3543 17.0059 17.4391 17.1132C17.5238 17.2204 17.5663 17.3098 17.5663 17.3813C17.5663 17.4707 17.4984 17.5153 17.3628 17.5153C17.1932 17.4259 17.0577 17.2383 16.9559 16.9523C16.8711 16.6484 16.8287 16.425 16.8287 16.282C16.7778 15.7636 16.8457 15.2542 17.0322 14.7537C17.2357 14.2353 17.5747 13.8867 18.0495 13.708C18.1851 13.6544 18.3207 13.6186 18.4564 13.6008C18.609 13.565 18.7446 13.5293 18.8633 13.4935C19.0497 13.4221 19.2363 13.3148 19.4228 13.1718C19.6262 13.0109 19.8127 12.8679 19.9823 12.7428C20.1178 12.7249 20.245 12.6892 20.3637 12.6355C20.4824 12.564 20.601 12.5104 20.7198 12.4747C20.8893 12.4032 21.169 12.3049 21.559 12.1797C21.9489 12.0367 22.3389 11.9116 22.7289 11.8044C23.1187 11.6792 23.3901 11.6167 23.5427 11.6167C23.6782 11.5273 23.8308 11.4737 24.0004 11.4558C24.1699 11.4201 24.3394 11.4022 24.509 11.4022C24.5938 11.3486 24.7379 11.3039 24.9414 11.2681C25.1448 11.2145 25.2974 11.1966 25.3991 11.2145C25.4669 11.1966 25.6195 11.1787 25.8569 11.1609C26.0942 11.143 26.357 11.1251 26.6453 11.1072C26.9334 11.0715 27.1793 11.0447 27.3828 11.0268C27.6032 11.0089 27.7134 11 27.7134 11C28.1541 11 28.6035 11.0089 29.0613 11.0268C29.5359 11.0268 29.9937 11.0894 30.4345 11.2145C30.9601 11.3396 31.4856 11.5541 32.0113 11.858C32.5368 12.144 32.9861 12.5104 33.3591 12.9573C33.7321 13.4041 33.9441 13.9136 33.9949 14.4856C34.0119 14.7715 33.9864 15.0486 33.9186 15.3168C33.8508 15.567 33.749 15.8083 33.6135 16.0407C33.2404 16.702 32.6979 17.2204 31.9859 17.5958C31.2738 17.9712 30.5447 18.2571 29.7987 18.4538C29.6292 18.4896 29.4511 18.5342 29.2647 18.5878C29.0782 18.6236 28.8916 18.6504 28.7052 18.6683C28.383 18.6861 28.0524 18.7219 27.7134 18.7755C27.3912 18.8113 27.0776 18.8291 26.7724 18.8291ZM23.2883 24.1379C23.034 24.1379 22.7458 24.0485 22.4237 23.8698C22.1015 23.6911 21.8217 23.4676 21.5844 23.1995C21.3471 22.9136 21.2114 22.6454 21.1775 22.3952C21.1436 21.9304 21.2284 21.4567 21.4319 20.9741C21.6353 20.4737 21.8472 20.0357 22.0676 19.6603C22.288 19.2671 22.3897 18.999 22.3728 18.856C22.4067 18.8202 22.4575 18.7755 22.5254 18.7219C22.6101 18.6504 22.6355 18.5968 22.6017 18.561C23.0595 17.7745 23.5341 17.0238 24.0259 16.3088C24.0767 16.2373 24.1191 16.1658 24.153 16.0943C24.1869 16.0049 24.2293 15.9245 24.2802 15.853C24.3988 15.6921 24.526 15.5402 24.6616 15.3972C24.7972 15.2363 24.9244 15.0844 25.0431 14.9414C25.2295 14.6911 25.4076 14.4409 25.5772 14.1906C25.7467 13.9225 25.9162 13.6722 26.0858 13.4399C26.1705 13.3327 26.2977 13.1896 26.4673 13.0109C26.6537 12.8143 26.747 12.6445 26.747 12.5015C26.73 12.4657 26.6961 12.421 26.6453 12.3674L26.6198 12.3138C26.552 12.2602 26.5181 12.1887 26.5181 12.0993L26.5944 12.0189C26.6961 12.0367 26.8911 12.0904 27.1793 12.1797C27.4845 12.2691 27.7643 12.3942 28.0186 12.5551C28.2729 12.716 28.4 12.9126 28.4 13.145C28.4 13.3237 28.3067 13.5114 28.1203 13.708C27.9507 13.8867 27.7557 14.0656 27.5354 14.2443C27.3319 14.4051 27.1623 14.557 27.0267 14.7001C26.6198 15.1469 26.1536 15.71 25.628 16.3892C25.1024 17.0506 24.5938 17.7656 24.1021 18.5342C23.6104 19.2849 23.212 20.0447 22.9069 20.8132C22.6017 21.5818 22.4745 22.3057 22.5254 22.985C22.5423 23.1281 22.5847 23.28 22.6526 23.4408C22.7203 23.6017 22.839 23.6821 23.0086 23.6821L24.0004 23.0386C24.1869 22.8956 24.3565 22.7616 24.509 22.6365C24.6786 22.5114 24.7634 22.4041 24.7634 22.3147H24.9922C24.9244 22.5114 24.8481 22.6633 24.7634 22.7705C24.6786 22.8599 24.5853 22.985 24.4836 23.1459C24.331 23.3604 24.1614 23.5749 23.975 23.7894C23.8054 24.0217 23.5765 24.1379 23.2883 24.1379Z" fill="white"/>
</g>
<rect x="3.5" y="3.5" width="33" height="33" rx="6.5" stroke="#DDDDDD"/>
</g>
<defs>
<filter id="filter0_d_320_230" x="0" y="0" width="42" height="42" filterUnits="userSpaceOnUse" color-interpolation-filters="sRGB">
<feFlood flood-opacity="0" result="BackgroundImageFix"/>
<feColorMatrix in="SourceAlpha" type="matrix" values="0 0 0 0 0 0 0 0 0 0 0 0 0 0 0 0 0 0 127 0" result="hardAlpha"/>
<feOffset dx="1" dy="1"/>
<feGaussianBlur stdDeviation="2"/>
<feComposite in2="hardAlpha" operator="out"/>
<feColorMatrix type="matrix" values="0 0 0 0 0 0 0 0 0 0 0 0 0 0 0 0 0 0 0.45 0"/>
<feBlend mode="normal" in2="BackgroundImageFix" result="effect1_dropShadow_320_230"/>
<feBlend mode="normal" in="SourceGraphic" in2="effect1_dropShadow_320_230" result="shape"/>
</filter>
<filter id="filter1_d_320_230" x="5" y="11" width="30" height="19.125" filterUnits="userSpaceOnUse" color-interpolation-filters="sRGB">
<feFlood flood-opacity="0" result="BackgroundImageFix"/>
<feColorMatrix in="SourceAlpha" type="matrix" values="0 0 0 0 0 0 0 0 0 0 0 0 0 0 0 0 0 0 127 0" result="hardAlpha"/>
<feOffset dx="1" dy="1"/>
<feComposite in2="hardAlpha" operator="out"/>
<feColorMatrix type="matrix" values="0 0 0 0 0 0 0 0 0 0 0 0 0 0 0 0 0 0 0.33 0"/>
<feBlend mode="normal" in2="BackgroundImageFix" result="effect1_dropShadow_320_230"/>
<feBlend mode="normal" in="SourceGraphic" in2="effect1_dropShadow_320_230" result="shape"/>
</filter>
</defs>
</svg>
