<svg width="136" height="32" viewBox="0 0 136 32" fill="none" xmlns="http://www.w3.org/2000/svg">
<g filter="url(#filter0_d_335_327)">
<g filter="url(#filter1_d_335_327)">
<path d="M4.4 27.88C3.504 27.88 2.78933 27.5707 2.256 26.952C1.72267 26.3333 1.456 25.6293 1.456 24.84C1.456 24.264 1.54133 23.688 1.712 23.112C1.88267 22.536 2.04267 21.9813 2.192 21.448C2.21333 21.4267 2.23467 21.384 2.256 21.32C2.27733 21.2773 2.29867 21.2133 2.32 21.128C2.34133 21.0853 2.36267 21.0427 2.384 21C2.40533 20.936 2.39467 20.8933 2.352 20.872C2.608 20.5733 2.81067 20.2533 2.96 19.912C3.10933 19.5707 3.29067 19.24 3.504 18.92C3.86667 18.3867 4.26133 17.8853 4.688 17.416C5.136 16.9467 5.57333 16.4773 6 16.008L6.032 15.944C6.11733 15.8587 6.20267 15.816 6.288 15.816C7.184 14.8987 8.24 14.0773 9.456 13.352C10.672 12.6053 11.9413 12.0827 13.264 11.784C13.6907 11.656 14.1173 11.592 14.544 11.592C14.5867 11.4 14.608 11.1973 14.608 10.984C14.6293 10.7707 14.6293 10.5573 14.608 10.344C14.5867 10.0453 14.5013 9.68267 14.352 9.256C14.2027 8.82933 13.9893 8.53067 13.712 8.36C13.6053 8.296 13.488 8.264 13.36 8.264C13.232 8.24267 13.104 8.232 12.976 8.232C12.5067 8.232 12.0053 8.28533 11.472 8.392C10.9387 8.49867 10.4267 8.552 9.936 8.552C9.70133 8.552 9.456 8.488 9.2 8.36C8.96533 8.232 8.848 8.008 8.848 7.688C8.848 7.38933 9.008 7.18667 9.328 7.08C9.66933 6.952 9.968 6.888 10.224 6.888C10.5867 6.888 10.9493 6.90933 11.312 6.952C11.6747 6.99467 12.0267 7.016 12.368 7.016C13.2 7.03733 14.032 7.05867 14.864 7.08C15.696 7.08 16.528 7.08 17.36 7.08C17.5947 7.08 17.84 7.06933 18.096 7.048C18.352 7.02667 18.5973 7.016 18.832 7.016L18.864 6.984C19.1627 6.96267 19.4507 6.94133 19.728 6.92C20.0267 6.89867 20.3147 6.84533 20.592 6.76C20.6347 6.824 20.656 6.87733 20.656 6.92C20.656 6.984 20.56 7.06933 20.368 7.176C20.1973 7.28267 20.0907 7.34667 20.048 7.368C19.728 7.47467 19.3973 7.53867 19.056 7.56C18.7147 7.56 18.384 7.58133 18.064 7.624C17.68 7.66667 17.3067 7.76267 16.944 7.912C16.6027 8.04 16.24 8.104 15.856 8.104C15.6 8.104 15.344 8.104 15.088 8.104C14.832 8.08267 14.576 8.06133 14.32 8.04C14.4907 8.104 14.6613 8.168 14.832 8.232C15.024 8.296 15.1307 8.328 15.152 8.328C15.3227 8.392 15.536 8.53067 15.792 8.744C16.048 8.936 16.272 9.14933 16.464 9.384C16.6773 9.61867 16.784 9.81067 16.784 9.96C16.8053 10.088 16.816 10.216 16.816 10.344C16.816 10.4507 16.816 10.5573 16.816 10.664C16.816 10.7493 16.816 10.856 16.816 10.984C16.816 11.0907 16.7947 11.208 16.752 11.336H16.784V11.4C16.9547 11.4 17.2 11.4213 17.52 11.464C17.8613 11.5067 18.1813 11.56 18.48 11.624C18.7787 11.688 18.9387 11.7627 18.96 11.848L19.056 12.104H18.992V12.136H18.736C18.6293 12.072 18.5013 12.04 18.352 12.04C18.224 12.0187 18.1067 12.008 18 12.008C17.488 12.008 17.0613 12.2107 16.72 12.616C16.6347 12.9147 16.5173 13.2027 16.368 13.48C16.24 13.7573 16.1227 14.056 16.016 14.376C15.9093 14.8453 15.8027 15.3147 15.696 15.784C15.6107 16.232 15.4507 16.6693 15.216 17.096C15.0453 17.4373 14.864 17.7787 14.672 18.12C14.48 18.4613 14.288 18.8027 14.096 19.144C14.0107 19.2933 13.9147 19.4533 13.808 19.624C13.7227 19.7733 13.6373 19.9333 13.552 20.104C13.5093 20.1893 13.4667 20.2853 13.424 20.392C13.4027 20.4987 13.3707 20.6053 13.328 20.712C13.3067 20.7333 13.2 20.8613 13.008 21.096C12.816 21.352 12.6027 21.6293 12.368 21.928C12.1333 22.2267 11.9093 22.504 11.696 22.76C11.504 23.016 11.3973 23.1653 11.376 23.208C11.1627 23.464 10.9387 23.688 10.704 23.88C10.4693 24.0933 10.256 24.328 10.064 24.584L10.032 24.68C9.88267 24.7653 9.66933 24.9147 9.392 25.128C9.136 25.3627 8.95467 25.5333 8.848 25.64C8.50667 25.96 8.09067 26.2907 7.6 26.632C7.10933 26.9947 6.58667 27.2933 6.032 27.528C5.47733 27.7627 4.93333 27.88 4.4 27.88ZM4.56 27.368C5.008 27.1973 5.424 27.016 5.808 26.824C6.192 26.632 6.56533 26.3973 6.928 26.12C7.16267 25.9493 7.36533 25.7573 7.536 25.544C7.728 25.3307 7.93067 25.128 8.144 24.936C9.14667 23.912 10.0213 22.8027 10.768 21.608C11.5147 20.4347 12.1867 19.2187 12.784 17.96L13.168 17.16C13.3173 16.84 13.424 16.6267 13.488 16.52C13.4667 16.3067 13.5093 16.0933 13.616 15.88C13.744 15.6667 13.8293 15.464 13.872 15.272C14 14.7387 14.1067 14.28 14.192 13.896C14.2987 13.4907 14.3947 13.032 14.48 12.52C14.3093 12.4773 14.0747 12.4773 13.776 12.52C13.4773 12.5627 13.1893 12.616 12.912 12.68C12.6347 12.744 12.432 12.808 12.304 12.872C11.7493 13.1067 11.2373 13.3947 10.768 13.736C10.2987 14.0773 9.82933 14.4293 9.36 14.792C9.21067 14.92 9.04 15.048 8.848 15.176C8.656 15.304 8.47467 15.4427 8.304 15.592C8.112 15.7413 7.93067 15.8907 7.76 16.04C7.58933 16.168 7.44 16.3067 7.312 16.456C7.248 16.5413 7.184 16.6373 7.12 16.744C7.056 16.8293 6.992 16.9147 6.928 17C6.33067 17.7467 5.79733 18.44 5.328 19.08C4.88 19.72 4.48533 20.488 4.144 21.384C4.10133 21.512 4.03733 21.64 3.952 21.768C3.888 21.896 3.83467 22.0133 3.792 22.12C3.664 22.3973 3.51467 22.8453 3.344 23.464C3.19467 24.104 3.12 24.7333 3.12 25.352C3.12 25.8853 3.216 26.3547 3.408 26.76C3.62133 27.1653 4.00533 27.368 4.56 27.368ZM18.676 21.8C18.4627 21.8 18.2813 21.768 18.132 21.704C18.004 21.6613 17.8867 21.6187 17.78 21.576C17.716 21.5333 17.6413 21.48 17.556 21.416C17.492 21.352 17.4173 21.32 17.332 21.32C17.3107 21.2773 17.268 21.224 17.204 21.16L17.076 21.064C16.884 20.9147 16.756 20.7333 16.692 20.52C16.628 20.3067 16.596 20.0613 16.596 19.784C16.596 19.4213 16.6813 19.0907 16.852 18.792C17.0227 18.4933 17.1613 18.1733 17.268 17.832C17.3107 17.7253 17.332 17.6187 17.332 17.512C17.332 17.4053 17.3427 17.2987 17.364 17.192C17.4067 17.0427 17.4707 16.904 17.556 16.776C17.6413 16.648 17.7267 16.52 17.812 16.392C18.3027 15.5387 18.8893 14.856 19.572 14.344C20.2547 13.8107 21.076 13.3627 22.036 13C22.1427 12.9573 22.324 12.9147 22.58 12.872C22.8573 12.8293 23.0493 12.808 23.156 12.808C23.3267 12.808 23.4867 12.84 23.636 12.904C23.7853 12.9467 23.9347 12.9893 24.084 13.032C24.1267 13.0533 24.1693 13.0747 24.212 13.096C24.276 13.096 24.3507 13.096 24.436 13.096L24.372 13.192C24.564 13.2773 24.7133 13.3947 24.82 13.544C24.948 13.6933 25.0867 13.832 25.236 13.96L25.524 14.216C25.6093 14.3013 25.6627 14.4187 25.684 14.568C25.7267 14.696 25.748 14.8027 25.748 14.888C25.7907 15.1867 25.7693 15.4747 25.684 15.752C25.62 16.008 25.5347 16.2533 25.428 16.488C25.3 16.7013 25.1613 16.9253 25.012 17.16C24.8627 17.3733 24.7027 17.5867 24.532 17.8C24.3827 18.0133 24.2333 18.2267 24.084 18.44C23.9347 18.6533 23.764 18.856 23.572 19.048C23.5293 19.0907 23.4227 19.1973 23.252 19.368C23.0813 19.5173 22.9107 19.6773 22.74 19.848C22.5907 20.0187 22.5053 20.1253 22.484 20.168C22.292 20.232 22.132 20.328 22.004 20.456L21.812 20.648C21.428 21.032 20.9373 21.32 20.34 21.512C19.7427 21.704 19.188 21.8 18.676 21.8ZM18.836 21.192C18.8573 21.1707 18.8893 21.16 18.932 21.16L19.22 21.064C19.3267 21.0213 19.4227 20.9893 19.508 20.968C19.6147 20.9467 19.6787 20.9253 19.7 20.904C19.7853 20.8613 19.956 20.7547 20.212 20.584C20.4893 20.4133 20.7453 20.232 20.98 20.04C21.2147 19.848 21.3213 19.7093 21.3 19.624C21.4493 19.56 21.6307 19.3893 21.844 19.112C22.0787 18.8347 22.292 18.536 22.484 18.216C22.6973 17.896 22.836 17.672 22.9 17.544C22.9427 17.4373 22.9853 17.3413 23.028 17.256C23.0707 17.1707 23.1347 17.0853 23.22 17C23.22 16.8933 23.2413 16.7973 23.284 16.712C23.348 16.6267 23.38 16.552 23.38 16.488C23.4227 16.4453 23.444 16.3813 23.444 16.296C23.4653 16.1893 23.4867 16.1147 23.508 16.072C23.5507 15.9013 23.5827 15.7947 23.604 15.752L23.572 15.72C23.5933 15.6773 23.604 15.6347 23.604 15.592C23.6253 15.528 23.6467 15.4853 23.668 15.464V15.368C23.668 15.2613 23.6787 15.1653 23.7 15.08C23.7213 14.9733 23.7213 14.8667 23.7 14.76C23.7427 14.6747 23.764 14.6 23.764 14.536C23.764 14.472 23.7533 14.408 23.732 14.344C23.732 14.28 23.7213 14.216 23.7 14.152L23.732 14.12C23.7107 13.928 23.6467 13.768 23.54 13.64C23.4333 13.512 23.2947 13.448 23.124 13.448C22.5907 13.448 22.1213 13.5867 21.716 13.864C21.3107 14.1413 20.916 14.4507 20.532 14.792C20.3827 14.8987 20.244 15.0053 20.116 15.112C20.0093 15.2187 19.9027 15.3467 19.796 15.496C19.796 15.5173 19.7853 15.5387 19.764 15.56C19.8067 15.5173 19.8707 15.4853 19.956 15.464C20.148 15.3147 20.3933 15.24 20.692 15.24C20.7987 15.24 21.012 15.336 21.332 15.528C21.652 15.72 21.812 15.9013 21.812 16.072V16.232C21.6627 16.168 21.5773 16.1253 21.556 16.104L21.428 16.04C21.3427 15.9973 21.2467 15.976 21.14 15.976C20.7987 15.976 20.436 16.136 20.052 16.456C19.6893 16.776 19.3907 17.0853 19.156 17.384C19.0067 17.5547 18.868 17.7253 18.74 17.896C18.612 18.0453 18.5587 18.2587 18.58 18.536C18.6867 18.6 18.7613 18.7173 18.804 18.888C18.74 18.9093 18.676 18.92 18.612 18.92C18.5053 18.92 18.3987 18.8667 18.292 18.76C18.228 18.8453 18.1747 18.9627 18.132 19.112C18.0893 19.2613 18.0467 19.3893 18.004 19.496L17.94 19.592C17.94 19.6773 17.9293 19.7627 17.908 19.848C17.908 19.9333 17.9187 20.0187 17.94 20.104C17.9613 20.424 18.036 20.6907 18.164 20.904C18.292 21.096 18.516 21.192 18.836 21.192ZM27.283 20.616C27.1337 20.616 26.9523 20.552 26.739 20.424C26.547 20.296 26.4403 20.1467 26.419 19.976C26.3977 19.5707 26.4617 19.08 26.611 18.504C26.7817 17.9067 26.995 17.288 27.251 16.648C27.507 16.008 27.7737 15.4107 28.051 14.856C28.3283 14.28 28.563 13.8107 28.755 13.448C28.8617 13.2347 28.947 13.032 29.011 12.84C29.0963 12.6267 29.2137 12.424 29.363 12.232C29.5337 12.232 29.747 12.2747 30.003 12.36C30.2803 12.4453 30.5257 12.552 30.739 12.68C30.9737 12.808 31.091 12.9573 31.091 13.128C31.091 13.32 30.9737 13.5333 30.739 13.768C30.5257 13.9813 30.355 14.1627 30.227 14.312C29.779 14.824 29.3203 15.368 28.851 15.944C28.403 16.4987 28.051 17.096 27.795 17.736C27.731 17.8853 27.6777 18.0347 27.635 18.184C27.6137 18.3333 27.5603 18.472 27.475 18.6C27.4537 18.664 27.4217 18.728 27.379 18.792C27.3363 18.856 27.315 18.9307 27.315 19.016L27.283 19.368C27.4537 19.176 27.7203 18.8667 28.083 18.44C28.467 18.0133 28.8723 17.5653 29.299 17.096C29.747 16.6053 30.163 16.1787 30.547 15.816C30.931 15.4533 31.1977 15.2507 31.347 15.208C31.4323 15.1653 31.5177 15.144 31.603 15.144C31.987 15.144 32.3497 15.272 32.691 15.528C33.0537 15.7627 33.2457 16.04 33.267 16.36C33.267 16.4453 33.2457 16.584 33.203 16.776C33.1817 16.968 33.1603 17.1173 33.139 17.224C33.1177 17.4373 33.0857 17.672 33.043 17.928C33.0217 18.1627 33.011 18.408 33.011 18.664C33.011 19.048 33.075 19.3787 33.203 19.656C33.331 19.912 33.5657 20.04 33.907 20.04C33.9923 19.9973 34.0883 19.9653 34.195 19.944C34.323 19.9013 34.4297 19.88 34.515 19.88C34.6217 19.88 34.6963 19.944 34.739 20.072C34.739 20.2 34.6643 20.3067 34.515 20.392C34.3657 20.4773 34.2377 20.52 34.131 20.52H33.715C33.5657 20.52 33.427 20.52 33.299 20.52C33.171 20.4987 33.043 20.4667 32.915 20.424C32.7017 20.3813 32.499 20.2853 32.307 20.136C32.115 19.9867 31.9657 19.7733 31.859 19.496C31.7523 19.176 31.6563 18.8987 31.571 18.664C31.507 18.4293 31.475 18.1413 31.475 17.8V16.904C31.475 16.7547 31.475 16.616 31.475 16.488C31.4963 16.36 31.4963 16.264 31.475 16.2C31.283 16.264 31.0803 16.424 30.867 16.68C30.6537 16.936 30.483 17.1387 30.355 17.288C30.2697 17.3733 30.195 17.4267 30.131 17.448L30.035 17.544C29.9497 17.6293 29.843 17.7573 29.715 17.928C29.587 18.0773 29.4697 18.2053 29.363 18.312C29.299 18.376 29.2457 18.4187 29.203 18.44L29.043 18.568L28.819 18.792C28.691 19.0267 28.5417 19.24 28.371 19.432C28.2217 19.6027 28.0723 19.8053 27.923 20.04C27.8803 20.0827 27.859 20.1147 27.859 20.136L27.795 20.264C27.731 20.3707 27.667 20.456 27.603 20.52C27.539 20.584 27.4323 20.616 27.283 20.616ZM36.0643 20.616C35.9149 20.616 35.7336 20.552 35.5203 20.424C35.3283 20.296 35.2216 20.1467 35.2003 19.976C35.1789 19.5707 35.2429 19.08 35.3923 18.504C35.5629 17.9067 35.7763 17.288 36.0323 16.648C36.2883 16.008 36.5549 15.4107 36.8323 14.856C37.1096 14.28 37.3443 13.8107 37.5363 13.448C37.6429 13.2347 37.7283 13.032 37.7923 12.84C37.8776 12.6267 37.9949 12.424 38.1443 12.232C38.3149 12.232 38.5283 12.2747 38.7843 12.36C39.0616 12.4453 39.3069 12.552 39.5203 12.68C39.7549 12.808 39.8723 12.9573 39.8723 13.128C39.8723 13.32 39.7549 13.5333 39.5203 13.768C39.3069 13.9813 39.1363 14.1627 39.0083 14.312C38.5603 14.824 38.1016 15.368 37.6323 15.944C37.1843 16.4987 36.8323 17.096 36.5763 17.736C36.5123 17.8853 36.4589 18.0347 36.4163 18.184C36.3949 18.3333 36.3416 18.472 36.2563 18.6C36.2349 18.664 36.2029 18.728 36.1603 18.792C36.1176 18.856 36.0963 18.9307 36.0963 19.016L36.0643 19.368C36.2349 19.176 36.5016 18.8667 36.8643 18.44C37.2483 18.0133 37.6536 17.5653 38.0803 17.096C38.5283 16.6053 38.9443 16.1787 39.3283 15.816C39.7123 15.4533 39.9789 15.2507 40.1283 15.208C40.2136 15.1653 40.2989 15.144 40.3843 15.144C40.7683 15.144 41.1309 15.272 41.4723 15.528C41.8349 15.7627 42.0269 16.04 42.0483 16.36C42.0483 16.4453 42.0269 16.584 41.9843 16.776C41.9629 16.968 41.9416 17.1173 41.9203 17.224C41.8989 17.4373 41.8669 17.672 41.8243 17.928C41.8029 18.1627 41.7923 18.408 41.7923 18.664C41.7923 19.048 41.8563 19.3787 41.9843 19.656C42.1123 19.912 42.3469 20.04 42.6883 20.04C42.7736 19.9973 42.8696 19.9653 42.9763 19.944C43.1043 19.9013 43.2109 19.88 43.2963 19.88C43.4029 19.88 43.4776 19.944 43.5203 20.072C43.5203 20.2 43.4456 20.3067 43.2963 20.392C43.1469 20.4773 43.0189 20.52 42.9123 20.52H42.4963C42.3469 20.52 42.2083 20.52 42.0803 20.52C41.9523 20.4987 41.8243 20.4667 41.6963 20.424C41.4829 20.3813 41.2803 20.2853 41.0883 20.136C40.8963 19.9867 40.7469 19.7733 40.6403 19.496C40.5336 19.176 40.4376 18.8987 40.3523 18.664C40.2883 18.4293 40.2563 18.1413 40.2563 17.8V16.904C40.2563 16.7547 40.2563 16.616 40.2563 16.488C40.2776 16.36 40.2776 16.264 40.2563 16.2C40.0643 16.264 39.8616 16.424 39.6483 16.68C39.4349 16.936 39.2643 17.1387 39.1363 17.288C39.0509 17.3733 38.9763 17.4267 38.9123 17.448L38.8163 17.544C38.7309 17.6293 38.6243 17.7573 38.4963 17.928C38.3683 18.0773 38.2509 18.2053 38.1443 18.312C38.0803 18.376 38.0269 18.4187 37.9843 18.44L37.8243 18.568L37.6003 18.792C37.4723 19.0267 37.3229 19.24 37.1523 19.432C37.0029 19.6027 36.8536 19.8053 36.7043 20.04C36.6616 20.0827 36.6403 20.1147 36.6403 20.136L36.5763 20.264C36.5123 20.3707 36.4483 20.456 36.3843 20.52C36.3203 20.584 36.2136 20.616 36.0643 20.616ZM41.5815 30.792C41.0482 30.792 40.6748 30.6107 40.4615 30.248C40.2482 29.9067 40.1415 29.5333 40.1415 29.128C40.1415 28.7013 40.2162 28.2853 40.3655 27.88C40.5148 27.4747 40.6962 27.1013 40.9095 26.76C41.0802 26.4613 41.2615 26.152 41.4535 25.832C41.6242 25.512 41.8162 25.2133 42.0295 24.936C42.5415 24.232 43.2028 23.496 44.0135 22.728C44.8455 21.9813 45.6242 21.3627 46.3495 20.872C46.7122 20.6373 47.1495 20.392 47.6615 20.136C48.1948 19.8587 48.6642 19.6347 49.0695 19.464C49.4748 19.272 49.6775 19.176 49.6775 19.176C49.8695 19.112 50.0615 19.016 50.2535 18.888C50.4668 18.7813 50.6268 18.728 50.7335 18.728C50.7548 18.7067 50.7762 18.6853 50.7975 18.664C50.8188 18.6427 50.8402 18.6213 50.8615 18.6C51.0108 18.4293 51.1068 18.1733 51.1495 17.832C51.1922 17.4907 51.2562 17.2133 51.3415 17C51.3842 16.8933 51.4162 16.8187 51.4375 16.776C51.4802 16.712 51.5015 16.616 51.5015 16.488V16.296C51.5015 16.1893 51.5122 16.0933 51.5335 16.008C51.5548 15.9227 51.5762 15.8373 51.5975 15.752C51.6188 15.688 51.6295 15.5493 51.6295 15.336C51.4802 15.3787 51.3522 15.464 51.2455 15.592C51.1602 15.72 51.0642 15.8373 50.9575 15.944C50.7655 16.1147 50.5842 16.3067 50.4135 16.52C50.2642 16.7333 50.0935 16.9253 49.9015 17.096C49.6028 17.3733 49.1975 17.7573 48.6855 18.248C48.1735 18.7387 47.6402 19.176 47.0855 19.56C46.5308 19.944 46.0402 20.136 45.6135 20.136C45.3362 20.136 45.0268 20.0293 44.6855 19.816C44.3442 19.6027 44.1095 19.3893 43.9815 19.176V19.112C43.9815 19.048 43.9708 18.984 43.9495 18.92C43.9282 18.8347 43.9175 18.76 43.9175 18.696C43.9175 18.2907 44.0135 17.8427 44.2055 17.352C44.3975 16.8613 44.6215 16.4027 44.8775 15.976C45.1335 15.5493 45.3682 15.24 45.5815 15.048L45.6775 14.92C45.7628 14.8133 45.8375 14.7173 45.9015 14.632C45.9868 14.5467 46.0722 14.4613 46.1575 14.376C46.3282 14.184 46.4988 14.024 46.6695 13.896C46.8615 13.768 47.0748 13.704 47.3095 13.704C47.3948 13.704 47.5762 13.7573 47.8535 13.864C48.1308 13.9707 48.3975 14.088 48.6535 14.216C48.9095 14.3227 49.0375 14.4187 49.0375 14.504C49.0588 14.5893 49.0162 14.632 48.9095 14.632H48.8135L48.7495 14.6C48.7282 14.6 48.7068 14.6 48.6855 14.6C48.6642 14.5787 48.6322 14.568 48.5895 14.568C48.3762 14.568 48.0775 14.7493 47.6935 15.112C47.3308 15.4533 46.9575 15.8907 46.5735 16.424C46.1895 16.936 45.8695 17.4373 45.6135 17.928C45.3575 18.3973 45.2295 18.76 45.2295 19.016C45.2295 19.1227 45.2722 19.176 45.3575 19.176C45.5708 19.176 45.7948 19.1013 46.0295 18.952C46.2855 18.8027 46.4988 18.6747 46.6695 18.568H46.7335C47.6935 17.864 48.5468 17.1707 49.2935 16.488C49.6988 16.1253 50.1042 15.7627 50.5095 15.4C50.9148 15.0373 51.3202 14.6533 51.7255 14.248L51.9175 14.056L52.1095 13.832C52.2375 13.6827 52.3868 13.544 52.5575 13.416C52.7495 13.4587 53.0268 13.5227 53.3895 13.608C53.7735 13.6933 53.9762 13.8853 53.9975 14.184C53.9975 14.2907 53.9762 14.3973 53.9335 14.504C53.9122 14.5893 53.8908 14.6853 53.8695 14.792C53.8482 15.0053 53.8162 15.2187 53.7735 15.432C53.7308 15.6453 53.6882 15.8587 53.6455 16.072C53.6242 16.2 53.5815 16.328 53.5175 16.456C53.4748 16.584 53.4322 16.712 53.3895 16.84C53.3468 16.9893 53.3148 17.1493 53.2935 17.32C53.2935 17.4907 53.2615 17.6613 53.1975 17.832C53.1762 17.896 53.1228 18.0133 53.0375 18.184C52.9522 18.3333 52.9095 18.44 52.9095 18.504C52.9095 18.5253 52.9522 18.536 53.0375 18.536C53.1015 18.536 53.1548 18.536 53.1975 18.536C53.2615 18.5147 53.3042 18.504 53.3255 18.504C53.8375 18.504 54.2962 18.6747 54.7015 19.016C54.7442 19.0373 54.7655 19.0587 54.7655 19.08C54.7868 19.08 54.8082 19.08 54.8295 19.08V19.144C54.8295 19.2507 54.7655 19.336 54.6375 19.4C54.5095 19.464 54.4242 19.4213 54.3815 19.272C54.3602 19.208 54.3068 19.176 54.2215 19.176C54.1362 19.1547 54.0615 19.144 53.9975 19.144C53.7842 19.144 53.4855 19.2187 53.1015 19.368C52.7388 19.496 52.5682 19.688 52.5895 19.944C52.4828 20.008 52.3228 20.1893 52.1095 20.488C51.9175 20.7867 51.8108 20.9893 51.7895 21.096C51.7682 21.1813 51.7575 21.2667 51.7575 21.352C51.7575 21.4373 51.7148 21.5227 51.6295 21.608C51.5442 21.6933 51.4695 21.7787 51.4055 21.864C51.3628 21.9493 51.3415 22.0773 51.3415 22.248C51.2135 22.2907 51.0748 22.408 50.9255 22.6C50.7762 22.792 50.7122 22.952 50.7335 23.08L50.6375 23.112L50.7015 23.24C50.5308 23.304 50.4455 23.3893 50.4455 23.496C50.3175 23.5387 50.2108 23.6453 50.1255 23.816C50.0615 23.9867 49.9655 24.1147 49.8375 24.2V24.328L49.5815 24.456L49.6135 24.552C49.5282 24.616 49.4428 24.68 49.3575 24.744C49.2935 24.8293 49.2295 24.9147 49.1655 25C49.0802 25.0853 49.0055 25.16 48.9415 25.224C48.8988 25.288 48.8562 25.3413 48.8135 25.384V25.512C48.7495 25.5333 48.7175 25.5867 48.7175 25.672C48.6108 25.6933 48.5148 25.7467 48.4295 25.832L48.2695 25.992L48.3015 26.056C48.2375 26.0987 48.1735 26.1413 48.1095 26.184C48.0668 26.2267 48.0348 26.2907 48.0135 26.376H47.9175C47.8535 26.504 47.7468 26.632 47.5975 26.76C47.4695 26.9093 47.3522 27.0373 47.2455 27.144L46.7015 27.816C46.5308 27.9653 46.3388 28.104 46.1255 28.232C45.9335 28.36 45.7522 28.5093 45.5815 28.68C45.5175 28.7227 45.4535 28.776 45.3895 28.84C45.3468 28.904 45.2935 28.968 45.2295 29.032C45.1442 29.1173 45.0268 29.192 44.8775 29.256C44.7495 29.3413 44.6322 29.4373 44.5255 29.544C44.1842 29.7787 43.7362 30.0453 43.1815 30.344C42.6055 30.6427 42.0722 30.792 41.5815 30.792ZM42.3815 29.8C42.4882 29.7573 42.6482 29.6827 42.8615 29.576C43.0748 29.4907 43.2668 29.3947 43.4375 29.288C43.6295 29.1813 43.7255 29.096 43.7255 29.032C44.0028 28.8613 44.2482 28.6587 44.4615 28.424C44.6962 28.2107 44.9202 27.9973 45.1335 27.784C45.3682 27.5707 45.6028 27.3573 45.8375 27.144C46.0722 26.9307 46.2855 26.7067 46.4775 26.472C46.6055 26.3013 46.7228 26.1307 46.8295 25.96C46.9575 25.7893 47.0855 25.6293 47.2135 25.48C47.3842 25.2453 47.5655 25.0107 47.7575 24.776C47.9708 24.5627 48.1628 24.3387 48.3335 24.104C48.5255 23.8693 48.6962 23.6133 48.8455 23.336C49.0162 23.0587 49.1868 22.792 49.3575 22.536C49.4642 22.3653 49.5815 22.184 49.7095 21.992C49.8588 21.8 49.9762 21.608 50.0615 21.416C50.1042 21.352 50.1362 21.2773 50.1575 21.192C50.2002 21.128 50.2428 21.0533 50.2855 20.968C50.3708 20.8187 50.4882 20.5947 50.6375 20.296C50.8082 19.976 50.8935 19.7413 50.8935 19.592C50.6375 19.72 50.3388 19.848 49.9975 19.976C49.8268 20.0613 49.6562 20.1467 49.4855 20.232C49.3362 20.296 49.2615 20.3493 49.2615 20.392C49.1548 20.4133 48.8988 20.52 48.4935 20.712C48.1095 20.904 47.7255 21.1067 47.3415 21.32C46.9575 21.5333 46.7122 21.6933 46.6055 21.8C46.2002 22.0987 45.8055 22.4187 45.4215 22.76C45.0588 23.1013 44.6962 23.4427 44.3335 23.784C44.2482 23.8693 44.1735 23.9547 44.1095 24.04C44.0455 24.1253 43.9815 24.2213 43.9175 24.328C43.8962 24.3707 43.8642 24.4027 43.8215 24.424C43.8002 24.4667 43.7788 24.5093 43.7575 24.552C43.7148 24.5947 43.6295 24.712 43.5015 24.904C43.3735 25.096 43.2562 25.288 43.1495 25.48C43.0428 25.672 42.9788 25.8 42.9575 25.864C42.7655 26.056 42.5415 26.376 42.2855 26.824C42.0295 27.272 41.8482 27.6347 41.7415 27.912L41.5175 28.424C41.4535 28.5093 41.4215 28.6587 41.4215 28.872C41.4002 29.0853 41.3895 29.256 41.3895 29.384C41.4108 29.576 41.4855 29.6933 41.6135 29.736C41.7415 29.8 41.9975 29.8213 42.3815 29.8ZM72.6958 15.592C72.2904 15.592 71.8744 15.592 71.4478 15.592C71.0211 15.5707 70.5944 15.5493 70.1678 15.528C69.9118 15.528 69.7411 15.5067 69.6558 15.464C69.5704 15.4 69.5278 15.336 69.5278 15.272C69.5278 15.1867 69.5598 15.112 69.6238 15.048C69.6878 14.984 69.7304 14.9413 69.7517 14.92L69.7198 14.824C69.8051 14.8453 69.8584 14.8773 69.8798 14.92C69.9224 14.9413 69.9544 14.952 69.9758 14.952L70.0078 14.92H70.0398C70.1251 14.8773 70.2424 14.856 70.3918 14.856C70.4984 14.856 70.5944 14.8667 70.6798 14.888C70.7651 14.888 70.8504 14.888 70.9358 14.888C71.1278 14.888 71.3198 14.8773 71.5118 14.856C71.7251 14.8347 71.9384 14.8133 72.1518 14.792C72.1944 14.792 72.3224 14.7707 72.5358 14.728C72.5998 14.7067 72.6531 14.696 72.6958 14.696C72.7598 14.6747 72.8024 14.6427 72.8238 14.6H73.1438C73.2504 14.6 73.3464 14.6 73.4318 14.6C73.5384 14.5787 73.6024 14.536 73.6238 14.472C73.9438 14.472 74.2531 14.44 74.5518 14.376C74.8718 14.2907 75.1918 14.2267 75.5118 14.184C75.7251 14.1413 75.9171 14.0773 76.0878 13.992C76.2798 13.8853 76.4931 13.8213 76.7278 13.8L77.7518 13.416C77.9224 13.352 78.0504 13.2773 78.1358 13.192C78.2424 13.1067 78.3491 13.0213 78.4558 12.936C78.4984 12.8933 78.5411 12.8613 78.5838 12.84C78.6478 12.7973 78.7118 12.7653 78.7758 12.744C79.2024 12.5307 79.5438 12.232 79.7998 11.848C80.0558 11.464 80.2478 11.08 80.3758 10.696C80.5038 10.2907 80.5678 9.992 80.5678 9.8C80.5678 9.13867 80.3118 8.62667 79.7998 8.264C79.3091 7.90133 78.6904 7.63467 77.9438 7.464C77.2184 7.29333 76.4718 7.18667 75.7038 7.144C74.9358 7.10133 74.2958 7.08 73.7838 7.08C73.5704 7.08 73.3571 7.10133 73.1438 7.144C72.9518 7.18667 72.7491 7.22933 72.5358 7.272C72.2158 7.336 71.8851 7.368 71.5438 7.368C71.2238 7.34667 70.9038 7.35733 70.5838 7.4C69.2184 7.67733 67.8531 8.09333 66.4878 8.648C65.1438 9.18133 63.9384 9.85333 62.8718 10.664C62.6158 10.856 62.3171 11.1013 61.9758 11.4C61.6344 11.6773 61.3464 11.976 61.1118 12.296C60.8771 12.616 60.7704 12.936 60.7918 13.256C60.7918 13.32 60.8451 13.416 60.9518 13.544C61.0584 13.672 61.1118 13.7787 61.1118 13.864C61.1118 13.9707 61.0264 14.024 60.8558 14.024C60.6424 13.9173 60.4718 13.6933 60.3438 13.352C60.2371 12.9893 60.1837 12.7227 60.1837 12.552C60.1197 11.9333 60.2051 11.3253 60.4398 10.728C60.6958 10.1093 61.1224 9.69333 61.7198 9.48C61.8904 9.416 62.0611 9.37333 62.2318 9.352C62.4238 9.30933 62.5944 9.26667 62.7438 9.224C62.9784 9.13867 63.2131 9.01067 63.4478 8.84C63.7038 8.648 63.9384 8.47733 64.1518 8.328C64.3224 8.30667 64.4824 8.264 64.6318 8.2C64.7811 8.11467 64.9304 8.05067 65.0798 8.008C65.2931 7.92267 65.6451 7.80533 66.1358 7.656C66.6264 7.48533 67.1171 7.336 67.6078 7.208C68.0984 7.05867 68.4398 6.984 68.6318 6.984C68.8024 6.87733 68.9944 6.81333 69.2078 6.792C69.4211 6.74933 69.6344 6.728 69.8478 6.728C69.9544 6.664 70.1358 6.61067 70.3918 6.568C70.6478 6.504 70.8398 6.48267 70.9678 6.504C71.0531 6.48267 71.2451 6.46133 71.5438 6.44C71.8424 6.41867 72.1731 6.39733 72.5358 6.376C72.8984 6.33333 73.2078 6.30133 73.4638 6.28C73.7411 6.25867 73.8798 6.248 73.8798 6.248C74.4344 6.248 74.9998 6.25867 75.5758 6.28C76.1731 6.28 76.7491 6.35467 77.3038 6.504C77.9651 6.65333 78.6264 6.90933 79.2878 7.272C79.9491 7.61333 80.5144 8.05067 80.9838 8.584C81.4531 9.11733 81.7198 9.72533 81.7838 10.408C81.8051 10.7493 81.7731 11.08 81.6878 11.4C81.6024 11.6987 81.4744 11.9867 81.3038 12.264C80.8344 13.0533 80.1518 13.672 79.2558 14.12C78.3598 14.568 77.4424 14.9093 76.5037 15.144C76.2904 15.1867 76.0664 15.24 75.8318 15.304C75.5971 15.3467 75.3624 15.3787 75.1278 15.4C74.7224 15.4213 74.3064 15.464 73.8798 15.528C73.4744 15.5707 73.0798 15.592 72.6958 15.592ZM68.3118 21.928C67.9918 21.928 67.6291 21.8213 67.2238 21.608C66.8184 21.3947 66.4664 21.128 66.1678 20.808C65.8691 20.4667 65.6984 20.1467 65.6558 19.848C65.6131 19.2933 65.7198 18.728 65.9758 18.152C66.2318 17.5547 66.4984 17.032 66.7758 16.584C67.0531 16.1147 67.1811 15.7947 67.1598 15.624C67.2024 15.5813 67.2664 15.528 67.3518 15.464C67.4584 15.3787 67.4904 15.3147 67.4478 15.272C68.0238 14.3333 68.6211 13.4373 69.2398 12.584C69.3038 12.4987 69.3571 12.4133 69.3998 12.328C69.4424 12.2213 69.4958 12.1253 69.5598 12.04C69.7091 11.848 69.8691 11.6667 70.0398 11.496C70.2104 11.304 70.3704 11.1227 70.5198 10.952C70.7544 10.6533 70.9784 10.3547 71.1918 10.056C71.4051 9.736 71.6184 9.43733 71.8318 9.16C71.9384 9.032 72.0984 8.86133 72.3118 8.648C72.5464 8.41333 72.6638 8.21067 72.6638 8.04C72.6424 7.99733 72.5998 7.944 72.5358 7.88L72.5038 7.816C72.4184 7.752 72.3758 7.66667 72.3758 7.56L72.4718 7.464C72.5998 7.48533 72.8451 7.54933 73.2078 7.656C73.5918 7.76267 73.9438 7.912 74.2638 8.104C74.5838 8.296 74.7438 8.53067 74.7438 8.808C74.7438 9.02133 74.6264 9.24533 74.3918 9.48C74.1784 9.69333 73.9331 9.90667 73.6558 10.12C73.3998 10.312 73.1864 10.4933 73.0158 10.664C72.5038 11.1973 71.9171 11.8693 71.2558 12.68C70.5944 13.4693 69.9544 14.3227 69.3358 15.24C68.7171 16.136 68.2158 17.0427 67.8318 17.96C67.4478 18.8773 67.2878 19.7413 67.3518 20.552C67.3731 20.7227 67.4264 20.904 67.5118 21.096C67.5971 21.288 67.7464 21.384 67.9598 21.384L69.2078 20.616C69.4424 20.4453 69.6558 20.2853 69.8478 20.136C70.0611 19.9867 70.1678 19.8587 70.1678 19.752H70.4558C70.3704 19.9867 70.2744 20.168 70.1678 20.296C70.0611 20.4027 69.9438 20.552 69.8158 20.744C69.6238 21 69.4104 21.256 69.1758 21.512C68.9624 21.7893 68.6744 21.928 68.3118 21.928ZM84.181 13.224C83.9677 13.224 83.7117 13.2027 83.413 13.16C83.1143 13.096 82.9543 12.904 82.933 12.584C82.933 12.5413 83.0077 12.4347 83.157 12.264C83.3277 12.0933 83.4983 11.9227 83.669 11.752C83.861 11.5813 83.9783 11.4747 84.021 11.432C84.085 11.3893 84.2343 11.272 84.469 11.08C84.725 10.888 84.8957 10.856 84.981 10.984C85.0023 11.0053 85.013 11.1547 85.013 11.432V11.88C85.013 11.9227 84.9917 11.9653 84.949 12.008C84.9277 12.008 84.8743 12.0293 84.789 12.072C84.725 12.0933 84.693 12.1147 84.693 12.136L84.725 12.168C84.7677 12.1893 84.7997 12.232 84.821 12.296C84.8637 12.36 84.8743 12.4133 84.853 12.456C84.7677 12.6053 84.661 12.776 84.533 12.968C84.405 13.1387 84.2877 13.224 84.181 13.224ZM81.205 21.48C81.1197 21.48 80.9383 21.448 80.661 21.384C80.405 21.32 80.2343 21.2667 80.149 21.224C79.9357 21.0747 79.7863 20.9467 79.701 20.84C79.6157 20.7333 79.573 20.5093 79.573 20.168C79.573 19.5493 79.7117 18.9413 79.989 18.344C80.2877 17.7253 80.5543 17.1387 80.789 16.584C80.8317 16.5413 80.8317 16.5093 80.789 16.488V16.424C80.725 16.2107 80.7783 15.9653 80.949 15.688C81.1197 15.3893 81.3223 15.112 81.557 14.856C81.7917 14.6 81.973 14.4293 82.101 14.344C82.2077 14.344 82.3997 14.3653 82.677 14.408C82.9543 14.4293 83.221 14.472 83.477 14.536C83.733 14.6 83.861 14.7067 83.861 14.856C83.861 14.8773 83.829 14.9307 83.765 15.016C83.701 15.1013 83.6263 15.1973 83.541 15.304L83.285 15.592C83.1997 15.6773 83.157 15.7307 83.157 15.752C82.965 16.0933 82.709 16.5093 82.389 17C82.069 17.4907 81.7703 17.992 81.493 18.504C81.301 18.8453 81.141 19.176 81.013 19.496C80.9063 19.7947 80.853 20.0613 80.853 20.296C80.853 20.488 80.8957 20.6267 80.981 20.712C81.2157 20.6693 81.461 20.52 81.717 20.264C81.9943 20.008 82.2183 19.7733 82.389 19.56H82.549C82.549 19.7733 82.4743 19.9547 82.325 20.104L82.229 20.2C82.1223 20.392 81.9837 20.6587 81.813 21C81.6637 21.32 81.461 21.48 81.205 21.48ZM86.9828 21.448C86.5774 21.448 86.1188 21.3413 85.6068 21.128C85.0948 20.936 84.7214 20.6693 84.4868 20.328C84.4014 20.2 84.3481 20.072 84.3268 19.944C84.3054 19.816 84.2841 19.6987 84.2628 19.592C84.2414 19.1653 84.2521 18.8347 84.2948 18.6C84.3374 18.344 84.4121 18.0987 84.5188 17.864C84.6254 17.6293 84.7428 17.3413 84.8708 17C84.8921 16.936 84.9774 16.8293 85.1268 16.68C85.2761 16.5307 85.4254 16.3813 85.5748 16.232C85.7454 16.0613 85.8521 15.944 85.8948 15.88C86.0014 15.752 86.0868 15.6347 86.1508 15.528C86.2361 15.4213 86.3641 15.3467 86.5348 15.304C86.5774 15.2827 86.6094 15.272 86.6308 15.272C86.6734 15.272 86.7054 15.2613 86.7268 15.24C86.8121 15.048 86.9081 14.8987 87.0148 14.792C87.1428 14.664 87.2814 14.5467 87.4308 14.44C87.5588 14.3333 87.8148 14.1947 88.1988 14.024C88.6041 13.8533 88.8814 13.768 89.0308 13.768C89.1374 13.768 89.2334 13.7893 89.3188 13.832C89.4254 13.8747 89.5321 13.896 89.6388 13.896L89.7348 13.864C89.7561 13.9493 89.8414 14.024 89.9908 14.088C90.1401 14.1733 90.3428 14.28 90.5988 14.408C90.8761 14.536 91.0254 14.6853 91.0468 14.856C91.0468 14.92 91.0041 15.048 90.9188 15.24C90.8548 15.432 90.7588 15.6133 90.6308 15.784C90.5241 15.9547 90.4174 16.0507 90.3108 16.072C90.3108 15.9653 90.3108 15.88 90.3108 15.816C90.3321 15.752 90.3534 15.6773 90.3748 15.592C90.3748 15.528 90.3748 15.4747 90.3748 15.432C90.3961 15.368 90.4068 15.304 90.4068 15.24C90.3854 15.1333 90.3428 15.0373 90.2788 14.952C90.2148 14.8667 90.1294 14.824 90.0228 14.824C89.7454 14.824 89.4254 14.952 89.0628 15.208C88.7001 15.464 88.3588 15.752 88.0388 16.072C87.7188 16.3707 87.4734 16.6267 87.3028 16.84C86.9828 17.1813 86.7054 17.5227 86.4708 17.864C86.2574 18.2053 86.0974 18.6107 85.9908 19.08C85.9694 19.2293 85.9481 19.3787 85.9268 19.528C85.9268 19.6773 85.9268 19.8373 85.9268 20.008C85.9694 20.072 85.9908 20.1467 85.9908 20.232C86.0121 20.3173 86.0441 20.392 86.0868 20.456C86.1294 20.4773 86.1508 20.5093 86.1508 20.552C86.1721 20.5947 86.1934 20.6267 86.2148 20.648L86.2468 20.712V20.744H86.5028C86.7161 20.744 86.8974 20.7227 87.0468 20.68C87.1961 20.6373 87.3454 20.6053 87.4948 20.584C87.6014 20.5413 87.7081 20.5093 87.8148 20.488C87.9428 20.4453 88.0708 20.424 88.1988 20.424C88.3268 20.3173 88.4654 20.232 88.6148 20.168C88.7641 20.0827 88.9134 20.008 89.0628 19.944V19.88C89.2334 19.9013 89.3934 19.848 89.5428 19.72C89.7134 19.592 89.8628 19.496 89.9908 19.432C90.4814 19.1547 90.9508 18.8773 91.3988 18.6C91.8468 18.3227 92.2734 18.0133 92.6788 17.672C92.7428 17.6293 92.8921 17.512 93.1267 17.32C93.3614 17.128 93.5001 17.032 93.5428 17.032C93.5428 17.032 93.5641 17.0107 93.6068 16.968C93.7774 17.0747 93.8628 17.1813 93.8628 17.288C93.8628 17.416 93.7988 17.544 93.6708 17.672C93.5428 17.8 93.4254 17.896 93.3188 17.96C93.2334 18.0027 93.1481 18.056 93.0628 18.12C92.9988 18.1627 92.9348 18.2053 92.8708 18.248C92.7854 18.2907 92.7001 18.344 92.6148 18.408C92.5508 18.4507 92.4974 18.504 92.4548 18.568C92.4121 18.6533 92.3588 18.728 92.2948 18.792C92.2521 18.856 92.1774 18.8987 92.0708 18.92L92.0388 18.984C91.8894 19.0693 91.7401 19.1653 91.5908 19.272C91.4414 19.3573 91.2921 19.4533 91.1428 19.56C91.0574 19.624 90.9934 19.656 90.9508 19.656C90.7161 19.7627 90.4708 19.912 90.2148 20.104C90.0228 20.232 89.8521 20.3707 89.7028 20.52C89.5534 20.648 89.3614 20.7227 89.1268 20.744C89.0841 20.8933 88.9774 20.9787 88.8068 21C88.6574 21.0213 88.5294 21.0533 88.4227 21.096C87.9748 21.3307 87.4948 21.448 86.9828 21.448ZM105.441 28.712C104.822 28.712 104.193 28.488 103.553 28.04C102.913 27.592 102.294 27.0267 101.697 26.344C101.121 25.6827 100.598 25.0107 100.129 24.328C99.6805 23.6667 99.3285 23.112 99.0725 22.664C98.7312 22.0453 98.3685 21.352 97.9845 20.584C97.6218 19.816 97.3125 19.1013 97.0565 18.44C97.0352 18.376 96.9818 18.2267 96.8965 17.992C96.8112 17.736 96.7365 17.608 96.6725 17.608C96.6512 17.608 96.6405 17.64 96.6405 17.704C96.5552 17.7253 96.4592 17.8107 96.3525 17.96C96.2672 18.088 96.1712 18.2373 96.0645 18.408C96.0005 18.4933 95.9152 18.6213 95.8085 18.792C95.7018 18.9627 95.5952 19.0693 95.4885 19.112C95.4458 19.2187 95.3925 19.2827 95.3285 19.304C95.2858 19.3253 95.2432 19.4107 95.2005 19.56L95.1365 19.656C95.0725 19.8267 94.9658 20.008 94.8165 20.2C94.7738 20.264 94.7312 20.328 94.6885 20.392C94.6458 20.456 94.6032 20.52 94.5605 20.584C94.5178 20.6907 94.4965 20.84 94.4965 21.032C94.4965 21.2453 94.3792 21.352 94.1445 21.352C93.9312 21.352 93.7285 21.2773 93.5365 21.128C93.3445 21 93.2378 20.8293 93.2165 20.616C93.1738 20.04 93.2165 19.4533 93.3445 18.856C93.4938 18.2373 93.6752 17.6933 93.8885 17.224C93.9312 17.0747 93.9525 16.968 93.9525 16.904C93.9738 16.8187 93.9952 16.7547 94.0165 16.712C94.0378 16.6267 94.0592 16.5413 94.0805 16.456C94.1232 16.3707 94.1872 16.232 94.2725 16.04C94.6352 15.2507 94.9338 14.536 95.1685 13.896C95.4245 13.256 95.6912 12.616 95.9685 11.976C96.2672 11.3147 96.6298 10.632 97.0565 9.928C97.4832 9.20267 98.0912 8.38133 98.8805 7.464L99.0405 7.272V7.24C99.4032 6.83467 99.7872 6.472 100.193 6.152C100.598 5.832 101.046 5.55467 101.536 5.32C101.707 5.34133 101.974 5.384 102.337 5.448C102.721 5.512 102.966 5.61867 103.073 5.768C103.414 6.216 103.585 6.68533 103.585 7.176C103.585 7.28267 103.574 7.4 103.553 7.528C103.531 7.63467 103.499 7.74133 103.457 7.848C103.371 8.08267 103.137 8.424 102.753 8.872C102.39 9.29867 101.963 9.75733 101.473 10.248C101.003 10.7173 100.545 11.1547 100.097 11.56C99.6698 11.944 99.3392 12.2213 99.1045 12.392C99.0832 12.4133 99.0405 12.456 98.9765 12.52C98.9125 12.5627 98.8485 12.6053 98.7845 12.648C98.6352 12.776 98.4218 12.968 98.1445 13.224C97.8885 13.4587 97.6752 13.576 97.5045 13.576C97.4832 13.5547 97.4725 13.544 97.4725 13.544C97.4725 13.5227 97.4725 13.512 97.4725 13.512C97.4725 13.512 97.4618 13.512 97.4405 13.512C97.4192 13.4907 97.3978 13.48 97.3765 13.48V13.384C98.2725 12.5093 99.1578 11.6347 100.033 10.76C100.929 9.864 101.707 8.872 102.369 7.784C102.475 7.63467 102.603 7.44267 102.753 7.208C102.923 6.952 103.009 6.74933 103.009 6.6C103.009 6.51467 102.998 6.45067 102.977 6.408L102.945 6.312C102.539 6.376 102.23 6.536 102.017 6.792C101.825 7.048 101.579 7.272 101.281 7.464C101.131 7.54933 101.046 7.60267 101.025 7.624C101.003 7.624 100.929 7.70933 100.801 7.88L100.673 8.04C100.587 8.14667 100.513 8.22133 100.449 8.264C100.406 8.30667 100.331 8.37067 100.225 8.456C100.118 8.56267 100.075 8.66933 100.097 8.776C99.9045 8.84 99.7552 8.936 99.6485 9.064C99.5632 9.192 99.4885 9.34133 99.4245 9.512C99.0832 9.64 98.7952 9.91733 98.5605 10.344C98.3472 10.7707 98.1445 11.1333 97.9525 11.432C97.9098 11.5173 97.8458 11.6027 97.7605 11.688C97.6965 11.752 97.6645 11.8373 97.6645 11.944C97.5792 11.9867 97.4405 12.168 97.2485 12.488C97.0565 12.808 96.9285 13.032 96.8645 13.16C96.8432 13.224 96.8112 13.3093 96.7685 13.416C96.7258 13.5227 96.6938 13.5973 96.6725 13.64C96.6512 13.6613 96.5872 13.7787 96.4805 13.992C96.3738 14.184 96.2565 14.4187 96.1285 14.696C96.0218 14.952 95.9258 15.1867 95.8405 15.4C95.7552 15.592 95.7125 15.6987 95.7125 15.72C95.6485 15.8053 95.5525 15.9973 95.4245 16.296C95.2965 16.5947 95.1578 16.936 95.0085 17.32C94.8805 17.704 94.7632 18.056 94.6565 18.376C94.5712 18.696 94.5285 18.9093 94.5285 19.016C94.5498 19.016 94.5818 18.952 94.6245 18.824C94.6885 18.696 94.7312 18.6213 94.7525 18.6C94.8378 18.5147 94.9125 18.4293 94.9765 18.344C95.0618 18.2587 95.1258 18.1733 95.1685 18.088L95.2005 18.024C95.2645 17.896 95.3498 17.7893 95.4565 17.704C95.5632 17.5973 95.6592 17.4907 95.7445 17.384C95.7872 17.3413 95.8618 17.2453 95.9685 17.096C96.0965 16.9253 96.2245 16.7653 96.3525 16.616C96.4805 16.4453 96.5445 16.36 96.5445 16.36V16.232C96.5445 16.1253 96.4805 16.008 96.3525 15.88C96.2245 15.7307 96.0752 15.656 95.9045 15.656V15.464C96.0112 15.4427 96.1178 15.4213 96.2245 15.4C96.3312 15.3573 96.4378 15.336 96.5445 15.336C96.6938 15.336 96.8325 15.3573 96.9605 15.4C97.0885 15.4213 97.2272 15.432 97.3765 15.432C97.4618 15.3253 97.5472 15.24 97.6325 15.176C97.7392 15.0907 97.8352 15.0053 97.9205 14.92C98.2192 14.664 98.5285 14.408 98.8485 14.152C99.1898 13.896 99.5632 13.768 99.9685 13.768C100.31 13.768 100.598 13.864 100.833 14.056C101.067 14.248 101.185 14.504 101.185 14.824C101.185 15.0587 101.078 15.2933 100.865 15.528C100.651 15.7627 100.406 15.9653 100.129 16.136C99.8725 16.3067 99.6378 16.424 99.4245 16.488C99.0192 16.616 98.5925 16.68 98.1445 16.68C98.1018 16.7013 98.0698 16.744 98.0485 16.808C98.0485 16.8507 98.0485 16.8933 98.0485 16.936C98.0698 17.1493 98.1552 17.4267 98.3045 17.768C98.4538 18.088 98.5712 18.3653 98.6565 18.6C98.6992 18.664 98.7205 18.728 98.7205 18.792C98.7418 18.856 98.7632 18.92 98.7845 18.984C98.9338 19.368 99.2005 19.912 99.5845 20.616C99.9898 21.32 100.459 22.088 100.993 22.92C101.526 23.752 102.091 24.5413 102.689 25.288C103.307 26.056 103.905 26.6747 104.481 27.144C105.057 27.6347 105.569 27.88 106.017 27.88C106.358 27.88 106.635 27.7413 106.849 27.464C107.019 27.2293 107.158 26.7813 107.265 26.12C107.371 25.4587 107.425 24.872 107.425 24.36C107.425 24.2533 107.425 24.1467 107.425 24.04C107.425 23.9547 107.414 23.8693 107.393 23.784H107.585V23.848H107.617C107.702 24.04 107.745 24.232 107.745 24.424C107.766 24.6373 107.798 24.8507 107.841 25.064C107.883 25.2773 107.915 25.4907 107.937 25.704C107.958 25.8747 107.979 26.0453 108.001 26.216C108.022 26.3867 108.033 26.5573 108.033 26.728C108.033 26.8133 108.033 26.8987 108.033 26.984C108.033 27.0693 108.011 27.1547 107.969 27.24C107.883 27.4747 107.681 27.7093 107.361 27.944C107.062 28.1787 106.731 28.36 106.369 28.488C106.006 28.6373 105.697 28.712 105.441 28.712ZM97.4725 13.512L97.4405 13.544C97.4405 13.5227 97.4512 13.512 97.4725 13.512ZM97.8565 16.072H97.8885L98.0165 16.008L98.0485 16.04C98.2618 15.976 98.5392 15.848 98.8805 15.656C99.2432 15.4427 99.5632 15.2187 99.8405 14.984C100.118 14.728 100.246 14.5147 100.225 14.344C100.225 14.3227 100.214 14.3227 100.193 14.344H100.065C99.9578 14.3867 99.7872 14.4827 99.5525 14.632C99.3178 14.76 99.1045 14.9093 98.9125 15.08C98.7205 15.2293 98.6138 15.368 98.5925 15.496C98.4645 15.56 98.3152 15.6453 98.1445 15.752C97.9952 15.8373 97.8992 15.944 97.8565 16.072ZM110.883 21.32C110.669 21.32 110.424 21.2667 110.147 21.16C109.869 21.0747 109.645 20.9573 109.475 20.808C108.963 20.3387 108.664 19.8053 108.579 19.208C108.493 18.5893 108.429 17.96 108.387 17.32C108.301 17.4267 108.184 17.5547 108.035 17.704C107.907 17.832 107.789 17.9493 107.683 18.056C107.619 18.12 107.555 18.2053 107.491 18.312C107.427 18.3973 107.363 18.4827 107.299 18.568C107.149 18.7173 107.011 18.8347 106.883 18.92C106.755 18.984 106.637 19.0693 106.531 19.176C106.488 19.2187 106.403 19.3253 106.275 19.496C106.232 19.5813 106.168 19.656 106.083 19.72C105.997 19.7627 105.923 19.8267 105.859 19.912C105.709 19.9333 105.581 20.008 105.475 20.136C105.389 20.2427 105.293 20.36 105.187 20.488C104.973 20.5733 104.739 20.6907 104.483 20.84C104.248 20.968 104.013 21.032 103.779 21.032C103.48 21.032 103.149 20.9573 102.787 20.808C102.445 20.6587 102.136 20.456 101.859 20.2C101.581 19.9227 101.421 19.624 101.379 19.304H101.347V18.728C101.347 18.3867 101.389 18.1627 101.475 18.056C101.517 17.992 101.549 17.9173 101.571 17.832C101.592 17.7253 101.613 17.64 101.635 17.576L102.083 16.936C102.147 16.8293 102.307 16.6373 102.563 16.36C102.84 16.0827 103.128 15.8053 103.427 15.528C103.725 15.2507 103.939 15.0587 104.067 14.952C104.237 14.8027 104.493 14.632 104.835 14.44C105.176 14.248 105.517 14.056 105.859 13.864C106.221 13.672 106.509 13.5227 106.723 13.416L106.851 13.384C106.957 13.2987 107.128 13.2133 107.363 13.128C107.619 13.0213 107.8 12.9573 107.907 12.936C108.035 12.8933 108.237 12.872 108.515 12.872C108.792 12.8507 109.005 12.8293 109.155 12.808C109.283 12.808 109.389 12.7867 109.475 12.744L110.147 12.936C110.381 12.9573 110.659 13.064 110.979 13.256C111.299 13.448 111.469 13.6933 111.491 13.992C111.533 14.1413 111.523 14.2587 111.459 14.344L111.171 14.184C111.021 13.9493 110.808 13.8107 110.531 13.768C110.275 13.704 110.008 13.672 109.731 13.672C109.133 13.672 108.493 13.8213 107.811 14.12C107.128 14.3973 106.477 14.7707 105.859 15.24C105.24 15.688 104.685 16.1787 104.195 16.712C103.725 17.2453 103.384 17.7573 103.171 18.248C103.149 18.312 103.128 18.376 103.107 18.44C103.107 18.504 103.096 18.5573 103.075 18.6C103.011 18.8133 102.947 19.016 102.883 19.208C102.84 19.4 102.829 19.6133 102.851 19.848C102.851 19.9973 102.872 20.0827 102.915 20.104C102.957 20.1253 103.043 20.2 103.171 20.328L103.427 20.424L103.651 20.328L103.907 20.232C104.077 20.168 104.216 20.0827 104.323 19.976C104.408 19.9333 104.483 19.912 104.547 19.912C104.611 19.8907 104.643 19.8693 104.643 19.848C104.792 19.8053 104.867 19.752 104.867 19.688C104.888 19.6027 104.952 19.5173 105.059 19.432C105.379 19.1333 105.688 18.8453 105.987 18.568C106.307 18.2693 106.605 17.96 106.883 17.64C107.032 17.4693 107.213 17.2773 107.427 17.064C107.661 16.8507 107.875 16.6373 108.067 16.424C108.131 16.36 108.184 16.296 108.227 16.232C108.291 16.1467 108.344 16.072 108.387 16.008C108.493 15.8373 108.653 15.6027 108.867 15.304C109.08 14.984 109.325 14.824 109.603 14.824C109.645 14.8027 109.709 14.792 109.795 14.792C110.008 14.792 110.179 14.8773 110.307 15.048C110.435 15.1973 110.499 15.3573 110.499 15.528C110.499 15.7413 110.456 15.944 110.371 16.136C110.285 16.3067 110.221 16.488 110.179 16.68C110.093 17.1707 110.051 17.6507 110.051 18.12C110.051 18.2693 110.051 18.4187 110.051 18.568C110.051 18.7173 110.061 18.8773 110.083 19.048C110.147 19.496 110.371 19.9013 110.755 20.264L110.883 20.296C111.181 20.1253 111.384 19.9547 111.491 19.784C111.619 19.6133 111.789 19.4 112.003 19.144C112.003 19.144 112.024 19.1333 112.067 19.112C112.109 19.0693 112.141 19.048 112.163 19.048C112.248 19.048 112.291 19.0907 112.291 19.176V19.208C112.291 19.2933 112.28 19.3787 112.259 19.464C112.237 19.528 112.216 19.6133 112.195 19.72C112.173 19.976 112.045 20.3067 111.811 20.712C111.597 21.1173 111.288 21.32 110.883 21.32ZM113.209 21.672C113.06 21.672 112.9 21.6293 112.729 21.544C112.559 21.4587 112.441 21.3413 112.377 21.192L112.409 21.032C112.537 20.3707 112.729 19.7307 112.985 19.112C113.241 18.4933 113.476 17.8747 113.689 17.256C113.86 16.7867 114.052 16.2107 114.265 15.528C114.479 14.8453 114.585 14.2373 114.585 13.704C114.585 13.64 114.585 13.576 114.585 13.512C114.585 13.4267 114.575 13.352 114.553 13.288C114.404 13.288 114.265 13.3093 114.137 13.352C114.009 13.3733 113.871 13.384 113.721 13.384H113.689C113.583 13.384 113.529 13.32 113.529 13.192C113.529 13.128 113.572 13.0533 113.657 12.968C113.743 12.8827 113.871 12.84 114.041 12.84C114.105 12.8613 114.287 12.872 114.585 12.872C114.756 12.872 114.991 12.8827 115.289 12.904C115.588 12.904 115.865 12.936 116.121 13C116.399 13.064 116.559 13.2027 116.601 13.416C116.623 13.544 116.559 13.7893 116.409 14.152C116.281 14.4933 116.132 14.8667 115.961 15.272C115.769 15.6773 115.588 16.072 115.417 16.456C115.353 16.6267 115.289 16.7973 115.225 16.968C115.161 17.1173 115.129 17.2453 115.129 17.352V17.384L115.193 17.288C115.321 17.096 115.449 16.9147 115.577 16.744C115.727 16.5733 115.844 16.4133 115.929 16.264C116.036 16.136 116.196 15.944 116.409 15.688C116.644 15.4107 116.879 15.1227 117.113 14.824C117.369 14.5253 117.615 14.2267 117.849 13.928C118.105 13.6293 118.329 13.4053 118.521 13.256C118.564 13.2133 118.607 13.16 118.649 13.096C118.713 13.032 118.777 12.9893 118.841 12.968C118.905 12.9467 118.991 12.936 119.097 12.936C119.225 12.9147 119.407 12.904 119.641 12.904C119.705 12.904 119.769 12.9147 119.833 12.936C119.897 12.936 119.951 12.936 119.993 12.936C120.079 12.936 120.26 13 120.537 13.128C120.815 13.2347 121.092 13.3627 121.369 13.512C121.647 13.6613 121.785 13.7893 121.785 13.896C121.807 14.1093 121.732 14.2693 121.561 14.376C121.412 14.4613 121.284 14.568 121.177 14.696C121.028 14.888 120.879 15.1013 120.729 15.336C120.601 15.5493 120.495 15.7733 120.409 16.008L120.345 16.2C120.26 16.2853 120.185 16.328 120.121 16.328C119.993 16.328 119.951 16.2533 119.993 16.104C119.993 15.8907 120.015 15.6987 120.057 15.528C120.1 15.336 120.132 15.1653 120.153 15.016C120.196 14.8453 120.217 14.6853 120.217 14.536C120.239 14.3653 120.239 14.184 120.217 13.992C120.217 13.928 120.196 13.896 120.153 13.896C119.961 13.896 119.78 13.9813 119.609 14.152C119.439 14.3227 119.3 14.472 119.193 14.6L119.001 14.728C118.895 14.8773 118.713 15.048 118.457 15.24L117.849 15.688C117.7 15.7947 117.487 16.008 117.209 16.328C116.932 16.6267 116.719 16.8613 116.569 17.032C116.569 17.0533 116.495 17.064 116.345 17.064H116.313L116.281 17.096V17.16C116.324 17.224 116.303 17.2987 116.217 17.384C116.089 17.5547 115.865 17.8427 115.545 18.248C115.225 18.6533 114.916 19.0587 114.617 19.464C114.319 19.848 114.148 20.1253 114.105 20.296C114.02 20.5307 113.945 20.744 113.881 20.936C113.839 21.128 113.828 21.3627 113.849 21.64C113.7 21.6187 113.593 21.608 113.529 21.608C113.487 21.6293 113.455 21.64 113.433 21.64C113.369 21.6613 113.295 21.672 113.209 21.672ZM127.377 23.752C126.993 23.752 126.62 23.688 126.257 23.56C125.894 23.4533 125.628 23.2293 125.457 22.888C125.393 22.76 125.329 22.5893 125.265 22.376C125.201 22.1627 125.169 21.9813 125.169 21.832V21.608C125.169 21.5013 125.169 21.3947 125.169 21.288C125.169 21.2027 125.18 21.1173 125.201 21.032C125.286 20.712 125.393 20.3067 125.521 19.816C125.649 19.3253 125.798 18.9413 125.969 18.664H125.905L125.873 18.536L126.001 18.408C126.065 18.3653 126.118 18.312 126.161 18.248H126.065L126.033 18.184C125.948 18.2267 125.916 18.3013 125.937 18.408C125.788 18.4507 125.649 18.5893 125.521 18.824C125.414 19.0373 125.308 19.1653 125.201 19.208L125.265 19.304H125.105L124.945 19.4C124.902 19.4427 124.881 19.4747 124.881 19.496L124.849 19.528C124.785 19.592 124.721 19.624 124.657 19.624C124.465 19.9653 124.124 20.3173 123.633 20.68C123.164 21.0427 122.716 21.224 122.289 21.224C122.097 21.224 121.926 21.192 121.777 21.128C121.628 21.0853 121.5 21.032 121.393 20.968C121.329 20.9253 121.244 20.8827 121.137 20.84C121.052 20.776 120.966 20.7333 120.881 20.712L120.785 20.68C120.7 20.4453 120.604 20.3067 120.497 20.264C120.369 20.2 120.284 19.9973 120.241 19.656L120.209 19.368L120.241 19.24C120.241 19.1547 120.273 19.0373 120.337 18.888C120.38 18.7173 120.444 18.6107 120.529 18.568C120.529 18.312 120.614 18.0347 120.785 17.736C120.956 17.4373 121.148 17.1493 121.361 16.872C121.574 16.5733 121.756 16.3387 121.905 16.168C122.268 15.7627 122.609 15.4 122.929 15.08C123.249 14.76 123.665 14.4613 124.177 14.184V14.216C124.284 14.1733 124.38 14.1307 124.465 14.088C124.572 14.0453 124.678 14.024 124.785 14.024C124.87 13.9813 124.945 13.96 125.009 13.96C125.137 13.96 125.35 14.0347 125.649 14.184C125.948 14.312 126.225 14.472 126.481 14.664C126.758 14.8347 126.897 15.0053 126.897 15.176C126.897 15.1973 126.897 15.272 126.897 15.4C126.897 15.5067 126.876 15.5707 126.833 15.592C126.769 15.6773 126.705 15.7307 126.641 15.752C126.598 15.7733 126.556 15.8373 126.513 15.944C126.492 16.008 126.438 16.104 126.353 16.232C126.289 16.36 126.204 16.424 126.097 16.424H126.033C126.012 16.3813 126.001 16.3067 126.001 16.2C126.022 16.0933 126.033 16.04 126.033 16.04C126.097 15.976 126.129 15.8693 126.129 15.72C126.129 15.5707 126.086 15.432 126.001 15.304C125.916 15.1547 125.798 15.08 125.649 15.08C125.478 15.08 125.244 15.176 124.945 15.368C124.668 15.5387 124.444 15.6773 124.273 15.784C123.654 16.1467 123.121 16.648 122.673 17.288C122.246 17.928 121.916 18.5893 121.681 19.272C121.596 19.4853 121.553 19.7413 121.553 20.04C121.553 20.1893 121.574 20.3387 121.617 20.488C121.681 20.616 121.766 20.68 121.873 20.68C122.214 20.68 122.63 20.4773 123.121 20.072C123.633 19.6453 124.156 19.144 124.689 18.568C125.222 17.9707 125.713 17.3947 126.161 16.84C126.609 16.2853 126.94 15.8693 127.153 15.592C127.26 15.4427 127.398 15.2293 127.569 14.952C127.74 14.6747 127.9 14.3867 128.049 14.088C128.22 13.7893 128.38 13.5013 128.529 13.224C128.678 12.9253 128.806 12.7013 128.913 12.552C128.956 12.4667 129.02 12.3813 129.105 12.296C129.212 12.1893 129.265 12.0933 129.265 12.008C129.308 11.9653 129.361 11.8587 129.425 11.688C129.468 11.6027 129.51 11.5067 129.553 11.4C129.617 11.2933 129.67 11.176 129.713 11.048C129.82 10.8133 129.926 10.5893 130.033 10.376C130.14 10.1413 130.225 9.98133 130.289 9.896C130.396 9.768 130.47 9.62933 130.513 9.48C130.577 9.33067 130.684 9.192 130.833 9.064L130.961 8.968L130.993 8.744C130.993 8.70133 131.057 8.57333 131.185 8.36C131.334 8.14667 131.452 7.99733 131.537 7.912L131.505 7.848C131.654 7.76267 131.772 7.656 131.857 7.528C131.964 7.4 132.07 7.272 132.177 7.144C132.284 7.016 132.412 6.888 132.561 6.76C132.71 6.61067 132.881 6.49333 133.073 6.408C133.201 6.42933 133.436 6.52533 133.777 6.696C134.118 6.84533 134.364 6.96267 134.513 7.048V7.112C134.641 7.24 134.705 7.368 134.705 7.496C134.705 7.60267 134.63 7.752 134.481 7.944C134.438 8.02933 134.385 8.11467 134.321 8.2C134.257 8.264 134.204 8.31733 134.161 8.36L133.745 8.904C133.596 9.11733 133.404 9.32 133.169 9.512C132.956 9.68267 132.753 9.85333 132.561 10.024C132.412 10.152 132.273 10.2693 132.145 10.376C132.038 10.4827 131.964 10.568 131.921 10.632L131.537 11.016C131.409 11.144 131.292 11.2827 131.185 11.432C131.1 11.5813 130.993 11.7307 130.865 11.88C130.588 12.1787 130.332 12.4987 130.097 12.84C129.862 13.16 129.638 13.4907 129.425 13.832C129.318 14.024 129.201 14.216 129.073 14.408C128.966 14.5787 128.838 14.7493 128.689 14.92L128.625 15.048L128.529 15.272C128.465 15.4427 128.38 15.56 128.273 15.624C128.252 15.7093 128.209 15.816 128.145 15.944C128.102 16.0507 128.049 16.168 127.985 16.296C127.9 16.4453 127.825 16.584 127.761 16.712C127.697 16.84 127.644 16.9467 127.601 17.032C127.558 17.16 127.516 17.3093 127.473 17.48C127.452 17.6507 127.388 17.7787 127.281 17.864C127.281 17.9707 127.249 18.0667 127.185 18.152C127.121 18.216 127.068 18.2907 127.025 18.376C126.897 18.6747 126.79 19.0587 126.705 19.528C126.62 19.9973 126.566 20.4773 126.545 20.968C126.524 21.4373 126.524 21.8427 126.545 22.184C126.566 22.376 126.609 22.568 126.673 22.76C126.737 22.9733 126.854 23.1333 127.025 23.24C127.046 23.24 127.078 23.2293 127.121 23.208L127.153 23.24L127.697 23.048C127.804 23.0053 127.889 22.9307 127.953 22.824C128.017 22.7173 128.145 22.664 128.337 22.664L128.433 22.728L128.305 23.24C128.284 23.368 128.156 23.4853 127.921 23.592C127.686 23.6987 127.505 23.752 127.377 23.752Z" fill="white"/>
</g>
</g>
<defs>
<filter id="filter0_d_335_327" x="0" y="0" width="135.705" height="31.792" filterUnits="userSpaceOnUse" color-interpolation-filters="sRGB">
<feFlood flood-opacity="0" result="BackgroundImageFix"/>
<feColorMatrix in="SourceAlpha" type="matrix" values="0 0 0 0 0 0 0 0 0 0 0 0 0 0 0 0 0 0 127 0" result="hardAlpha"/>
<feOffset dx="1" dy="1"/>
<feComposite in2="hardAlpha" operator="out"/>
<feColorMatrix type="matrix" values="0 0 0 0 0 0 0 0 0 0 0 0 0 0 0 0 0 0 0.4 0"/>
<feBlend mode="normal" in2="BackgroundImageFix" result="effect1_dropShadow_335_327"/>
<feBlend mode="normal" in="SourceGraphic" in2="effect1_dropShadow_335_327" result="shape"/>
</filter>
<filter id="filter1_d_335_327" x="1.45605" y="5.32001" width="134.249" height="26.472" filterUnits="userSpaceOnUse" color-interpolation-filters="sRGB">
<feFlood flood-opacity="0" result="BackgroundImageFix"/>
<feColorMatrix in="SourceAlpha" type="matrix" values="0 0 0 0 0 0 0 0 0 0 0 0 0 0 0 0 0 0 127 0" result="hardAlpha"/>
<feOffset dx="1" dy="1"/>
<feComposite in2="hardAlpha" operator="out"/>
<feColorMatrix type="matrix" values="0 0 0 0 0 0 0 0 0 0 0 0 0 0 0 0 0 0 0.25 0"/>
<feBlend mode="normal" in2="BackgroundImageFix" result="effect1_dropShadow_335_327"/>
<feBlend mode="normal" in="SourceGraphic" in2="effect1_dropShadow_335_327" result="shape"/>
</filter>
</defs>
</svg>
